<svg width="512" height="512" viewBox="0 0 512 512" fill="none" xmlns="http://www.w3.org/2000/svg">
<path d="M54.2425 294.434C69.4046 278.95 83.7544 263.537 103.637 255.308C106.598 254.082 111.283 253.645 113.762 255.155C139.668 270.936 167.564 279.277 197.937 278.541C225.062 277.883 249.569 268.594 272.99 255.476C276.188 253.685 282.195 253.524 285.243 255.361C322.311 277.705 349.992 308.185 366.913 348.587C371.261 358.968 368.467 365.087 362.29 372.209C329.673 409.814 290.118 436.07 240.989 446.727C199.971 455.624 159.86 452.936 120.066 439.069C89.8772 428.549 64.3652 411.044 41.0904 390.015C31.6901 381.521 24.3367 370.763 16 360.974C24.3917 336.379 36.0495 313.954 54.2425 294.434Z" fill="url(#paint0_linear_1641_135)" stroke="black" stroke-width="20"/>
<path d="M120.648 185.965C100.744 148.79 108.476 110.65 133.911 84.8871C156.307 62.2025 184.717 54.9057 216.386 63.4898C269.617 77.9183 294.479 140.951 264.865 188.905C239.464 230.036 181.832 241.391 143.403 210.766C134.92 204.005 128.434 194.739 120.648 185.965Z" fill="url(#paint1_linear_1641_135)" stroke="black" stroke-width="20"/>
<path d="M418.979 102.362V256.408" stroke="black" stroke-width="20" stroke-linecap="round" stroke-linejoin="round"/>
<path d="M496 179.385H341.955" stroke="black" stroke-width="20" stroke-linecap="round" stroke-linejoin="round"/>
<defs>
<linearGradient id="paint0_linear_1641_135" x1="192.51" y1="254.056" x2="192.51" y2="451.875" gradientUnits="userSpaceOnUse">
<stop stop-color="#C6C0E9"/>
<stop offset="1" stop-color="white"/>
</linearGradient>
<linearGradient id="paint1_linear_1641_135" x1="193.452" y1="60" x2="193.452" y2="228.167" gradientUnits="userSpaceOnUse">
<stop stop-color="#C6C0E9"/>
<stop offset="1" stop-color="white"/>
</linearGradient>
</defs>
</svg>
