<svg width="512" height="512" viewBox="0 0 512 512" fill="none" xmlns="http://www.w3.org/2000/svg">
<path d="M99.8834 382.495H71.9222C57.0907 382.495 42.8667 376.603 32.3792 366.115C21.8918 355.628 16 341.404 16 326.572V74.9222C16 60.0907 21.8918 45.8667 32.3792 35.3792C42.8667 24.8918 57.0907 19 71.9222 19H323.572C338.404 19 352.628 24.8918 363.115 35.3792C373.603 45.8667 379.495 60.0907 379.495 74.9222V102.883" fill="url(#paint0_linear_1673_145)"/>
<path d="M99.8834 382.495H71.9222C57.0907 382.495 42.8667 376.603 32.3792 366.115C21.8918 355.628 16 341.404 16 326.572V74.9222C16 60.0907 21.8918 45.8667 32.3792 35.3792C42.8667 24.8918 57.0907 19 71.9222 19H323.572C338.404 19 352.628 24.8918 363.115 35.3792C373.603 45.8667 379.495 60.0907 379.495 74.9222V102.883" stroke="black" stroke-width="20" stroke-linecap="round" stroke-linejoin="round"/>
<path d="M440.076 129.679H188.426C157.541 129.679 132.504 154.717 132.504 185.602V437.252C132.504 468.137 157.541 493.174 188.426 493.174H440.076C470.961 493.174 495.999 468.137 495.999 437.252V185.602C495.999 154.717 470.961 129.679 440.076 129.679Z" fill="url(#paint1_linear_1673_145)" stroke="black" stroke-width="20" stroke-linecap="round" stroke-linejoin="round"/>
<path d="M314.444 444.233H314.361C304.191 444.233 294.687 442.271 286.602 438.865C254.258 446.773 231 468.189 231 493.3H397.638C397.638 468.189 374.38 446.773 341.87 438.865C333.784 442.271 324.447 444.175 314.444 444.233Z" fill="url(#paint2_linear_1673_145)" stroke="black" stroke-width="20"/>
<path d="M266.216 383.226C253.065 358.664 258.174 333.465 274.979 316.443C289.776 301.455 308.547 296.634 329.47 302.306C364.64 311.839 381.067 353.485 361.5 385.168C344.718 412.344 306.64 419.846 281.25 399.612C275.645 395.145 271.36 389.023 266.216 383.226Z" fill="url(#paint3_linear_1673_145)" stroke="black" stroke-width="20"/>
<defs>
<linearGradient id="paint0_linear_1673_145" x1="197.747" y1="19" x2="197.747" y2="382.495" gradientUnits="userSpaceOnUse">
<stop stop-color="#C6C0E9"/>
<stop offset="1" stop-color="white"/>
</linearGradient>
<linearGradient id="paint1_linear_1673_145" x1="314.251" y1="129.679" x2="314.251" y2="493.174" gradientUnits="userSpaceOnUse">
<stop stop-color="#C6C0E9"/>
<stop offset="1" stop-color="white"/>
</linearGradient>
<linearGradient id="paint2_linear_1673_145" x1="314.319" y1="438.865" x2="314.319" y2="493.3" gradientUnits="userSpaceOnUse">
<stop stop-color="#C6C0E9"/>
<stop offset="1" stop-color="white" stop-opacity="0"/>
<stop offset="1" stop-color="white"/>
</linearGradient>
<linearGradient id="paint3_linear_1673_145" x1="314.317" y1="300" x2="314.317" y2="411.109" gradientUnits="userSpaceOnUse">
<stop stop-color="#C6C0E9"/>
<stop offset="1" stop-color="white" stop-opacity="0"/>
<stop offset="1" stop-color="white"/>
</linearGradient>
</defs>
</svg>
