<svg width="512" height="512" viewBox="0 0 512 512" fill="none" xmlns="http://www.w3.org/2000/svg">
<g clip-path="url(#clip0_2176_6)">
<rect x="44.5352" y="173.998" width="417.306" height="254.012" fill="url(#paint0_linear_2176_6)"/>
<path d="M250.956 50.5765C253.926 48.969 257.506 48.969 260.476 50.5765L463.234 160.322C472.36 165.262 468.851 179.117 458.474 179.117H52.9579C42.5805 179.117 39.0716 165.262 48.1978 160.322L250.956 50.5765Z" fill="url(#paint1_linear_2176_6)" stroke="black" stroke-width="20"/>
<rect x="14.3164" y="463.29" width="35.2795" height="483.833" rx="17.6398" transform="rotate(-90 14.3164 463.29)" fill="black"/>
<path d="M256.42 403.425H256.35C247.849 403.425 239.905 401.784 233.146 398.938C206.109 405.548 186.668 423.45 186.668 444.441H325.963C325.963 423.45 306.522 405.548 279.345 398.938C272.586 401.784 264.782 403.377 256.42 403.425Z" fill="url(#paint2_linear_2176_6)" stroke="black" stroke-width="15"/>
<path d="M216.067 352.43C205.074 331.899 209.344 310.834 223.391 296.606C235.761 284.077 251.451 280.047 268.942 284.788C298.341 292.757 312.072 327.57 295.716 354.054C281.687 376.77 249.858 383.042 228.634 366.127C223.949 362.394 220.367 357.276 216.067 352.43Z" fill="url(#paint3_linear_2176_6)" stroke="black" stroke-width="15"/>
</g>
<defs>
<linearGradient id="paint0_linear_2176_6" x1="253.188" y1="173.998" x2="253.188" y2="428.01" gradientUnits="userSpaceOnUse">
<stop stop-color="#C6C0E9"/>
<stop offset="1" stop-color="white"/>
</linearGradient>
<linearGradient id="paint1_linear_2176_6" x1="255.716" y1="48" x2="255.716" y2="222.822" gradientUnits="userSpaceOnUse">
<stop stop-color="#C6C0E9"/>
<stop offset="1" stop-color="white"/>
</linearGradient>
<linearGradient id="paint2_linear_2176_6" x1="256.315" y1="398.938" x2="256.315" y2="444.441" gradientUnits="userSpaceOnUse">
<stop stop-color="#C6C0E9"/>
<stop offset="1" stop-color="white" stop-opacity="0"/>
<stop offset="1" stop-color="white"/>
</linearGradient>
<linearGradient id="paint3_linear_2176_6" x1="256.275" y1="282.861" x2="256.275" y2="375.738" gradientUnits="userSpaceOnUse">
<stop stop-color="#C6C0E9"/>
<stop offset="1" stop-color="white" stop-opacity="0"/>
<stop offset="1" stop-color="white"/>
</linearGradient>
<clipPath id="clip0_2176_6">
<rect width="512" height="512" fill="white"/>
</clipPath>
</defs>
</svg>
