<svg width="512" height="512" viewBox="0 0 512 512" fill="none" xmlns="http://www.w3.org/2000/svg">
<path d="M327.062 202.955C378.688 202.955 420.539 161.104 420.539 109.478C420.539 57.8514 378.688 16 327.062 16C275.435 16 233.584 57.8514 233.584 109.478C233.584 161.104 275.435 202.955 327.062 202.955Z" fill="url(#paint0_linear_1669_26)" stroke="black" stroke-width="20"/>
<path d="M124.956 202.954C157.594 202.954 184.051 176.496 184.051 143.859C184.051 111.222 157.594 84.764 124.956 84.764C92.3191 84.764 65.8613 111.222 65.8613 143.859C65.8613 176.496 92.3191 202.954 124.956 202.954Z" fill="url(#paint1_linear_1669_26)" stroke="black" stroke-width="20"/>
<path d="M183.181 256.023C159.919 236.964 138.852 239.487 111.956 239.487C71.7279 239.487 39 272.021 39 312.002V429.343C39 446.706 53.1721 460.824 70.5997 460.824C145.84 460.824 136.775 462.186 136.775 457.58C136.775 374.432 126.927 313.455 183.181 256.023Z" fill="url(#paint2_linear_1669_26)" stroke="black" stroke-width="20"/>
<path d="M352.641 239.915C305.662 235.997 264.827 239.961 229.605 269.033C170.664 316.245 182.007 379.813 182.007 457.579C182.007 478.153 198.747 495.206 219.634 495.206C446.433 495.206 455.459 502.522 468.908 472.739C473.319 462.667 472.11 465.868 472.11 369.516C472.11 292.987 405.845 239.915 352.641 239.915Z" fill="url(#paint3_linear_1669_26)" stroke="black" stroke-width="20"/>
<defs>
<linearGradient id="paint0_linear_1669_26" x1="327.062" y1="16" x2="327.062" y2="202.955" gradientUnits="userSpaceOnUse">
<stop stop-color="#C6C0E9"/>
<stop offset="1" stop-color="white"/>
</linearGradient>
<linearGradient id="paint1_linear_1669_26" x1="124.956" y1="84.764" x2="124.956" y2="202.954" gradientUnits="userSpaceOnUse">
<stop stop-color="#C6C0E9"/>
<stop offset="1" stop-color="white"/>
</linearGradient>
<linearGradient id="paint2_linear_1669_26" x1="111.091" y1="239.376" x2="111.091" y2="461.012" gradientUnits="userSpaceOnUse">
<stop stop-color="#C6C0E9"/>
<stop offset="1" stop-color="white"/>
</linearGradient>
<linearGradient id="paint3_linear_1669_26" x1="326.696" y1="238.648" x2="326.696" y2="496" gradientUnits="userSpaceOnUse">
<stop stop-color="#C6C0E9"/>
<stop offset="1" stop-color="white"/>
</linearGradient>
</defs>
</svg>
