<svg width="512" height="512" viewBox="0 0 512 512" fill="none" xmlns="http://www.w3.org/2000/svg">
<path d="M451 331H481C489.28 331 496 337.72 496 346V436C496 444.28 489.28 451 481 451H391C382.72 451 376 444.28 376 436V346C376 337.72 382.72 331 391 331H421H436L434.117 271.863C433.773 261.071 424.925 252.5 414.127 252.5H256V331H271H301C309.28 331 316 337.72 316 346V436C316 444.28 309.28 451 301 451H211C202.72 451 196 444.28 196 436V346C196 337.72 202.72 331 211 331H241H256V252.5H96.7468C85.8005 252.5 76.8879 261.3 76.7485 272.245L76 331H91H121C129.28 331 136 337.72 136 346V436C136 444.28 129.28 451 121 451H31C22.72 451 16 444.28 16 436V346C16 337.72 22.72 331 31 331H61H76L76.7485 272.245C76.8879 261.3 85.8005 252.5 96.7468 252.5H256V181H241H211C202.72 181 196 174.28 196 166V76C196 67.72 202.72 61 211 61H301C309.28 61 316 67.72 316 76V166C316 174.28 309.28 181 301 181H271H256V252.5H414.127C424.925 252.5 433.773 261.071 434.117 271.863L436 331H451Z" fill="url(#paint0_linear_1675_204)"/>
<path d="M256 181H241H211C202.72 181 196 174.28 196 166V76C196 67.72 202.72 61 211 61H301C309.28 61 316 67.72 316 76V166C316 174.28 309.28 181 301 181H271H256ZM256 181V252.5M256 252.5H96.7468C85.8005 252.5 76.8879 261.3 76.7485 272.245L76 331M256 252.5V331M256 252.5H414.127C424.925 252.5 433.773 261.071 434.117 271.863L436 331M76 331H61H31C22.72 331 16 337.72 16 346V436C16 444.28 22.72 451 31 451H121C129.28 451 136 444.28 136 436V346C136 337.72 129.28 331 121 331H91H76ZM256 331H241H211C202.72 331 196 337.72 196 346V436C196 444.28 202.72 451 211 451H301C309.28 451 316 444.28 316 436V346C316 337.72 309.28 331 301 331H271H256ZM436 331H421H391C382.72 331 376 337.72 376 346V436C376 444.28 382.72 451 391 451H481C489.28 451 496 444.28 496 436V346C496 337.72 489.28 331 481 331H451H436Z" stroke="black" stroke-width="20"/>
<defs>
<linearGradient id="paint0_linear_1675_204" x1="256" y1="61" x2="256" y2="451" gradientUnits="userSpaceOnUse">
<stop stop-color="#C6C0E9"/>
<stop offset="0.302083" stop-color="white"/>
<stop offset="0.708333" stop-color="#C6C0E9"/>
<stop offset="1" stop-color="white"/>
</linearGradient>
</defs>
</svg>
