<svg width="512" height="512" viewBox="0 0 512 512" fill="none" xmlns="http://www.w3.org/2000/svg">
<rect x="163.463" y="161.366" width="185.366" height="185.366" rx="20" fill="url(#paint0_linear_1885_82)" stroke="black" stroke-width="20"/>
<rect x="217.121" y="215.024" width="78.0488" height="78.0488" rx="5" fill="url(#paint1_linear_1885_82)" stroke="black" stroke-width="20"/>
<path d="M312.244 154.049V97.9512H382.976" stroke="black" stroke-width="20"/>
<path d="M103.951 79.4147V197.951H161.024" stroke="black" stroke-width="20"/>
<path d="M257.121 103.805V153.073" stroke="black" stroke-width="20"/>
<path d="M106.879 253.073H164.44" stroke="black" stroke-width="20"/>
<path d="M409.317 255.024H356.146" stroke="black" stroke-width="20"/>
<path d="M198.097 354.049V404.293H133.707" stroke="black" stroke-width="20"/>
<path d="M257.121 352.098V399.902" stroke="black" stroke-width="20"/>
<path d="M356.146 310.146H409.317V432.585" stroke="black" stroke-width="20"/>
<circle cx="103.463" cy="47.7073" r="31.7073" fill="url(#paint2_linear_1885_82)" stroke="black" stroke-width="20"/>
<circle cx="255.658" cy="72.0976" r="31.7073" fill="url(#paint3_linear_1885_82)" stroke="black" stroke-width="20"/>
<circle cx="458.586" cy="97.4634" r="31.7073" fill="url(#paint4_linear_1885_82)" stroke="black" stroke-width="20"/>
<circle cx="441.024" cy="253.561" r="31.7073" fill="url(#paint5_linear_1885_82)" stroke="black" stroke-width="20"/>
<circle cx="72.2444" cy="253.561" r="31.7073" fill="url(#paint6_linear_1885_82)" stroke="black" stroke-width="20"/>
<circle cx="53.7073" cy="399.902" r="31.7073" fill="url(#paint7_linear_1885_82)" stroke="black" stroke-width="20"/>
<circle cx="255.658" cy="432.098" r="31.7073" fill="url(#paint8_linear_1885_82)" stroke="black" stroke-width="20"/>
<circle cx="408.828" cy="464.293" r="31.7073" fill="url(#paint9_linear_1885_82)" stroke="black" stroke-width="20"/>
<defs>
<linearGradient id="paint0_linear_1885_82" x1="256.146" y1="161.366" x2="256.146" y2="346.732" gradientUnits="userSpaceOnUse">
<stop stop-color="#C6C0E9"/>
<stop offset="1" stop-color="white"/>
</linearGradient>
<linearGradient id="paint1_linear_1885_82" x1="256.145" y1="215.024" x2="256.145" y2="293.073" gradientUnits="userSpaceOnUse">
<stop stop-color="#C6C0E9"/>
<stop offset="1" stop-color="white"/>
</linearGradient>
<linearGradient id="paint2_linear_1885_82" x1="103.463" y1="16" x2="103.463" y2="79.4146" gradientUnits="userSpaceOnUse">
<stop stop-color="#C6C0E9"/>
<stop offset="1" stop-color="white"/>
</linearGradient>
<linearGradient id="paint3_linear_1885_82" x1="255.658" y1="40.3903" x2="255.658" y2="103.805" gradientUnits="userSpaceOnUse">
<stop stop-color="#C6C0E9"/>
<stop offset="1" stop-color="white"/>
</linearGradient>
<linearGradient id="paint4_linear_1885_82" x1="458.586" y1="65.7561" x2="458.586" y2="129.171" gradientUnits="userSpaceOnUse">
<stop stop-color="#C6C0E9"/>
<stop offset="1" stop-color="white"/>
</linearGradient>
<linearGradient id="paint5_linear_1885_82" x1="441.024" y1="221.854" x2="441.024" y2="285.268" gradientUnits="userSpaceOnUse">
<stop stop-color="#C6C0E9"/>
<stop offset="1" stop-color="white"/>
</linearGradient>
<linearGradient id="paint6_linear_1885_82" x1="72.2444" y1="221.854" x2="72.2444" y2="285.268" gradientUnits="userSpaceOnUse">
<stop stop-color="#C6C0E9"/>
<stop offset="1" stop-color="white"/>
</linearGradient>
<linearGradient id="paint7_linear_1885_82" x1="53.7073" y1="368.195" x2="53.7073" y2="431.61" gradientUnits="userSpaceOnUse">
<stop stop-color="#C6C0E9"/>
<stop offset="1" stop-color="white"/>
</linearGradient>
<linearGradient id="paint8_linear_1885_82" x1="255.658" y1="400.39" x2="255.658" y2="463.805" gradientUnits="userSpaceOnUse">
<stop stop-color="#C6C0E9"/>
<stop offset="1" stop-color="white"/>
</linearGradient>
<linearGradient id="paint9_linear_1885_82" x1="408.828" y1="432.585" x2="408.828" y2="496" gradientUnits="userSpaceOnUse">
<stop stop-color="#C6C0E9"/>
<stop offset="1" stop-color="white"/>
</linearGradient>
</defs>
</svg>
