<svg width="512" height="512" viewBox="0 0 512 512" fill="none" xmlns="http://www.w3.org/2000/svg">
<circle cx="256" cy="256" r="240" fill="url(#paint0_linear_2014_92)"/>
<path d="M404.886 67.7638C370.761 40.7722 329.94 23.5651 286.79 17.9832C243.64 12.4013 199.784 18.6546 159.914 36.074C120.043 53.4935 85.6584 81.4238 60.4369 116.877C35.2154 152.331 20.1062 193.974 16.7256 237.352L40.653 239.217C43.6956 200.177 57.2939 162.698 79.9932 130.79C102.693 98.8815 133.639 73.7441 169.522 58.0666C205.406 42.3891 244.876 36.7612 283.711 41.7849C322.546 46.8086 359.285 62.295 389.998 86.5874L404.886 67.7638Z" fill="black"/>
<path d="M16.5649 272.457C18.7872 304.79 27.5355 336.339 42.282 365.2C57.0285 394.061 77.4678 419.636 102.367 440.383C127.266 461.129 156.11 476.618 187.158 485.915C218.206 495.211 250.815 498.123 283.019 494.474L280.317 470.627C251.334 473.911 221.985 471.29 194.042 462.923C166.099 454.556 140.14 440.616 117.73 421.944C95.321 403.272 76.9257 380.255 63.6538 354.28C50.3819 328.305 42.5085 299.911 40.5084 270.811L16.5649 272.457Z" fill="black"/>
<path d="M313.479 489.015C367.55 475.678 415.3 443.95 448.546 399.27L429.291 384.943C399.37 425.155 356.395 453.71 307.731 465.714L313.479 489.015Z" fill="black"/>
<path d="M460.224 382.066C485.684 340.821 498.059 292.835 495.721 244.421L471.748 245.579C473.853 289.151 462.715 332.339 439.802 369.459L460.224 382.066Z" fill="black"/>
<path d="M494.248 227.053C491.7 206.086 486.396 185.547 478.473 165.969L456.226 174.972C463.357 192.593 468.13 211.078 470.423 229.948L494.248 227.053Z" fill="black"/>
<path d="M494.248 227.053C487.656 172.795 462.741 122.412 423.624 84.2377L406.861 101.414C442.066 135.771 464.49 181.115 470.423 229.948L494.248 227.053Z" fill="black"/>
<path d="M137 187H168.4" stroke="black" stroke-width="20"/>
<path d="M137.055 255.38H168.454" stroke="black" stroke-width="20"/>
<path d="M137 324H168.4" stroke="black" stroke-width="20"/>
<path d="M200.52 187.447H375.715" stroke="black" stroke-width="20"/>
<path d="M200.574 255.827H375.77" stroke="black" stroke-width="20"/>
<path d="M200 324H375.196" stroke="black" stroke-width="20"/>
<defs>
<linearGradient id="paint0_linear_2014_92" x1="256" y1="16" x2="256" y2="496" gradientUnits="userSpaceOnUse">
<stop stop-color="#C6C0E9"/>
<stop offset="1" stop-color="white"/>
</linearGradient>
</defs>
</svg>
