<svg width="512" height="512" viewBox="0 0 512 512" fill="none" xmlns="http://www.w3.org/2000/svg">
<path d="M112 16C58.9806 16 16 58.9806 16 112V232H270.059L215.03 176.971C205.658 167.598 205.658 152.402 215.03 143.029C224.402 133.657 239.598 133.657 248.97 143.029L344.954 239.013L345.126 239.188C347.351 241.451 349.034 244.048 350.178 246.813C351.345 249.623 351.99 252.7 352 255.928V256V256.072C351.981 262.59 349.362 268.499 345.126 272.812L344.954 272.987L248.97 368.97C239.598 378.342 224.402 378.342 215.03 368.97C205.658 359.598 205.658 344.402 215.03 335.03L270.059 280H16V400C16 453.018 58.9806 496 112 496H400C453.018 496 496 453.018 496 400V112C496 58.9806 453.018 16 400 16H112Z" fill="url(#paint0_linear_1673_143)" stroke="black" stroke-width="20"/>
<defs>
<linearGradient id="paint0_linear_1673_143" x1="256" y1="16" x2="256" y2="496" gradientUnits="userSpaceOnUse">
<stop stop-color="#C6C0E9"/>
<stop offset="1" stop-color="white"/>
</linearGradient>
</defs>
</svg>
