<svg width="512" height="512" viewBox="0 0 512 512" fill="none" xmlns="http://www.w3.org/2000/svg">
<path d="M312.05 410.296C311.768 401.189 310.106 392.09 308.599 383.064L163.948 370.683C137.183 339.433 115.028 306.215 104.514 266.131C103.848 266.131 103.123 265.996 102.467 266.151C87.8665 269.617 73.4411 273.66 60.357 281.254C56.8225 283.305 53.4576 285.987 50.73 289.023C44.4338 296.029 40.7295 304.613 37.3826 313.308C31.28 329.161 26.9487 345.528 23.5852 362.154C21.7136 371.405 19.784 380.661 18.4081 389.992C17.3389 397.244 15.2074 404.319 16.306 411.95C18.2337 425.339 29.7102 436.417 43.3001 436.432C121.258 436.52 199.216 436.485 277.174 436.45L284.881 436.447C287.185 436.446 289.559 436.277 291.782 435.716C303.602 432.729 312.429 422.591 312.05 410.296Z" fill="url(#paint0_linear_1675_193)"/>
<path d="M198.529 110.628C192.851 108.192 187.525 105.907 181.822 103.461C181.124 98.0213 180.348 91.9735 179.581 85.9897C169.457 85.9897 159.648 85.9897 149.797 85.9897C149.252 92.0895 148.722 98.0083 148.237 103.441C143.325 105.607 138.524 107.414 134.063 109.845C132.274 110.82 131.571 110.661 130.215 109.484C126.224 106.021 122.086 102.729 118.041 99.3994C110.962 106.479 104.076 113.365 97.0129 120.429C100.006 123.886 103.013 127.388 106.054 130.86C107.906 132.975 108.732 134.84 107.086 137.827C104.918 141.762 103.642 146.189 101.935 150.525C96.2758 151.057 90.2786 151.62 84.1465 152.196C84.1465 156.278 84.1465 160.064 84.1465 164.207C84.1465 170.343 84.1465 176.123 84.1465 181.813C90.569 182.418 96.5919 182.986 101.749 183.472C104.101 188.705 106.278 193.348 108.234 198.082C108.603 198.975 108.48 200.512 107.927 201.273C104.646 205.78 101.171 210.146 97.7504 214.574C104.027 220.834 110.193 226.767 116.081 232.965C118.309 235.312 119.862 234.776 121.934 233.037C125.215 230.286 128.582 227.628 132.036 225.1C132.757 224.572 134.148 224.405 135.004 224.708C139.409 226.272 143.755 228.009 148.084 229.778C148.732 230.042 149.571 230.735 149.66 231.329C150.53 237.145 151.26 242.983 152.039 248.881C161.981 248.881 171.796 248.881 181.729 248.881C182.541 242.446 183.337 236.136 184.047 230.509C188.802 228.608 193.249 227.095 197.438 225.053C199.859 223.874 201.417 224.313 203.291 225.905C206.555 228.677 209.926 231.337 213.41 233.822" stroke="black" stroke-width="20"/>
<path d="M472.498 318.433C476.797 332.667 481.309 346.538 484.835 360.655C487.835 372.665 489.951 384.917 491.991 397.139C493.736 407.595 495.662 418.136 495.987 428.686C496.427 442.929 486.202 454.673 472.509 458.133C469.934 458.783 467.184 458.979 464.514 458.98C371.23 459.022 277.945 459.068 184.66 458.963C168.917 458.945 155.623 446.112 153.39 430.602C152.117 421.762 154.586 413.565 155.825 405.165C157.419 394.355 159.654 383.634 161.822 372.917C165.718 353.657 170.736 334.697 177.805 316.332C181.683 306.26 185.974 296.316 193.267 288.199C196.427 284.683 200.325 281.576 204.42 279.2C219.577 270.403 236.287 265.719 253.2 261.705C253.961 261.524 254.801 261.681 255.573 261.681C267.752 308.116 293.417 346.597 324.422 382.797C355.694 347.049 381.102 308.382 393.417 261.276C398.427 262.495 403.568 263.624 408.64 265.004C422.49 268.771 436.059 273.136 448.095 281.41C455.518 286.513 460.578 293.462 464.711 301.128C467.653 306.586 469.788 312.479 472.498 318.433Z" fill="url(#paint1_linear_1675_193)" stroke="black" stroke-width="20"/>
<path d="M231.979 143.61C231.979 138.81 231.979 134.423 231.979 129.696C239.082 129.028 246.029 128.376 252.586 127.76C254.563 122.736 256.041 117.608 258.552 113.05C260.459 109.589 259.503 107.429 257.356 104.979C253.834 100.957 250.351 96.9006 246.883 92.8952C255.066 84.7124 263.042 76.7352 271.243 68.5341C275.928 72.3908 280.723 76.2046 285.346 80.2164C286.916 81.5794 287.73 81.7638 289.803 80.6345C294.971 77.819 300.533 75.7256 306.223 73.216C306.785 66.9226 307.398 60.0661 308.03 53C319.441 53 330.805 53 342.533 53C343.422 59.9318 344.32 66.9377 345.128 73.2387C351.735 76.073 357.904 78.7195 364.482 81.5412C369.454 77.4001 374.795 72.952 380.103 68.5308C388.211 76.6554 396.18 84.6405 404.341 92.8186C400.591 97.4561 396.926 102.348 392.843 106.862C391.197 108.681 391.403 109.943 392.233 111.832C394.506 117.007 396.617 122.253 398.923 127.784C405.236 128.352 412.196 128.978 419.233 129.611C419.233 141.268 419.233 152.631 419.233 164.049C413.48 164.716 407.89 165.364 402.941 165.938C400.323 171.647 397.766 176.87 395.586 182.245C395.086 183.479 395.383 185.606 396.174 186.696C399.876 191.789 403.879 196.663 408.003 201.907C400.445 209.391 392.983 216.871 385.353 224.175C384.683 224.817 382.542 224.839 381.722 224.254C377.685 221.375 373.78 218.293 369.999 215.081C367.828 213.238 366.023 212.729 363.218 214.095C358.365 216.46 353.214 218.213 347.706 220.415C346.884 226.933 345.961 234.243 345.021 241.698C333.515 241.698 322.144 241.698 310.627 241.698C309.725 234.866 308.879 228.103 307.871 221.365C307.768 220.677 306.796 219.874 306.046 219.568C301.031 217.519 295.997 215.507 290.893 213.696C289.901 213.344 288.29 213.538 287.455 214.149C283.453 217.078 279.553 220.157 275.753 223.344C273.352 225.358 271.554 225.979 268.972 223.261C262.152 216.081 255.009 209.208 247.738 201.956C251.701 196.826 255.726 191.769 259.526 186.548C260.168 185.666 260.31 183.886 259.883 182.851C257.616 177.367 255.094 171.989 252.37 165.926C246.396 165.363 239.419 164.705 231.979 164.004C231.979 157.413 231.979 150.717 231.979 143.61Z" fill="url(#paint2_linear_1675_193)" stroke="black" stroke-width="20"/>
<defs>
<linearGradient id="paint0_linear_1675_193" x1="164.031" y1="266.077" x2="164.031" y2="436.488" gradientUnits="userSpaceOnUse">
<stop stop-color="#C6C0E9"/>
<stop offset="1" stop-color="white"/>
</linearGradient>
<linearGradient id="paint1_linear_1675_193" x1="324.518" y1="261.276" x2="324.518" y2="459.027" gradientUnits="userSpaceOnUse">
<stop stop-color="#C6C0E9"/>
<stop offset="1" stop-color="white"/>
</linearGradient>
<linearGradient id="paint2_linear_1675_193" x1="325.606" y1="53" x2="325.606" y2="241.698" gradientUnits="userSpaceOnUse">
<stop stop-color="#C6C0E9"/>
<stop offset="1" stop-color="white"/>
</linearGradient>
</defs>
</svg>
