<svg width="512" height="512" viewBox="0 0 512 512" fill="none" xmlns="http://www.w3.org/2000/svg">
<path d="M91.4551 147.091C91.4551 92.3646 135.82 48 190.546 48C245.272 48 289.637 92.3646 289.637 147.091C289.637 201.817 245.272 246.182 190.546 246.182C135.82 246.182 91.4551 201.817 91.4551 147.091Z" fill="url(#paint0_linear_1641_120)" stroke="black" stroke-width="20"/>
<path d="M313.833 237.252C308.235 244.895 311.981 256.182 321.454 256.182C381.705 256.182 430.545 207.34 430.545 147.091C430.545 86.8417 381.705 38 321.454 38C311.981 38 308.235 49.2874 313.833 56.9297C332.344 82.198 343.273 113.368 343.273 147.091C343.273 180.814 332.344 211.984 313.833 237.252Z" fill="black" stroke="url(#paint1_linear_1641_120)" stroke-width="20"/>
<path d="M430.546 474.364C418.495 474.364 408.727 464.596 408.727 452.545V408.909C408.727 376.188 397.945 344.078 378.631 317.929C373.412 310.862 378.123 299.818 386.909 299.818C415.842 299.818 443.591 311.312 464.05 331.771C484.506 352.228 496 379.976 496 408.909V452.545C496 464.596 486.232 474.364 474.182 474.364H430.546Z" fill="black" stroke="url(#paint2_linear_1641_120)" stroke-width="20"/>
<path d="M55.0228 338.842L55.0232 338.842C73.6064 320.258 98.8105 309.818 125.091 309.818H256C282.281 309.818 307.486 320.258 326.067 338.842L326.067 338.842C344.651 357.423 355.091 382.628 355.091 408.909V452.545C355.091 459.073 349.8 464.364 343.273 464.364H37.8182C31.2912 464.364 26 459.073 26 452.545V408.909C26 382.628 36.4399 357.423 55.0228 338.842Z" fill="url(#paint3_linear_1641_120)" stroke="black" stroke-width="20"/>
<defs>
<linearGradient id="paint0_linear_1641_120" x1="190.546" y1="38" x2="190.546" y2="256.182" gradientUnits="userSpaceOnUse">
<stop stop-color="#C6C0E9"/>
<stop offset="1" stop-color="white"/>
</linearGradient>
<linearGradient id="paint1_linear_1641_120" x1="370.878" y1="38" x2="370.878" y2="256.182" gradientUnits="userSpaceOnUse">
<stop stop-color="#C6C0E9"/>
<stop offset="1" stop-color="white"/>
</linearGradient>
<linearGradient id="paint2_linear_1641_120" x1="436.227" y1="299.818" x2="436.227" y2="474.364" gradientUnits="userSpaceOnUse">
<stop stop-color="#C6C0E9"/>
<stop offset="1" stop-color="white"/>
</linearGradient>
<linearGradient id="paint3_linear_1641_120" x1="190.545" y1="299.818" x2="190.545" y2="474.364" gradientUnits="userSpaceOnUse">
<stop stop-color="#C6C0E9"/>
<stop offset="1" stop-color="white"/>
</linearGradient>
</defs>
</svg>
