<svg width="512" height="512" viewBox="0 0 512 512" fill="none" xmlns="http://www.w3.org/2000/svg">
<path d="M495.998 277.408C495.36 278.295 494.42 278.619 494.132 279.244C490.658 286.776 485.855 288.961 477.654 287.708C466.8 286.049 455.859 284.959 444.955 283.626C439.423 282.95 433.846 282.53 428.371 281.542C419.605 279.96 415.253 273.43 416.788 264.773C418.082 257.476 425.861 253.379 434.437 254.751C446.054 256.609 457.761 257.904 469.425 259.475C474.63 260.176 479.847 260.826 485.015 261.744C490.411 262.702 492.864 267.053 495.653 271.187C495.998 273.038 495.998 275.012 495.998 277.408Z" fill="url(#paint0_linear_2215_2)"/>
<path d="M113.513 394.508C107.792 380.281 102.238 366.388 96.7637 352.463C95.565 349.415 94.352 348.099 90.3965 348.974C65.2047 354.54 39.9801 338.574 33.8414 313.521C29.0055 293.786 23.2263 274.283 17.9487 254.655C10.5525 227.147 24.5761 200.194 53.7983 192.773C71.0404 188.395 88.2875 183.989 105.341 178.947C109.532 177.708 113.112 174.111 116.735 171.292C134.546 157.433 152.312 143.513 170.028 129.532C190.506 113.372 210.882 97.0823 231.367 80.9309C246.006 69.3881 260.343 57.4015 275.546 46.6462C299.285 29.852 330.047 42.0543 337.445 70.2574C346.512 104.819 356.027 139.263 365.235 173.788C372.192 199.874 378.922 226.02 385.846 252.115C391.349 272.85 397.007 293.545 402.57 314.265C410.431 343.542 384.882 368.582 356.879 363.151C344.563 360.763 331.974 359.809 319.535 358.024C304.908 355.926 290.321 353.555 275.694 351.451C265.453 349.978 255.174 348.767 244.916 347.403C243.527 347.219 242.165 346.829 239.993 346.363C236.153 368.844 224.679 385.899 203.454 396.069C205.382 403.407 206.927 410.702 209.228 417.751C214.329 433.379 211.697 447.575 200.943 459.695C194.381 467.093 185.771 471.369 175.417 472.273C162.081 473.438 150.608 469.79 142.177 459.639C137.623 454.156 134.582 447.199 131.783 440.52C125.453 425.418 119.698 410.075 113.513 394.508ZM210.314 342.568C203.198 341.419 196.083 340.27 188.06 338.974C190.947 349.603 193.499 359.004 196.208 368.979C205.623 362.821 210.775 354.796 212.627 344.598C212.726 344.056 211.651 343.301 210.314 342.568Z" fill="url(#paint1_linear_2215_2)" stroke="black" stroke-width="20"/>
<path d="M429.954 57.507C436.022 59.2112 440.61 62.224 441.73 68.4351C442.657 73.5786 441.469 78.3733 437.189 81.8452C434.358 84.1415 431.313 86.1724 428.383 88.3479C417.667 96.3048 406.922 104.224 396.261 112.255C390.487 116.605 381.128 116.073 377.168 110.978C371.962 104.281 373.281 95.2212 379.988 90.3033C393.046 80.729 405.919 70.8968 419.118 61.5238C422.071 59.4269 426.056 58.7826 429.954 57.507Z" fill="url(#paint2_linear_2215_2)"/>
<path d="M411.947 184.44C410.969 172.895 416.101 169.155 424.65 167.008C440.044 163.142 455.36 158.966 470.731 155.003C477.697 153.206 485.707 157.513 487.214 163.689C489.095 171.403 484.846 179.125 477.449 181.078C461.177 185.375 444.888 189.613 428.581 193.781C421.165 195.676 415.677 192.631 411.947 184.44Z" fill="url(#paint3_linear_2215_2)"/>
<defs>
<linearGradient id="paint0_linear_2215_2" x1="456.241" y1="254.488" x2="456.241" y2="288.039" gradientUnits="userSpaceOnUse">
<stop stop-color="#C6C0E9"/>
<stop offset="1" stop-color="white"/>
</linearGradient>
<linearGradient id="paint1_linear_2215_2" x1="210.006" y1="39" x2="210.006" y2="472.482" gradientUnits="userSpaceOnUse">
<stop stop-color="#C6C0E9"/>
<stop offset="1" stop-color="white"/>
</linearGradient>
<linearGradient id="paint2_linear_2215_2" x1="408.001" y1="57.507" x2="408.001" y2="115.191" gradientUnits="userSpaceOnUse">
<stop stop-color="#C6C0E9"/>
<stop offset="1" stop-color="white"/>
</linearGradient>
<linearGradient id="paint3_linear_2215_2" x1="449.743" y1="154.592" x2="449.743" y2="194.325" gradientUnits="userSpaceOnUse">
<stop stop-color="#C6C0E9"/>
<stop offset="1" stop-color="white"/>
</linearGradient>
</defs>
</svg>
