<svg width="512" height="512" viewBox="0 0 512 512" fill="none" xmlns="http://www.w3.org/2000/svg">
<g clip-path="url(#clip0_2163_19)">
<rect x="46" y="145" width="414" height="320" fill="url(#paint0_linear_2163_19)"/>
<path d="M250.74 22.5765C253.71 20.969 257.29 20.969 260.26 22.5765L461.099 131.284C470.225 136.223 466.716 150.078 456.339 150.078H54.6611C44.2837 150.078 40.7747 136.223 49.901 131.284L250.74 22.5765Z" fill="url(#paint1_linear_2163_19)" stroke="black" stroke-width="20"/>
<rect x="64" y="184" width="35" height="245" rx="17.5" fill="black"/>
<rect x="238" y="184" width="35" height="245" rx="17.5" fill="black"/>
<rect x="409" y="184" width="35" height="245" rx="17.5" fill="black"/>
<rect x="16" y="492" width="35" height="480" rx="17.5" transform="rotate(-90 16 492)" fill="black"/>
</g>
<defs>
<linearGradient id="paint0_linear_2163_19" x1="253" y1="145" x2="253" y2="465" gradientUnits="userSpaceOnUse">
<stop stop-color="#C6C0E9"/>
<stop offset="1" stop-color="white"/>
</linearGradient>
<linearGradient id="paint1_linear_2163_19" x1="255.5" y1="20" x2="255.5" y2="193.438" gradientUnits="userSpaceOnUse">
<stop stop-color="#C6C0E9"/>
<stop offset="1" stop-color="white"/>
</linearGradient>
<clipPath id="clip0_2163_19">
<rect width="512" height="512" fill="white"/>
</clipPath>
</defs>
</svg>
