<svg width="512" height="512" viewBox="0 0 512 512" fill="none" xmlns="http://www.w3.org/2000/svg">
<path d="M16 81.7666V212.676H146.909" fill="url(#paint0_linear_1675_229)"/>
<path d="M16 81.7666V212.676H146.909" stroke="black" stroke-width="20" stroke-linecap="round" stroke-linejoin="round"/>
<path d="M495.999 430.857V299.948H365.09" fill="url(#paint1_linear_1675_229)"/>
<path d="M495.999 430.857V299.948H365.09" stroke="black" stroke-width="20" stroke-linecap="round" stroke-linejoin="round"/>
<path d="M441.236 190.857C430.171 159.587 411.364 131.63 386.572 109.594C361.779 87.5578 331.808 72.1614 299.456 64.8413C267.103 57.5211 233.424 58.5158 201.559 67.7325C169.695 76.9493 140.685 94.0876 117.236 117.548L16 212.676M496 299.948L394.764 395.076C371.315 418.536 342.305 435.675 310.441 444.892C278.576 454.108 244.897 455.103 212.544 447.783C180.192 440.463 150.221 425.066 125.428 403.03C100.636 380.994 81.8291 353.037 70.7636 321.767" fill="url(#paint2_linear_1675_229)"/>
<path d="M441.236 190.857C430.171 159.587 411.364 131.63 386.572 109.594C361.779 87.5578 331.808 72.1614 299.456 64.8413C267.103 57.5211 233.424 58.5158 201.559 67.7325C169.695 76.9493 140.685 94.0876 117.236 117.548L16 212.676M496 299.948L394.764 395.076C371.315 418.536 342.305 435.675 310.441 444.892C278.576 454.108 244.897 455.103 212.544 447.783C180.192 440.463 150.221 425.066 125.428 403.03C100.636 380.994 81.8291 353.037 70.7636 321.767" stroke="black" stroke-width="20" stroke-linecap="round" stroke-linejoin="round"/>
<path d="M306.556 249H205.444C197.467 249 191 255.467 191 263.444V314C191 321.977 197.467 328.444 205.444 328.444H306.556C314.533 328.444 321 321.977 321 314V263.444C321 255.467 314.533 249 306.556 249Z" fill="url(#paint3_linear_1675_229)" stroke="black" stroke-width="20" stroke-linecap="round" stroke-linejoin="round"/>
<path d="M219.889 249V220.111C219.889 210.534 223.693 201.349 230.465 194.577C237.238 187.805 246.423 184 256 184C265.577 184 274.762 187.805 281.534 194.577C288.306 201.349 292.111 210.534 292.111 220.111V249" fill="url(#paint4_linear_1675_229)"/>
<path d="M219.889 249V220.111C219.889 210.534 223.693 201.349 230.465 194.577C237.238 187.805 246.423 184 256 184C265.577 184 274.762 187.805 281.534 194.577C288.306 201.349 292.111 210.534 292.111 220.111V249" stroke="black" stroke-width="20" stroke-linecap="round" stroke-linejoin="round"/>
<defs>
<linearGradient id="paint0_linear_1675_229" x1="81.4545" y1="81.7666" x2="81.4545" y2="212.676" gradientUnits="userSpaceOnUse">
<stop stop-color="#C6C0E9"/>
<stop offset="1" stop-color="white"/>
</linearGradient>
<linearGradient id="paint1_linear_1675_229" x1="430.544" y1="299.948" x2="430.544" y2="430.857" gradientUnits="userSpaceOnUse">
<stop stop-color="#C6C0E9"/>
<stop offset="1" stop-color="white"/>
</linearGradient>
<linearGradient id="paint2_linear_1675_229" x1="256" y1="60" x2="256" y2="452.624" gradientUnits="userSpaceOnUse">
<stop stop-color="#C6C0E9"/>
<stop offset="1" stop-color="white"/>
</linearGradient>
<linearGradient id="paint3_linear_1675_229" x1="256" y1="249" x2="256" y2="328.444" gradientUnits="userSpaceOnUse">
<stop stop-color="#C6C0E9"/>
<stop offset="1" stop-color="white"/>
</linearGradient>
<linearGradient id="paint4_linear_1675_229" x1="256" y1="184" x2="256" y2="249" gradientUnits="userSpaceOnUse">
<stop stop-color="#C6C0E9"/>
<stop offset="1" stop-color="white"/>
</linearGradient>
</defs>
</svg>
