<svg width="512" height="512" viewBox="0 0 512 512" fill="none" xmlns="http://www.w3.org/2000/svg">
<path d="M343.274 452.728V409.092C343.274 385.946 334.079 363.747 317.712 347.381C301.345 331.014 279.147 321.819 256.001 321.819H103.273C80.1267 321.819 57.9285 331.014 41.5617 347.381C25.1948 363.747 16 385.946 16 409.092V452.728" fill="url(#paint0_linear_1639_100)"/>
<path d="M343.274 452.728V409.092C343.274 385.946 334.079 363.747 317.712 347.381C301.345 331.014 279.147 321.819 256.001 321.819H103.273C80.1267 321.819 57.9285 331.014 41.5617 347.381C25.1948 363.747 16 385.946 16 409.092V452.728" stroke="black" stroke-width="20" stroke-linecap="round" stroke-linejoin="round"/>
<path d="M179.636 234.546C227.836 234.546 266.909 195.473 266.909 147.273C266.909 99.0734 227.836 60 179.636 60C131.437 60 92.3633 99.0734 92.3633 147.273C92.3633 195.473 131.437 234.546 179.636 234.546Z" fill="url(#paint1_linear_1639_100)" stroke="black" stroke-width="20" stroke-linecap="round" stroke-linejoin="round"/>
<path d="M430.545 169.091V300.001" stroke="black" stroke-width="20" stroke-linecap="round" stroke-linejoin="round"/>
<path d="M495.999 234.546H365.09" stroke="black" stroke-width="20" stroke-linecap="round" stroke-linejoin="round"/>
<defs>
<linearGradient id="paint0_linear_1639_100" x1="179.637" y1="321.819" x2="179.637" y2="452.728" gradientUnits="userSpaceOnUse">
<stop stop-color="#C6C0E9"/>
<stop offset="1" stop-color="white"/>
</linearGradient>
<linearGradient id="paint1_linear_1639_100" x1="179.636" y1="60" x2="179.636" y2="234.546" gradientUnits="userSpaceOnUse">
<stop stop-color="#C6C0E9"/>
<stop offset="1" stop-color="white"/>
</linearGradient>
</defs>
</svg>
