<svg width="512" height="512" viewBox="0 0 512 512" fill="none" xmlns="http://www.w3.org/2000/svg">
<path d="M148.977 409.659C142.642 393.905 136.493 378.521 130.431 363.102C129.103 359.726 127.76 358.27 123.38 359.238C95.4851 365.402 67.5535 347.722 60.756 319.981C55.4012 298.128 49.0018 276.532 43.1578 254.797C34.9679 224.337 50.4965 194.492 82.8546 186.275C101.947 181.427 121.045 176.548 139.928 170.965C144.569 169.593 148.533 165.61 152.545 162.489C172.268 147.142 191.94 131.729 211.558 116.248C234.233 98.3532 256.795 80.3153 279.478 62.4307C295.689 49.6491 311.565 36.3762 328.399 24.4667C354.686 5.87031 388.748 19.3821 396.941 50.6117C406.98 88.8824 417.516 127.023 427.712 165.253C435.416 194.138 442.868 223.09 450.536 251.985C456.629 274.946 462.894 297.861 469.054 320.804C477.758 353.224 449.468 380.95 418.46 374.937C404.823 372.292 390.883 371.236 377.109 369.26C360.912 366.936 344.759 364.311 328.563 361.981C317.223 360.35 305.84 359.009 294.482 357.499C292.944 357.295 291.436 356.863 289.03 356.347C284.779 381.241 272.073 400.126 248.571 411.388C250.706 419.513 252.416 427.591 254.964 435.396C260.613 452.701 257.697 468.42 245.79 481.842C238.524 490.033 228.989 494.767 217.524 495.769C202.757 497.059 190.053 493.02 180.717 481.779C175.675 475.708 172.307 468.004 169.208 460.608C162.199 443.886 155.826 426.897 148.977 409.659ZM256.167 352.145C248.287 350.872 240.408 349.6 231.524 348.165C234.721 359.935 237.548 370.345 240.547 381.39C250.972 374.571 256.677 365.685 258.728 354.392C258.837 353.792 257.647 352.956 256.167 352.145Z" fill="url(#paint0_linear_2218_32)" stroke="black" stroke-width="20"/>
<path d="M256 273V203" stroke="black" stroke-width="15" stroke-linecap="round" stroke-linejoin="round"/>
<path d="M221 238H291" stroke="black" stroke-width="15" stroke-linecap="round" stroke-linejoin="round"/>
<defs>
<linearGradient id="paint0_linear_2218_32" x1="255.825" y1="16" x2="255.825" y2="496" gradientUnits="userSpaceOnUse">
<stop stop-color="#C6C0E9"/>
<stop offset="1" stop-color="white"/>
</linearGradient>
</defs>
</svg>
