<svg width="512" height="512" viewBox="0 0 512 512" fill="none" xmlns="http://www.w3.org/2000/svg">
<path d="M425.623 16H86C83.2386 16 81 18.2386 81 21V445.19C81 446.385 81.4281 447.541 82.2066 448.447L119.27 491.61C121.257 493.924 124.835 493.935 126.837 491.634L161.862 451.354C163.847 449.071 167.389 449.061 169.388 451.331L205.031 491.814C206.998 494.049 210.469 494.08 212.476 491.882L249.768 451.039C251.735 448.885 255.121 448.865 257.113 450.996L295.486 492.046C297.478 494.177 300.864 494.158 302.831 492.003L340.122 451.16C342.129 448.962 345.601 448.994 347.568 451.228L383.257 491.764C385.24 494.016 388.746 494.026 390.742 491.786L429.356 448.464C430.172 447.548 430.623 446.364 430.623 445.137V21C430.623 18.2386 428.384 16 425.623 16Z" fill="url(#paint0_linear_2164_53)" stroke="black" stroke-width="20"/>
<path d="M256 328V184" stroke="black" stroke-width="20" stroke-linecap="round" stroke-linejoin="round"/>
<path d="M184 256H328" stroke="black" stroke-width="20" stroke-linecap="round" stroke-linejoin="round"/>
<defs>
<linearGradient id="paint0_linear_2164_53" x1="255.812" y1="16" x2="255.812" y2="496" gradientUnits="userSpaceOnUse">
<stop stop-color="#C6C0E9"/>
<stop offset="1" stop-color="white"/>
</linearGradient>
</defs>
</svg>
