<svg width="512" height="512" viewBox="0 0 512 512" fill="none" xmlns="http://www.w3.org/2000/svg">
<path d="M352 159.985V279.985C352 299.081 359.586 317.394 373.088 330.897C386.591 344.399 404.904 351.985 424 351.985C443.096 351.985 461.409 344.399 474.912 330.897C488.414 317.394 496 299.081 496 279.985V255.985C495.997 201.818 477.669 149.244 443.999 106.814C410.328 64.3831 363.293 34.5905 310.543 22.2802C257.794 9.96998 202.431 15.8661 153.457 39.0099C104.482 62.1537 64.7777 101.184 40.7984 149.754C16.8191 198.325 9.97541 253.579 21.3802 306.532C32.7851 359.485 61.7676 407.022 103.615 441.415C145.463 475.808 197.715 495.033 251.874 495.964C306.033 496.896 358.915 479.479 401.92 446.545" fill="url(#paint0_linear_2047_2)"/>
<path d="M352 159.985V279.985C352 299.081 359.586 317.394 373.088 330.897C386.591 344.399 404.904 351.985 424 351.985C443.096 351.985 461.409 344.399 474.912 330.897C488.414 317.394 496 299.081 496 279.985V255.985C495.997 201.818 477.669 149.244 443.999 106.814C410.328 64.3831 363.293 34.5905 310.543 22.2802C257.794 9.96998 202.431 15.8661 153.457 39.0099C104.482 62.1537 64.7777 101.184 40.7984 149.754C16.8191 198.325 9.97541 253.579 21.3802 306.532C32.7851 359.485 61.7676 407.022 103.615 441.415C145.463 475.808 197.715 495.033 251.874 495.964C306.033 496.896 358.915 479.479 401.92 446.545" stroke="black" stroke-width="20" stroke-linecap="round" stroke-linejoin="round"/>
<path d="M256 351.985C309.019 351.985 352 309.004 352 255.985C352 202.966 309.019 159.985 256 159.985C202.981 159.985 160 202.966 160 255.985C160 309.004 202.981 351.985 256 351.985Z" fill="url(#paint1_linear_2047_2)" stroke="black" stroke-width="20" stroke-linecap="round" stroke-linejoin="round"/>
<defs>
<linearGradient id="paint0_linear_2047_2" x1="256" y1="16" x2="256" y2="496" gradientUnits="userSpaceOnUse">
<stop stop-color="#C6C0E9"/>
<stop offset="1" stop-color="white"/>
</linearGradient>
<linearGradient id="paint1_linear_2047_2" x1="256" y1="159.985" x2="256" y2="351.985" gradientUnits="userSpaceOnUse">
<stop stop-color="#C6C0E9"/>
<stop offset="1" stop-color="white"/>
</linearGradient>
</defs>
</svg>
