<svg width="512" height="512" viewBox="0 0 512 512" fill="none" xmlns="http://www.w3.org/2000/svg">
<path d="M495.999 256.164H313.039" stroke="black" stroke-width="20" stroke-linecap="round" stroke-linejoin="round"/>
<path d="M419.705 332.395L457.822 294.278L495.938 256.162L419.705 179.928" fill="url(#paint0_linear_1885_61)"/>
<path d="M419.705 332.395L457.822 294.278L495.938 256.162L419.705 179.928" stroke="black" stroke-width="20" stroke-linecap="round" stroke-linejoin="round"/>
<path d="M344.74 420.222C344.74 426.449 342.266 432.422 337.863 436.826C333.459 441.229 327.487 443.703 321.259 443.703H39.4814C33.2538 443.703 27.2812 441.229 22.8776 436.826C18.4739 432.422 16 426.449 16 420.222C16 382.856 30.8436 347.02 57.2654 320.598C83.6871 294.177 119.523 279.333 156.889 279.333H203.852C241.218 279.333 277.053 294.177 303.475 320.598C329.897 347.02 344.74 382.856 344.74 420.222ZM180.37 68C161.793 68 143.634 73.5086 128.188 83.8293C112.742 94.15 100.703 108.819 93.594 125.982C86.485 143.145 84.6249 162.03 88.2491 180.25C91.8732 198.47 100.819 215.206 113.955 228.341C127.09 241.477 143.826 250.423 162.046 254.047C180.266 257.671 199.151 255.811 216.314 248.702C233.477 241.593 248.146 229.554 258.467 214.108C268.787 198.662 274.296 180.503 274.296 161.926C274.296 137.015 264.4 113.125 246.786 95.5102C229.171 77.8957 205.281 68 180.37 68Z" fill="url(#paint1_linear_1885_61)" stroke="black" stroke-width="20"/>
<defs>
<linearGradient id="paint0_linear_1885_61" x1="457.822" y1="179.928" x2="457.822" y2="332.395" gradientUnits="userSpaceOnUse">
<stop stop-color="#C6C0E9"/>
<stop offset="1" stop-color="white"/>
</linearGradient>
<linearGradient id="paint1_linear_1885_61" x1="86.4449" y1="68" x2="86.4449" y2="443.703" gradientUnits="userSpaceOnUse">
<stop stop-color="#C6C0E9"/>
<stop offset="1" stop-color="white"/>
</linearGradient>
</defs>
</svg>
