<svg width="512" height="512" viewBox="0 0 512 512" fill="none" xmlns="http://www.w3.org/2000/svg">
<path d="M353.299 151.91H153.749C3.2785 274.337 31.3228 452.854 111.142 496H403.457C498.916 407.551 484.354 266.787 353.299 151.91Z" fill="url(#paint0_linear_2089_30)" stroke="black" stroke-width="20"/>
<path d="M349.752 147.719H160.449C160.449 133.251 160.449 71.9295 141.934 39.4024C141.694 38.981 141.509 38.5264 141.408 38.0522C138.355 23.6976 150.334 19.1991 159.281 18.8438C160.05 18.8132 160.808 18.9982 161.498 19.3399L218.157 47.4047L246.202 18.8204C251.434 14.6948 258.702 15.5291 263.563 18.5398C263.856 18.7216 264.121 18.9446 264.363 19.191L292.044 47.4047L348.703 19.3399C349.393 18.9982 350.165 18.8134 350.935 18.8425C366.761 19.4411 368.85 32.0757 369.126 37.0871C369.186 38.1833 368.804 39.2286 368.191 40.1393C354.894 59.8933 349.752 117.176 349.752 147.719Z" fill="url(#paint1_linear_2089_30)" stroke="black" stroke-width="20"/>
<path d="M144.8 360V303.2H122.4V290H183.4V303.2H161V360H144.8ZM211.237 360L242.437 290H258.437L289.737 360H272.737L247.137 298.2H253.537L227.837 360H211.237ZM226.837 345L231.137 332.7H267.137L271.537 345H226.837ZM317.32 360L347.42 318.5V330.3L318.62 290H337.02L356.92 318.1L349.22 318.2L368.82 290H386.42L357.82 329.6V318L388.12 360H369.42L348.82 330.3H356.22L335.92 360H317.32Z" fill="black"/>
<defs>
<linearGradient id="paint0_linear_2089_30" x1="255.528" y1="151.91" x2="255.528" y2="496" gradientUnits="userSpaceOnUse">
<stop stop-color="#C6C0E9"/>
<stop offset="1" stop-color="white"/>
</linearGradient>
<linearGradient id="paint1_linear_2089_30" x1="255.045" y1="16" x2="255.045" y2="147.719" gradientUnits="userSpaceOnUse">
<stop stop-color="#C6C0E9"/>
<stop offset="1" stop-color="white"/>
</linearGradient>
</defs>
</svg>
