<svg width="512" height="512" viewBox="0 0 512 512" fill="none" xmlns="http://www.w3.org/2000/svg">
<path d="M304 496L112 496C99.2696 496 87.0606 490.943 78.0589 481.941C69.0571 472.939 64 460.73 64 448L64 64C64 51.2696 69.0571 39.0606 78.0589 30.0589C87.0606 21.0571 99.2696 16 112 16L400 16C412.73 16 424.939 21.0571 433.941 30.0589C442.943 39.0606 448 51.2696 448 64L448 352L304 496Z" fill="url(#paint0_linear_2080_2)" stroke="black" stroke-width="20" stroke-linecap="round" stroke-linejoin="round"/>
<path d="M304 496V352H448" fill="url(#paint1_linear_2080_2)"/>
<path d="M304 496V352H448" stroke="black" stroke-width="20" stroke-linecap="round" stroke-linejoin="round"/>
<circle cx="160" cy="412" r="42.5" stroke="black" stroke-width="5"/>
<circle cx="160.005" cy="412" r="34.0909" fill="black"/>
<path d="M352 229H160" stroke="black" stroke-width="20" stroke-linecap="round" stroke-linejoin="round"/>
<path d="M208 133H184H160" fill="url(#paint2_linear_2080_2)"/>
<path d="M208 133H184H160" stroke="black" stroke-width="20" stroke-linecap="round" stroke-linejoin="round"/>
<defs>
<linearGradient id="paint0_linear_2080_2" x1="256" y1="496" x2="256" y2="16" gradientUnits="userSpaceOnUse">
<stop stop-color="white"/>
<stop offset="1" stop-color="#C6C0E9"/>
</linearGradient>
<linearGradient id="paint1_linear_2080_2" x1="376" y1="496" x2="376" y2="352" gradientUnits="userSpaceOnUse">
<stop stop-color="#C6C0E9"/>
<stop offset="1" stop-color="white"/>
</linearGradient>
<linearGradient id="paint2_linear_2080_2" x1="184" y1="133" x2="184" y2="134" gradientUnits="userSpaceOnUse">
<stop stop-color="#C6C0E9"/>
<stop offset="1" stop-color="white"/>
</linearGradient>
</defs>
</svg>
