<svg width="512" height="512" viewBox="0 0 512 512" fill="none" xmlns="http://www.w3.org/2000/svg">
<path d="M16 190.815V63.3704C16 38.5176 36.1472 18.3704 61 18.3704H192.593" stroke="black" stroke-width="20" stroke-linecap="round"/>
<path d="M190.816 496H63.3711C38.5183 496 18.3711 475.853 18.3711 451L18.3711 319.407" stroke="black" stroke-width="20" stroke-linecap="round"/>
<path d="M321.778 16L449.223 16C474.075 16 494.223 36.1472 494.223 61V192.593" stroke="black" stroke-width="20" stroke-linecap="round"/>
<path d="M496 321.778V449.222C496 474.075 475.853 494.222 451 494.222H319.407" stroke="black" stroke-width="20" stroke-linecap="round"/>
<path d="M358.125 105.284H155.853C127.925 105.284 105.285 127.924 105.285 155.852V358.123C105.285 386.051 127.925 408.691 155.853 408.691H358.125C386.053 408.691 408.693 386.051 408.693 358.123V155.852C408.693 127.924 386.053 105.284 358.125 105.284Z" fill="url(#paint0_linear_1637_70)" stroke="black" stroke-width="20"/>
<defs>
<linearGradient id="paint0_linear_1637_70" x1="256.989" y1="105.284" x2="256.989" y2="408.691" gradientUnits="userSpaceOnUse">
<stop stop-color="#C6C0E9"/>
<stop offset="1" stop-color="white"/>
</linearGradient>
</defs>
</svg>
