<svg width="512" height="512" viewBox="0 0 512 512" fill="none" xmlns="http://www.w3.org/2000/svg">
<path d="M304 496L112 496C99.2696 496 87.0606 490.943 78.0589 481.941C69.0571 472.939 64 460.73 64 448L64 64C64 51.2696 69.0571 39.0606 78.0589 30.0589C87.0606 21.0571 99.2696 16 112 16L400 16C412.73 16 424.939 21.0571 433.941 30.0589C442.943 39.0606 448 51.2696 448 64L448 352L304 496Z" fill="url(#paint0_linear_2090_41)" stroke="black" stroke-width="20" stroke-linecap="round" stroke-linejoin="round"/>
<path d="M304 496V352H448" fill="url(#paint1_linear_2090_41)"/>
<path d="M304 496V352H448" stroke="black" stroke-width="20" stroke-linecap="round" stroke-linejoin="round"/>
<path d="M307.338 152.081C306.641 151.383 305.75 151.035 304.666 151.035H284.789C283.471 144.605 280.991 139.024 277.349 134.297H304.432C305.519 134.297 306.408 133.948 307.107 133.253C307.801 132.556 308.15 131.663 308.15 130.579V118.72C308.15 117.634 307.801 116.744 307.107 116.046C306.407 115.35 305.518 115 304.432 115H207.719C206.634 115 205.743 115.35 205.046 116.046C204.35 116.743 204 117.634 204 118.719V134.179C204 135.186 204.368 136.058 205.104 136.794C205.84 137.53 206.712 137.898 207.719 137.898H224.574C240.925 137.898 251.309 142.276 255.726 151.033H207.719C206.634 151.033 205.742 151.381 205.046 152.079C204.35 152.777 204 153.667 204 154.752V166.61C204 167.695 204.348 168.586 205.046 169.282C205.743 169.98 206.635 170.328 207.719 170.328H257.356C255.651 176.684 251.679 181.526 245.44 184.859C239.2 188.192 230.968 189.858 220.738 189.858H207.719C206.712 189.858 205.84 190.227 205.104 190.962C204.368 191.699 204 192.571 204 193.577V208.342C204 209.35 204.348 210.203 205.046 210.899C219.924 226.708 239.221 248.831 262.934 277.273C263.632 278.204 264.6 278.668 265.84 278.668H288.507C290.136 278.668 291.26 277.973 291.878 276.575C292.653 275.18 292.501 273.863 291.413 272.623C268.787 244.879 251.001 224.111 238.059 210.317C251.233 208.767 261.928 204.504 270.143 197.531C278.356 190.557 283.354 181.489 285.138 170.33H304.666C305.75 170.33 306.642 169.982 307.338 169.284C308.036 168.588 308.386 167.697 308.386 166.612V154.756C308.386 153.669 308.036 152.779 307.338 152.081Z" fill="black"/>
<defs>
<linearGradient id="paint0_linear_2090_41" x1="256" y1="496" x2="256" y2="16" gradientUnits="userSpaceOnUse">
<stop stop-color="white"/>
<stop offset="1" stop-color="#C6C0E9"/>
</linearGradient>
<linearGradient id="paint1_linear_2090_41" x1="376" y1="496" x2="376" y2="352" gradientUnits="userSpaceOnUse">
<stop stop-color="#C6C0E9"/>
<stop offset="1" stop-color="white"/>
</linearGradient>
</defs>
</svg>
