<svg width="512" height="512" viewBox="0 0 512 512" fill="none" xmlns="http://www.w3.org/2000/svg">
<path d="M158.441 465.353L256.369 347.84L354.297 465.353H158.441Z" fill="url(#paint0_linear_1631_195)" stroke="black" stroke-width="20" stroke-linecap="round" stroke-linejoin="round"/>
<path d="M448.802 46.0243H65.1397C62.268 46.0243 59.3867 46.2156 56.6063 46.9341C39.8864 51.2549 27.6337 63.1067 20.2895 75.6642C17.0488 81.2055 16 87.6736 16 94.0928V335.308C16 338.674 16.2668 342.054 17.2361 345.277C23.0955 364.761 39.1962 379.217 60.8241 379.217H448.159C453.533 379.217 458.935 378.479 463.824 376.248C483.284 367.366 495.12 351.895 495.12 340.369C495.784 268.319 496.714 116.249 495.12 84.3738C493.526 52.4989 463.577 45.5262 448.802 46.0243Z" fill="url(#paint1_linear_1631_195)" stroke="black" stroke-width="20"/>
<defs>
<linearGradient id="paint0_linear_1631_195" x1="256.369" y1="347.84" x2="256.369" y2="465.353" gradientUnits="userSpaceOnUse">
<stop stop-color="#C6C0E9"/>
<stop offset="1" stop-color="white"/>
</linearGradient>
<linearGradient id="paint1_linear_1631_195" x1="256" y1="46" x2="256" y2="379.217" gradientUnits="userSpaceOnUse">
<stop stop-color="#C6C0E9"/>
<stop offset="1" stop-color="white"/>
</linearGradient>
</defs>
</svg>
