<svg width="512" height="512" viewBox="0 0 512 512" fill="none" xmlns="http://www.w3.org/2000/svg">
<rect width="512" height="512" fill="#E9E6FF"/>
<path d="M203.992 182.194H257.275V235.477H203.992V182.194Z" fill="#9B8BFF" fill-opacity="0.8"/>
<path d="M257.246 242.138H203.963C202.197 242.138 200.503 241.436 199.253 240.187C198.004 238.938 197.303 237.244 197.303 235.477V182.195C197.303 180.428 198.004 178.734 199.253 177.485C200.503 176.236 202.197 175.534 203.963 175.534H257.246C259.012 175.534 260.706 176.236 261.955 177.485C263.204 178.734 263.906 180.428 263.906 182.195V235.477C263.906 237.244 263.204 238.938 261.955 240.187C260.706 241.436 259.012 242.138 257.246 242.138ZM210.623 228.817H250.585V188.855H210.623V228.817Z" fill="#9B8BFF" fill-opacity="0.8"/>
<path d="M235.022 199.956H226.141C223.689 199.956 221.701 201.944 221.701 204.396V213.277C221.701 215.729 223.689 217.717 226.141 217.717H235.022C237.474 217.717 239.462 215.729 239.462 213.277V204.396C239.462 201.944 237.474 199.956 235.022 199.956Z" fill="#9B8BFF" fill-opacity="0.8"/>
<path d="M346.049 182.194H399.331V235.477H346.049V182.194Z" fill="#9B8BFF" fill-opacity="0.8"/>
<path d="M399.331 242.138H346.049C344.283 242.138 342.588 241.436 341.339 240.187C340.09 238.938 339.389 237.244 339.389 235.477V182.195C339.389 180.428 340.09 178.734 341.339 177.485C342.588 176.236 344.283 175.534 346.049 175.534H399.331C401.098 175.534 402.792 176.236 404.041 177.485C405.29 178.734 405.992 180.428 405.992 182.195V235.477C405.992 237.244 405.29 238.938 404.041 240.187C402.792 241.436 401.098 242.138 399.331 242.138ZM352.709 228.817H392.671V188.855H352.709V228.817Z" fill="#9B8BFF" fill-opacity="0.8"/>
<path d="M377.135 199.956H368.255C365.802 199.956 363.814 201.944 363.814 204.396V213.277C363.814 215.729 365.802 217.717 368.255 217.717H377.135C379.587 217.717 381.575 215.729 381.575 213.277V204.396C381.575 201.944 379.587 199.956 377.135 199.956Z" fill="#9B8BFF" fill-opacity="0.8"/>
<path d="M203.992 324.28H257.275V377.563H203.992V324.28Z" fill="#9B8BFF" fill-opacity="0.8"/>
<path d="M257.246 384.223H203.963C202.197 384.223 200.503 383.521 199.253 382.272C198.004 381.023 197.303 379.329 197.303 377.563V324.28C197.303 322.514 198.004 320.82 199.253 319.571C200.503 318.322 202.197 317.62 203.963 317.62H257.246C259.012 317.62 260.706 318.322 261.955 319.571C263.204 320.82 263.906 322.514 263.906 324.28V377.563C263.906 379.329 263.204 381.023 261.955 382.272C260.706 383.521 259.012 384.223 257.246 384.223ZM210.623 370.902H250.585V330.941H210.623V370.902Z" fill="#9B8BFF" fill-opacity="0.8"/>
<path d="M235.02 342.041H226.139C223.687 342.041 221.699 344.029 221.699 346.481V355.361C221.699 357.814 223.687 359.802 226.139 359.802H235.02C237.472 359.802 239.46 357.814 239.46 355.361V346.481C239.46 344.029 237.472 342.041 235.02 342.041Z" fill="#9B8BFF" fill-opacity="0.8"/>
<path d="M292.789 242.138H283.908C282.142 242.138 280.448 241.436 279.199 240.187C277.95 238.938 277.248 237.244 277.248 235.477V182.195C277.248 180.428 277.95 178.734 279.199 177.485C280.448 176.236 282.142 175.534 283.908 175.534C285.675 175.534 287.369 176.236 288.618 177.485C289.867 178.734 290.569 180.428 290.569 182.195V228.817H292.789C294.555 228.817 296.249 229.519 297.498 230.768C298.747 232.017 299.449 233.711 299.449 235.477C299.449 237.244 298.747 238.938 297.498 240.187C296.249 241.436 294.555 242.138 292.789 242.138Z" fill="#9B8BFF" fill-opacity="0.8"/>
<path d="M319.4 188.855H310.52C308.753 188.855 307.059 188.153 305.81 186.904C304.561 185.655 303.859 183.961 303.859 182.195C303.859 180.428 304.561 178.734 305.81 177.485C307.059 176.236 308.753 175.534 310.52 175.534H319.4C321.167 175.534 322.861 176.236 324.11 177.485C325.359 178.734 326.06 180.428 326.06 182.195C326.06 183.961 325.359 185.655 324.11 186.904C322.861 188.153 321.167 188.855 319.4 188.855Z" fill="#9B8BFF" fill-opacity="0.8"/>
<path d="M319.43 268.778H283.908C282.142 268.778 280.448 268.076 279.199 266.827C277.95 265.578 277.248 263.884 277.248 262.117C277.248 260.351 277.95 258.657 279.199 257.408C280.448 256.159 282.142 255.457 283.908 255.457H312.77V215.495H310.55C308.783 215.495 307.089 214.793 305.84 213.544C304.591 212.295 303.889 210.601 303.889 208.835C303.889 207.068 304.591 205.374 305.84 204.125C307.089 202.876 308.783 202.175 310.55 202.175H319.43C321.196 202.175 322.891 202.876 324.14 204.125C325.389 205.374 326.09 207.068 326.09 208.835V262.117C326.09 263.884 325.389 265.578 324.14 266.827C322.891 268.076 321.196 268.778 319.43 268.778Z" fill="#9B8BFF" fill-opacity="0.8"/>
<path d="M319.4 384.223C317.634 384.223 315.94 383.521 314.691 382.272C313.441 381.023 312.74 379.329 312.74 377.563V330.941H310.52C308.753 330.941 307.059 330.239 305.81 328.99C304.561 327.741 303.859 326.047 303.859 324.28C303.859 322.514 304.561 320.82 305.81 319.571C307.059 318.322 308.753 317.62 310.52 317.62H319.4C321.167 317.62 322.861 318.322 324.11 319.571C325.359 320.82 326.06 322.514 326.06 324.28V377.563C326.06 379.329 325.359 381.023 324.11 382.272C322.861 383.521 321.167 384.223 319.4 384.223Z" fill="#9B8BFF" fill-opacity="0.8"/>
<path d="M292.789 384.221H283.908C282.142 384.221 280.448 383.52 279.199 382.271C277.95 381.021 277.248 379.327 277.248 377.561C277.248 375.795 277.95 374.1 279.199 372.851C280.448 371.602 282.142 370.901 283.908 370.901H292.789C294.555 370.901 296.249 371.602 297.498 372.851C298.747 374.1 299.449 375.795 299.449 377.561C299.449 379.327 298.747 381.021 297.498 382.271C296.249 383.52 294.555 384.221 292.789 384.221Z" fill="#9B8BFF" fill-opacity="0.8"/>
<path d="M292.789 357.582H283.908C282.142 357.582 280.448 356.88 279.199 355.631C277.95 354.382 277.248 352.688 277.248 350.921V297.639C277.248 295.872 277.95 294.178 279.199 292.929C280.448 291.68 282.142 290.979 283.908 290.979H319.43C321.196 290.979 322.891 291.68 324.14 292.929C325.389 294.178 326.09 295.872 326.09 297.639C326.09 299.405 325.389 301.099 324.14 302.348C322.891 303.597 321.196 304.299 319.43 304.299H290.569V344.261H292.789C294.555 344.261 296.249 344.963 297.498 346.212C298.747 347.461 299.449 349.155 299.449 350.921C299.449 352.688 298.747 354.382 297.498 355.631C296.249 356.88 294.555 357.582 292.789 357.582Z" fill="#9B8BFF" fill-opacity="0.8"/>
<path d="M257.246 304.299H203.963C202.197 304.299 200.503 303.597 199.253 302.348C198.004 301.099 197.303 299.405 197.303 297.639C197.303 295.872 198.004 294.178 199.253 292.929C200.503 291.68 202.197 290.979 203.963 290.979H250.585V288.758C250.585 286.992 251.287 285.298 252.536 284.049C253.785 282.8 255.479 282.098 257.246 282.098C259.012 282.098 260.706 282.8 261.955 284.049C263.204 285.298 263.906 286.992 263.906 288.758V297.639C263.906 299.405 263.204 301.099 261.955 302.348C260.706 303.597 259.012 304.299 257.246 304.299Z" fill="#9B8BFF" fill-opacity="0.8"/>
<path d="M203.963 277.657C202.197 277.657 200.503 276.956 199.253 275.707C198.004 274.458 197.303 272.763 197.303 270.997V262.117C197.303 260.35 198.004 258.656 199.253 257.407C200.503 256.158 202.197 255.456 203.963 255.456C205.729 255.456 207.424 256.158 208.673 257.407C209.922 258.656 210.623 260.35 210.623 262.117V270.997C210.623 272.763 209.922 274.458 208.673 275.707C207.424 276.956 205.729 277.657 203.963 277.657Z" fill="#9B8BFF" fill-opacity="0.8"/>
<path d="M283.906 304.299C282.139 304.299 280.445 303.597 279.196 302.348C277.947 301.099 277.245 299.405 277.245 297.638V268.777H237.284V270.997C237.284 272.763 236.582 274.458 235.333 275.707C234.084 276.956 232.39 277.657 230.623 277.657C228.857 277.657 227.163 276.956 225.914 275.707C224.665 274.458 223.963 272.763 223.963 270.997V262.117C223.963 260.35 224.665 258.656 225.914 257.407C227.163 256.158 228.857 255.456 230.623 255.456H283.906C285.672 255.456 287.366 256.158 288.615 257.407C289.864 258.656 290.566 260.35 290.566 262.117V297.638C290.566 299.405 289.864 301.099 288.615 302.348C287.366 303.597 285.672 304.299 283.906 304.299Z" fill="#9B8BFF" fill-opacity="0.8"/>
<path d="M346.049 277.657C344.283 277.657 342.588 276.956 341.339 275.707C340.09 274.458 339.389 272.763 339.389 270.997V262.117C339.389 260.35 340.09 258.656 341.339 257.407C342.588 256.158 344.283 255.456 346.049 255.456H399.331C401.098 255.456 402.792 256.158 404.041 257.407C405.29 258.656 405.992 260.35 405.992 262.117C405.992 263.883 405.29 265.577 404.041 266.826C402.792 268.075 401.098 268.777 399.331 268.777H352.709V270.997C352.709 272.763 352.008 274.458 350.759 275.707C349.509 276.956 347.815 277.657 346.049 277.657Z" fill="#9B8BFF" fill-opacity="0.8"/>
<path d="M399.338 304.299C397.572 304.299 395.878 303.597 394.628 302.348C393.379 301.099 392.678 299.405 392.678 297.639V288.758C392.678 286.992 393.379 285.298 394.628 284.049C395.878 282.8 397.572 282.098 399.338 282.098C401.104 282.098 402.799 282.8 404.048 284.049C405.297 285.298 405.998 286.992 405.998 288.758V297.639C405.998 299.405 405.297 301.099 404.048 302.348C402.799 303.597 401.104 304.299 399.338 304.299Z" fill="#9B8BFF" fill-opacity="0.8"/>
<path d="M372.693 304.299H319.41C317.644 304.299 315.95 303.597 314.701 302.348C313.452 301.099 312.75 299.405 312.75 297.638V262.117C312.75 260.35 313.452 258.656 314.701 257.407C315.95 256.158 317.644 255.456 319.41 255.456C321.177 255.456 322.871 256.158 324.12 257.407C325.369 258.656 326.071 260.35 326.071 262.117V290.978H366.033V288.758C366.033 286.991 366.734 285.297 367.983 284.048C369.232 282.799 370.926 282.098 372.693 282.098C374.459 282.098 376.153 282.799 377.402 284.048C378.651 285.297 379.353 286.991 379.353 288.758V297.638C379.353 299.405 378.651 301.099 377.402 302.348C376.153 303.597 374.459 304.299 372.693 304.299Z" fill="#9B8BFF" fill-opacity="0.8"/>
<path d="M346.049 357.582C344.283 357.582 342.588 356.88 341.339 355.631C340.09 354.382 339.389 352.688 339.389 350.921V324.28C339.389 322.514 340.09 320.82 341.339 319.571C342.588 318.322 344.283 317.62 346.049 317.62H399.331C401.098 317.62 402.792 318.322 404.041 319.571C405.29 320.82 405.992 322.514 405.992 324.28C405.992 326.047 405.29 327.741 404.041 328.99C402.792 330.239 401.098 330.94 399.331 330.94H352.709V350.921C352.709 352.688 352.008 354.382 350.759 355.631C349.509 356.88 347.815 357.582 346.049 357.582Z" fill="#9B8BFF" fill-opacity="0.8"/>
<path d="M399.338 384.221C397.572 384.221 395.878 383.52 394.628 382.271C393.379 381.022 392.678 379.328 392.678 377.561V350.92C392.678 349.153 393.379 347.459 394.628 346.21C395.878 344.961 397.572 344.26 399.338 344.26C401.104 344.26 402.799 344.961 404.048 346.21C405.297 347.459 405.998 349.153 405.998 350.92V377.561C405.998 379.328 405.297 381.022 404.048 382.271C402.799 383.52 401.104 384.221 399.338 384.221Z" fill="#9B8BFF" fill-opacity="0.8"/>
<path d="M372.693 384.222H319.41C317.644 384.222 315.95 383.521 314.701 382.272C313.452 381.023 312.75 379.329 312.75 377.562V342.04C312.75 340.274 313.452 338.58 314.701 337.331C315.95 336.082 317.644 335.38 319.41 335.38C321.177 335.38 322.871 336.082 324.12 337.331C325.369 338.58 326.071 340.274 326.071 342.04V370.902H366.033V350.921C366.033 349.154 366.734 347.46 367.983 346.211C369.232 344.962 370.926 344.261 372.693 344.261C374.459 344.261 376.153 344.962 377.402 346.211C378.651 347.46 379.353 349.154 379.353 350.921V377.562C379.353 379.329 378.651 381.023 377.402 382.272C376.153 383.521 374.459 384.222 372.693 384.222Z" fill="#9B8BFF" fill-opacity="0.8"/>
<path d="M203.963 242.138C202.197 242.138 200.503 241.436 199.253 240.187C198.004 238.938 197.303 237.244 197.303 235.477V182.195C197.303 180.428 198.004 178.734 199.253 177.485C200.503 176.236 202.197 175.534 203.963 175.534H257.246C259.012 175.534 260.706 176.236 261.955 177.485C263.204 178.734 263.906 180.428 263.906 182.195C263.906 183.961 263.204 185.655 261.955 186.904C260.706 188.153 259.012 188.855 257.246 188.855H210.623V235.477C210.623 237.244 209.922 238.938 208.673 240.187C207.424 241.436 205.729 242.138 203.963 242.138Z" fill="#9B8BFF" fill-opacity="0.8"/>
<path d="M203.963 384.223C202.197 384.223 200.503 383.521 199.253 382.272C198.004 381.023 197.303 379.329 197.303 377.563V324.28C197.303 322.514 198.004 320.82 199.253 319.571C200.503 318.322 202.197 317.62 203.963 317.62H257.246C259.012 317.62 260.706 318.322 261.955 319.571C263.204 320.82 263.906 322.514 263.906 324.28C263.906 326.047 263.204 327.741 261.955 328.99C260.706 330.239 259.012 330.941 257.246 330.941H210.623V377.563C210.623 379.329 209.922 381.023 208.673 382.272C207.424 383.521 205.729 384.223 203.963 384.223Z" fill="#9B8BFF" fill-opacity="0.8"/>
<path d="M346.049 242.138C344.283 242.138 342.588 241.436 341.339 240.187C340.09 238.938 339.389 237.244 339.389 235.477V182.195C339.389 180.428 340.09 178.734 341.339 177.485C342.588 176.236 344.283 175.534 346.049 175.534H399.331C401.098 175.534 402.792 176.236 404.041 177.485C405.29 178.734 405.992 180.428 405.992 182.195C405.992 183.961 405.29 185.655 404.041 186.904C402.792 188.153 401.098 188.855 399.331 188.855H352.709V235.477C352.709 237.244 352.008 238.938 350.759 240.187C349.509 241.436 347.815 242.138 346.049 242.138Z" fill="#9B8BFF" fill-opacity="0.8"/>
<rect x="106" y="128" width="171.04" height="171.04" rx="20" fill="#5B50A1" fill-opacity="0.5"/>
</svg>
