<svg width="512" height="512" viewBox="0 0 512 512" fill="none" xmlns="http://www.w3.org/2000/svg">
<path d="M256 79.4761C185.422 79.4761 128 136.898 128 207.476V287.476C128 358.054 185.422 415.476 256 415.476C326.578 415.476 384 358.054 384 287.476V207.476C384 136.898 326.578 79.4761 256 79.4761Z" fill="url(#paint0_linear_1686_219)"/>
<path d="M445.109 335.476H456C478.062 335.476 496 317.538 496 295.476V215.476C496 193.413 478.062 175.476 456 175.476H445.109M445.109 335.476H416V303.476V207.476V175.476H445.109M445.109 335.476C410.073 404.143 384 446.976 256 470.976M66.8906 175.476H56C33.9375 175.476 16 193.413 16 215.476V295.476C16 317.538 33.9375 335.476 56 335.476H80C88.8438 335.476 96 328.32 96 319.476V207.476V175.476H66.8906ZM66.8906 175.476C162.667 6.14272 329 -13.524 445.109 175.476M256 79.4761C185.422 79.4761 128 136.898 128 207.476V287.476C128 358.054 185.422 415.476 256 415.476C326.578 415.476 384 358.054 384 287.476V207.476C384 136.898 326.578 79.4761 256 79.4761Z" stroke="black" stroke-width="20" stroke-linecap="round"/>
<defs>
<linearGradient id="paint0_linear_1686_219" x1="256" y1="41.476" x2="256" y2="470.976" gradientUnits="userSpaceOnUse">
<stop stop-color="#C6C0E9"/>
<stop offset="1" stop-color="white"/>
</linearGradient>
</defs>
</svg>
