<svg width="512" height="512" viewBox="0 0 512 512" fill="none" xmlns="http://www.w3.org/2000/svg">
<path d="M396.688 325.375C450.967 325.375 495.125 281.217 495.125 226.938C495.125 202.453 486.076 178.986 469.64 160.858C456.332 146.177 439.08 135.956 420.11 131.32C419.111 67.5588 366.933 16 302.938 16C266.225 16 232.479 32.7871 210.363 61.4871C198.146 56.2356 184.988 53.5 171.688 53.5C117.408 53.5 73.25 97.6577 73.25 151.938C73.25 157.694 73.77 163.44 74.7991 169.135C41.3274 178.708 17 209.634 17 245.688C17 289.626 52.7495 325.375 96.6875 325.375H167V415.551L129.947 427.903C122.216 418.008 110.186 411.625 96.6875 411.625C73.4258 411.625 54.5 430.551 54.5 453.812C54.5 477.074 73.4258 496 96.6875 496C119.693 496 138.443 477.488 138.857 454.578L185.508 439.029C191.25 437.113 195.125 431.741 195.125 425.688V325.375H242V414.042C225.63 419.85 213.875 435.48 213.875 453.812C213.875 477.074 232.801 496 256.062 496C279.324 496 298.25 477.074 298.25 453.812C298.25 435.48 286.495 419.85 270.125 414.042V325.375H317V425.688C317 431.741 320.875 437.113 326.617 439.029L373.268 454.578C373.682 477.488 392.432 496 415.438 496C438.699 496 457.625 477.074 457.625 453.812C457.625 430.551 438.699 411.625 415.438 411.625C401.939 411.625 389.909 418.008 382.178 427.903L345.125 415.551V325.375H396.688Z" fill="url(#paint0_linear_1686_157)" stroke="black" stroke-width="20"/>
<defs>
<linearGradient id="paint0_linear_1686_157" x1="256.062" y1="16" x2="256.063" y2="496" gradientUnits="userSpaceOnUse">
<stop stop-color="#C6C0E9"/>
<stop offset="1" stop-color="white"/>
</linearGradient>
</defs>
</svg>
