<svg width="512" height="512" viewBox="0 0 512 512" fill="none" xmlns="http://www.w3.org/2000/svg">
<rect width="512" height="512" fill="#FFE6F1"/>
<path d="M301.652 168.527H290.143V145.509C290.143 142.457 288.931 139.529 286.772 137.371C284.614 135.213 281.687 134 278.634 134C275.582 134 272.655 135.213 270.496 137.371C268.338 139.529 267.125 142.457 267.125 145.509V168.527H175.054V145.509C175.054 142.457 173.841 139.529 171.683 137.371C169.524 135.213 166.597 134 163.545 134C160.492 134 157.565 135.213 155.407 137.371C153.248 139.529 152.036 142.457 152.036 145.509V168.527H140.527C131.37 168.527 122.588 172.164 116.113 178.64C109.638 185.115 106 193.897 106 203.054V214.563H336.179V203.054C336.179 193.897 332.541 185.115 326.066 178.64C319.591 172.164 310.809 168.527 301.652 168.527Z" fill="#FF77B7"/>
<path d="M106 329.652C106 338.809 109.638 347.591 116.113 354.066C122.588 360.541 131.37 364.179 140.527 364.179H301.652C310.809 364.179 319.591 360.541 326.066 354.066C332.541 347.591 336.179 338.809 336.179 329.652V237.581H106V329.652Z" fill="#FF77B7"/>
<path fill-rule="evenodd" clip-rule="evenodd" d="M329.273 223.882C286.92 223.882 252.547 258.256 252.547 300.609C252.547 342.962 286.92 377.335 329.273 377.335C371.626 377.335 406 342.962 406 300.609C406 258.256 371.626 223.882 329.273 223.882ZM292.298 304.701L314.22 326.623C318.502 330.905 325.43 330.905 329.712 326.623L366.248 290.086C370.53 285.819 370.53 278.862 366.248 274.595C361.981 270.313 355.024 270.313 350.757 274.595L321.966 303.371L307.79 289.209C303.522 284.927 296.566 284.927 292.298 289.209C288.016 293.477 288.016 300.433 292.298 304.701Z" fill="#B1336E" fill-opacity="0.5"/>
</svg>
