<svg width="512" height="512" viewBox="0 0 512 512" fill="none" xmlns="http://www.w3.org/2000/svg">
<path d="M428.033 59.3923H325.182C315.106 30.8838 288.072 10.24 256 10.24C223.929 10.24 196.895 30.8838 186.819 59.3923H83.9688C56.8127 59.3923 34.8164 81.3875 34.8164 108.545V452.608C34.8164 479.764 56.8115 501.76 83.9688 501.76H428.033C455.189 501.76 477.185 479.765 477.185 452.608V108.544C477.184 81.3875 455.189 59.3923 428.033 59.3923ZM256 59.3923C269.517 59.3923 280.576 70.3283 280.576 83.9679C280.576 97.6076 269.517 108.544 256 108.544C242.484 108.544 231.425 97.6076 231.425 83.9679C231.425 70.3283 242.484 59.3923 256 59.3923ZM231.425 378.88L150.576 302.924L185.351 268.149L231.425 311L334.105 206.649L368.881 241.424L231.425 378.88Z" fill="url(#paint0_linear_1633_235)" stroke="black" stroke-width="20"/>
<defs>
<linearGradient id="paint0_linear_1633_235" x1="256.001" y1="10.24" x2="256.001" y2="501.76" gradientUnits="userSpaceOnUse">
<stop stop-color="#C6C0E9"/>
<stop offset="1" stop-color="white"/>
</linearGradient>
</defs>
</svg>
