<svg width="512" height="512" viewBox="0 0 512 512" fill="none" xmlns="http://www.w3.org/2000/svg">
<path d="M274.779 95.2838C280.636 105.284 282.824 115.89 281.849 126.901C281.265 133.496 275.388 136.679 270.085 138.837C253.649 145.525 236.176 146.178 218.874 144.714C209.268 143.901 199.623 140.968 190.514 137.592C181.415 134.221 178.468 128.402 180.158 118.958C181.475 111.604 183.575 104.244 186.428 97.3423C191.402 85.3085 201.87 79.0463 213.785 76.3208C226.949 73.3098 240.486 73.2249 253.51 78.0336C262.378 81.3075 270.047 86.2193 274.779 95.2838Z" fill="url(#paint0_linear_1622_86)"/>
<path d="M184.235 314.728C179.511 310.449 179.274 305.057 180.114 299.887C181.817 289.394 184.039 279.113 191.589 270.671C197.755 263.776 205.073 259.295 213.944 257.598C229.042 254.711 244.091 254.24 258.438 261.133C271.825 267.565 278.271 279.032 280.957 293.035C281.569 296.221 281.518 299.53 282.028 302.743C283.44 311.644 277.97 316.799 271.043 319.126C261.359 322.378 251.149 324.919 241 325.738C225.678 326.973 210.167 326.614 195.468 320.919C191.624 319.429 188.145 316.997 184.235 314.728Z" fill="url(#paint1_linear_1622_86)"/>
<path d="M184.765 495.271C179.982 491.154 179.33 485.961 180.065 480.634C181.525 470.05 184.033 459.925 191.082 451.229C197.324 443.528 205.462 439.173 214.614 437.356C227.027 434.892 239.719 434.586 252.035 438.544C268.962 443.983 277.948 456.223 280.971 473.295C281.509 476.332 281.527 479.459 282.027 482.505C283.52 491.606 277.717 496.206 270.896 499.464C261.144 504.123 250.52 505.702 239.778 505.961C224.876 506.322 209.932 506.516 195.719 500.951C192.017 499.501 188.584 497.364 184.765 495.271Z" fill="url(#paint2_linear_1622_86)"/>
<path d="M101.203 487.344C87.9469 490.211 75.3862 489.844 63.5304 483.138C49.2672 475.071 40.3925 463.352 37.9647 446.888C34.6509 424.416 43.4226 407.553 62.0356 395.653C69.5862 390.825 78.3579 388.706 87.4847 389.022C91.6431 389.166 95.6113 393.011 95.9993 397.019C96.4566 401.743 93.9657 404.845 89.0248 406.021C83.4411 407.35 77.5098 408.023 72.4134 410.429C61.6205 415.526 55.9369 424.713 55.036 436.601C53.9622 450.772 60.1779 461.407 72.3998 467.954C92.7145 478.837 115.985 465.047 119.008 445.37C119.352 443.131 119.801 440.899 119.973 438.646C120.323 434.054 124.356 430.068 128.898 430.002C132.547 429.949 136.68 434.281 137.005 438.43C138.698 460.096 122.265 482.186 101.203 487.344Z" fill="url(#paint3_linear_1622_86)"/>
<path d="M51.2402 292.738C29.7758 269.347 32.9273 234.396 59.4688 216.196C67.6821 210.564 76.9381 208.004 86.871 208.025C91.7407 208.035 95.739 211.836 95.9994 216.407C96.2825 221.375 93.6807 224.303 88.1276 224.984C78.2329 226.197 69.1997 229.022 62.4154 237.014C52.561 248.623 52.2434 267.265 62.3989 279.007C68.9922 286.63 77.3878 290.575 87.0843 290.862C101.666 291.293 115.559 279.999 118.945 265.841C119.545 263.333 119.821 260.718 119.966 258.137C120.246 253.16 124.155 249.062 128.909 249.002C132.933 248.952 136.757 253.628 137.038 258.32C138.395 281.005 120.173 303.035 97.9009 307.044C79.9456 310.277 64.5155 305.756 51.2402 292.738Z" fill="url(#paint4_linear_1622_86)"/>
<path d="M37.2022 83.4803C36.3259 66.6037 41.0028 52.2652 53.5218 40.9824C63.4812 32.0064 75.0455 27.3792 88.5408 28.0162C93.0491 28.229 96.0012 31.4844 96.0004 36.0023C95.9996 40.5336 93.0761 43.7167 88.5354 43.9899C78.246 44.6088 69.3482 47.9562 62.3764 56.0259C52.2395 67.7592 52.5531 86.41 62.4433 98.0088C68.8495 105.522 77.294 109.058 86.6822 109.876C100.668 111.095 115.818 98.7418 118.969 84.2461C119.518 81.7226 119.767 79.1206 119.979 76.5403C120.339 72.1345 124.381 68.0045 128.493 68.0002C132.836 67.9957 136.719 72.327 137.041 76.9021C138.633 99.5609 120.114 122.124 96.3331 126.221C69.4334 130.855 44.0518 113.755 38.0626 88.1869C37.7335 86.782 37.6015 85.3308 37.2022 83.4803Z" fill="url(#paint5_linear_1622_86)"/>
<path d="M476.052 124.763C473.714 129.29 470.158 130.105 465.632 130.089C422.691 129.94 379.749 130.001 336.807 129.999C330.984 129.999 327.994 127.1 328 121.483C328.006 115.881 330.992 113.009 336.963 113.007C380.737 112.994 424.51 112.991 468.284 113.011C474.356 113.013 478.022 118.4 476.052 124.763Z" fill="url(#paint6_linear_1622_86)"/>
<path d="M391.001 475C416.801 475 442.102 474.997 467.403 475.002C473.029 475.003 476.962 478.477 477 483.449C477.037 488.15 472.611 491.999 467.154 491.999C424.043 492.001 380.932 492.001 337.821 491.999C330.969 491.998 327.952 489.34 328.001 483.375C328.044 478.012 331.66 475.001 338.068 475.001C355.546 474.999 373.023 475 391.001 475Z" fill="url(#paint7_linear_1622_86)"/>
<path d="M376 294C406.809 294 437.119 293.998 467.428 294.002C472.478 294.002 476.893 297.855 477 302.332C477.111 307.014 472.643 310.999 467.264 310.999C424.132 311.001 380.999 311.001 337.867 310.999C331.127 310.998 327.97 308.246 328 302.42C328.028 297.051 331.655 294.002 338.03 294.001C350.52 293.998 363.01 294 376 294Z" fill="url(#paint8_linear_1622_86)"/>
<path d="M80.9961 271.478C75.8029 266.247 70.8185 261.355 65.9329 256.367C61.8877 252.237 61.8162 246.806 65.611 242.901C68.6877 239.734 74.4448 240.11 78.2918 243.854C81.0324 246.52 83.632 249.332 86.4713 252.261C100.967 237.7 115.313 223.352 129.571 208.917C132.74 205.708 136.253 205.123 140.224 206.776C144.047 208.367 146.42 211.235 145.894 215.502C145.655 217.437 144.71 219.656 143.356 221.024C127.095 237.469 110.692 253.773 94.3383 270.126C90.3847 274.079 85.863 273.227 80.9961 271.478Z" fill="url(#paint9_linear_1622_86)"/>
<path d="M141.291 404.211C125.824 419.659 110.625 434.861 95.4171 450.055C89.7384 455.729 85.2771 455.625 79.4403 449.966C75.2977 445.949 70.8919 442.204 66.7365 438.2C62.1001 433.733 61.5429 428.095 65.1669 424.354C68.8082 420.595 74.5467 421.066 79.0358 425.525C81.5177 427.99 83.9578 430.497 86.5677 433.138C100.984 418.664 115.347 404.284 129.654 389.849C132.985 386.488 136.765 386.06 140.788 387.992C144.511 389.78 146.822 392.998 145.836 397.117C145.241 399.598 143.037 401.694 141.291 404.211Z" fill="url(#paint10_linear_1622_86)"/>
<path d="M348.007 279C343.675 279 339.841 279.074 336.01 278.982C330.796 278.857 326.981 275.173 327 270.432C327.022 264.864 330.037 262.009 336.032 262.007C368.195 261.993 400.359 261.998 432.522 262.002C437.515 262.003 441.945 265.968 441.993 270.452C442.042 274.911 437.608 278.982 432.496 278.987C404.499 279.015 376.502 279 348.007 279Z" fill="url(#paint11_linear_1622_86)"/>
<path d="M357 98C349.846 98 343.192 98.0378 336.539 97.9882C331.078 97.9475 327.013 94.0787 327 89.0306C326.987 83.7975 330.236 81.0046 336.406 81.0032C368.177 80.9962 399.949 80.9997 431.72 81.0003C437.5 81.0004 442.117 84.8774 441.991 89.621C441.862 94.4559 437.38 97.9972 431.356 97.9982C406.737 98.0024 382.119 98 357 98Z" fill="url(#paint12_linear_1622_86)"/>
<path d="M328.206 445.45C331.017 444.058 333.638 442.151 336.272 442.134C368.065 441.927 399.86 441.996 431.655 442.003C437.525 442.005 442.189 445.947 441.988 450.69C441.787 455.409 437.411 458.994 431.775 458.996C400.147 459.004 368.518 459.001 336.89 458.999C329.209 458.998 325.227 453.071 328.206 445.45Z" fill="url(#paint13_linear_1622_86)"/>
<path d="M145.049 30.2216C147.132 34.1614 146.142 37.3199 143.537 39.9455C130.391 53.194 117.164 66.3618 103.961 79.5538C100.166 83.3459 96.6473 87.5041 92.4213 90.735C90.5517 92.1644 86.1449 93.0226 84.7615 91.8779C77.7422 86.0702 70.824 79.9613 64.9017 73.0714C61.1101 68.6602 62.6597 64.7009 67.5146 61.001C70.0441 59.0734 76.1122 59.6084 78.8072 62.3472C81.7981 65.3867 84.4791 68.7312 85.0723 69.5084C99.7943 56.0891 114.556 42.7133 129.217 29.2271C134.393 24.4656 140.188 24.5557 145.049 30.2216Z" fill="url(#paint14_linear_1622_86)"/>
<path d="M210.153 38.4293C205.344 22.1483 215.922 7.38023 231.881 8.15949C243.627 8.73304 251.257 15.261 252.848 26.039C254.905 39.9794 248.356 49.1479 236.046 52.0465C224.476 54.7708 214.517 47.8904 210.153 38.4293Z" fill="url(#paint15_linear_1622_86)"/>
<path d="M251.853 219.418C247.826 228.077 240.678 232.295 232.171 232.794C220.746 233.465 211.057 225.743 209.117 214.033C207.451 203.982 212.381 194.951 220.959 190.539C235.953 182.825 254.297 194.565 252.989 209.842C252.726 212.911 252.322 215.968 251.853 219.418Z" fill="url(#paint16_linear_1622_86)"/>
<path d="M248.782 405.605C235.208 419.906 214.384 414.195 209.464 397.034C206.335 386.119 214.061 372.892 225.246 369.96C235.832 367.185 245.082 372.696 248.84 377.547C254.6 384.981 254.791 397.523 248.782 405.605Z" fill="url(#paint17_linear_1622_86)"/>
<defs>
<linearGradient id="paint0_linear_1622_86" x1="230.889" y1="74.2128" x2="230.889" y2="145.36" gradientUnits="userSpaceOnUse">
<stop stop-color="#5B50A1"/>
<stop offset="1" stop-color="#0D70AE"/>
</linearGradient>
<linearGradient id="paint1_linear_1622_86" x1="230.994" y1="255.606" x2="230.994" y2="326.319" gradientUnits="userSpaceOnUse">
<stop stop-color="#5B50A1"/>
<stop offset="1" stop-color="#0D70AE"/>
</linearGradient>
<linearGradient id="paint2_linear_1622_86" x1="231.037" y1="435.53" x2="231.037" y2="506.116" gradientUnits="userSpaceOnUse">
<stop stop-color="#5B50A1"/>
<stop offset="1" stop-color="#0D70AE"/>
</linearGradient>
<linearGradient id="paint3_linear_1622_86" x1="87.2011" y1="388.991" x2="87.2011" y2="489.041" gradientUnits="userSpaceOnUse">
<stop stop-color="#5B50A1"/>
<stop offset="1" stop-color="#0D70AE"/>
</linearGradient>
<linearGradient id="paint4_linear_1622_86" x1="87.1043" y1="208.025" x2="87.1043" y2="308.049" gradientUnits="userSpaceOnUse">
<stop stop-color="#5B50A1"/>
<stop offset="1" stop-color="#0D70AE"/>
</linearGradient>
<linearGradient id="paint5_linear_1622_86" x1="87.1179" y1="27.9582" x2="87.1179" y2="126.979" gradientUnits="userSpaceOnUse">
<stop stop-color="#5B50A1"/>
<stop offset="1" stop-color="#0D70AE"/>
</linearGradient>
<linearGradient id="paint6_linear_1622_86" x1="402.294" y1="112.996" x2="402.294" y2="130.089" gradientUnits="userSpaceOnUse">
<stop stop-color="#5B50A1"/>
<stop offset="1" stop-color="#0D70AE"/>
</linearGradient>
<linearGradient id="paint7_linear_1622_86" x1="402.5" y1="474.999" x2="402.5" y2="492" gradientUnits="userSpaceOnUse">
<stop stop-color="#5B50A1"/>
<stop offset="1" stop-color="#0D70AE"/>
</linearGradient>
<linearGradient id="paint8_linear_1622_86" x1="402.501" y1="293.999" x2="402.501" y2="311" gradientUnits="userSpaceOnUse">
<stop stop-color="#5B50A1"/>
<stop offset="1" stop-color="#0D70AE"/>
</linearGradient>
<linearGradient id="paint9_linear_1622_86" x1="104.398" y1="205.879" x2="104.398" y2="272.944" gradientUnits="userSpaceOnUse">
<stop stop-color="#5B50A1"/>
<stop offset="1" stop-color="#0D70AE"/>
</linearGradient>
<linearGradient id="paint10_linear_1622_86" x1="104.433" y1="386.843" x2="104.433" y2="454.261" gradientUnits="userSpaceOnUse">
<stop stop-color="#5B50A1"/>
<stop offset="1" stop-color="#0D70AE"/>
</linearGradient>
<linearGradient id="paint11_linear_1622_86" x1="384.497" y1="261.998" x2="384.497" y2="279.028" gradientUnits="userSpaceOnUse">
<stop stop-color="#5B50A1"/>
<stop offset="1" stop-color="#0D70AE"/>
</linearGradient>
<linearGradient id="paint12_linear_1622_86" x1="384.497" y1="80.9989" x2="384.497" y2="98.0138" gradientUnits="userSpaceOnUse">
<stop stop-color="#5B50A1"/>
<stop offset="1" stop-color="#0D70AE"/>
</linearGradient>
<linearGradient id="paint13_linear_1622_86" x1="384.605" y1="441.987" x2="384.605" y2="459.002" gradientUnits="userSpaceOnUse">
<stop stop-color="#5B50A1"/>
<stop offset="1" stop-color="#0D70AE"/>
</linearGradient>
<linearGradient id="paint14_linear_1622_86" x1="104.477" y1="25.8035" x2="104.477" y2="92.4085" gradientUnits="userSpaceOnUse">
<stop stop-color="#5B50A1"/>
<stop offset="1" stop-color="#0D70AE"/>
</linearGradient>
<linearGradient id="paint15_linear_1622_86" x1="231.103" y1="8.12997" x2="231.103" y2="52.6478" gradientUnits="userSpaceOnUse">
<stop stop-color="#5B50A1"/>
<stop offset="1" stop-color="#0D70AE"/>
</linearGradient>
<linearGradient id="paint16_linear_1622_86" x1="230.925" y1="188.103" x2="230.925" y2="232.834" gradientUnits="userSpaceOnUse">
<stop stop-color="#5B50A1"/>
<stop offset="1" stop-color="#0D70AE"/>
</linearGradient>
<linearGradient id="paint17_linear_1622_86" x1="230.994" y1="369.214" x2="230.994" y2="413.713" gradientUnits="userSpaceOnUse">
<stop stop-color="#5B50A1"/>
<stop offset="1" stop-color="#0D70AE"/>
</linearGradient>
</defs>
</svg>
