<svg width="512" height="512" viewBox="0 0 512 512" fill="none" xmlns="http://www.w3.org/2000/svg">
<path d="M374.591 450.264C362.522 448.706 350.861 447.328 339.187 446.062C332.033 445.286 324.848 444.786 317.697 443.976C306.853 442.748 296.036 441.288 285.192 440.062C278.04 439.252 270.85 438.784 263.698 437.975C252.855 436.749 242.036 435.305 231.195 434.058C224.374 433.273 217.522 432.765 210.702 431.98C199.86 430.733 189.04 429.296 178.197 428.059C171.21 427.262 164.188 426.781 157.203 425.976C146.527 424.746 135.877 423.285 125.199 422.065C118.049 421.248 110.858 420.785 103.707 419.975C92.8628 418.748 82.0293 417.421 71.2075 416.011C65.7654 415.303 60.0851 415.1 54.9901 413.309C42.0457 408.759 36.3248 398.288 33.8973 385.449C33.6521 384.152 32.173 382.681 30.8925 382.051C19.4223 376.412 11.0434 366.244 11.0275 352.837C10.9608 296.674 10.9994 240.51 10.9994 184.347C10.9994 182.713 10.9994 181.078 10.9994 179.069C153.064 179.069 294.797 179.069 436.765 179.069C436.765 173.608 436.765 168.536 436.765 163.069C294.936 163.069 153.202 163.069 11.2345 163.069C11.2345 146.274 11.2345 129.869 11.2345 113.232C158.729 113.232 306.128 113.232 453.921 113.232C453.921 117.724 453.921 122.153 453.921 126.667C462.466 127.811 470.789 128.269 478.78 130.139C492.697 133.396 503.138 145.727 502.785 159.748C502.403 174.943 500.332 190.094 499.025 205.267C498.321 213.433 497.747 221.61 496.983 229.771C495.717 243.28 494.289 256.775 493.04 270.286C492.255 278.777 491.784 287.297 490.973 295.785C489.746 308.632 488.326 321.46 487.029 334.301C486.618 338.378 486.332 342.467 486.001 346.552C484.664 363.056 483.383 379.564 481.979 396.061C481.077 406.656 480.29 417.273 478.932 427.812C476.714 445.021 463.582 458.645 446.114 457.851C434.079 457.304 422.112 455.317 410.106 454.048C402.948 453.291 395.773 452.704 388.61 451.991C384.067 451.538 379.533 450.995 374.591 450.264ZM473.382 146.883C467.018 146.101 460.655 145.319 453.999 144.501C453.999 147.431 453.999 149.248 453.999 151.065C453.999 218.542 454.147 286.019 453.888 353.494C453.829 369.022 440.335 383.985 423.468 383.988C301.677 384.01 179.886 384 58.0954 384C56.1176 384 54.1399 384 52.1588 384C52.264 390.528 57.4413 397.197 63.3336 397.926C75.7978 399.469 88.305 400.664 100.795 402C107.288 402.695 113.787 403.329 120.272 404.093C130.945 405.352 141.6 406.768 152.279 407.974C159.591 408.8 166.944 409.265 174.255 410.1C184.767 411.3 195.248 412.765 205.759 413.974C212.905 414.797 220.091 415.277 227.239 416.085C238.081 417.31 248.899 418.753 259.741 419.977C266.89 420.784 274.076 421.262 281.224 422.078C291.9 423.298 302.548 424.749 313.223 425.977C320.206 426.78 327.224 427.269 334.207 428.065C345.048 429.302 355.864 430.75 366.705 431.976C373.854 432.784 381.042 433.249 388.19 434.066C398.864 435.286 409.521 436.662 420.18 438.006C427.761 438.963 435.368 439.776 442.903 441.023C450.01 442.2 460.054 435.806 460.903 428.503C462.543 414.385 463.701 400.21 464.985 386.052C465.74 377.727 466.234 369.377 467.055 361.059C468.273 348.715 469.778 336.399 470.965 324.052C471.812 315.237 472.199 306.377 473.042 297.561C474.24 285.049 475.704 272.562 476.988 260.057C478.04 249.812 479.086 239.566 479.974 229.306C481.386 212.981 482.656 196.643 484.005 180.312C484.355 176.071 484.376 171.752 485.242 167.613C487.3 157.765 483.584 150.494 473.382 146.883ZM265.999 324.259C266.003 331.799 268.143 334 275.478 334C317.81 334 360.142 334 402.474 334C409.396 334 411.992 331.482 411.995 324.682C412.006 301.183 411.952 277.684 412.04 254.185C412.057 249.473 409.944 246.677 405.444 246.059C400.92 245.437 396.325 245.053 391.76 245.044C353.595 244.967 315.429 244.992 277.264 245.007C268.828 245.01 265.999 247.89 265.999 256.317C265.999 278.65 265.999 300.982 265.999 324.259ZM46.02 257.188C49.1977 258.459 52.3634 260.796 55.5551 260.832C81.8539 261.129 108.158 261 134.46 261C141.618 261 148.777 261.082 155.934 260.975C161.98 260.884 165.785 257.952 165.999 253.505C166.265 247.964 162.876 245.016 156.046 245.009C132.906 244.985 109.767 245 86.6278 245C75.8073 245 64.98 244.767 54.1685 245.078C46.2791 245.305 42.984 249.652 46.02 257.188ZM218.121 213C215.229 212.667 212.339 212.073 209.444 212.046C197.634 211.936 185.823 212 174.012 212C167.025 212 160.038 212.019 153.052 211.993C148.961 211.978 145.431 213.714 143.71 217.121C142.753 219.017 143.019 223.042 144.382 224.257C146.659 226.286 150.243 227.797 153.303 227.843C173.426 228.147 193.558 227.892 213.684 228.077C218.68 228.122 222.174 225.989 223.526 221.686C224.679 218.019 222.387 214.92 218.121 213ZM79.4994 228C91.8004 228 104.102 227.913 116.402 228.046C120.815 228.094 123.652 226.052 124.871 222.134C126.578 216.645 122.265 212.198 115.128 212.036C107.984 211.873 100.833 212 93.6852 212C80.8855 212 68.0714 211.631 55.2913 212.131C46.9078 212.459 44.7362 215.467 44.9689 220.75C45.1815 225.577 48.4159 227.997 55.0609 227.999C62.8737 228.002 70.6866 228 79.4994 228ZM223.972 251.791C221.417 249.529 219.043 245.619 216.273 245.316C208.239 244.436 200.038 244.777 191.921 245.097C187.817 245.258 184.37 247.223 184.033 252.007C183.717 256.479 185.702 259.648 190.35 260.012C197.53 260.575 204.742 260.824 211.945 260.965C219.691 261.116 221.255 259.902 223.972 251.791Z" fill="url(#paint0_linear_1618_59)"/>
<path d="M273.001 56C323.155 56 372.809 56.0542 422.463 55.9644C436.012 55.9399 449.847 66.6587 452.868 80.4284C454.08 85.9504 453.932 91.7707 454.428 97.7505C306.33 97.7505 158.951 97.7505 11.4014 97.7505C9.69824 86.5854 11.006 75.7882 18.6329 67.1502C24.5976 60.3948 32.5069 56.0077 42.0598 56.0063C118.873 55.9951 195.687 56 273.001 56Z" fill="url(#paint1_linear_1618_59)"/>
<path d="M281 268.069C281 265.592 281 263.608 281 261.312C319.571 261.312 357.974 261.312 396.688 261.312C396.688 280.237 396.688 299.309 396.688 318.691C358.424 318.691 320.021 318.691 281 318.691C281 302.074 281 285.317 281 268.069Z" fill="url(#paint2_linear_1618_59)"/>
<defs>
<linearGradient id="paint0_linear_1618_59" x1="256.891" y1="113.232" x2="256.891" y2="457.884" gradientUnits="userSpaceOnUse">
<stop stop-color="#5B50A1"/>
<stop offset="1" stop-color="#0D70AE"/>
</linearGradient>
<linearGradient id="paint1_linear_1618_59" x1="232.584" y1="55.9644" x2="232.584" y2="97.7505" gradientUnits="userSpaceOnUse">
<stop stop-color="#5B50A1"/>
<stop offset="1" stop-color="#0D70AE"/>
</linearGradient>
<linearGradient id="paint2_linear_1618_59" x1="338.844" y1="261.312" x2="338.844" y2="318.691" gradientUnits="userSpaceOnUse">
<stop stop-color="#5B50A1"/>
<stop offset="1" stop-color="#0D70AE"/>
</linearGradient>
</defs>
</svg>
