<svg width="512" height="512" viewBox="0 0 512 512" fill="none" xmlns="http://www.w3.org/2000/svg">
<path d="M92.2645 301.481C110.211 283.154 127.195 264.91 150.729 255.17C154.233 253.72 159.779 253.202 162.713 254.989C193.375 273.668 226.394 283.541 262.344 282.669C294.45 281.89 323.456 270.895 351.178 255.37C354.964 253.249 362.073 253.059 365.68 255.233C409.555 281.68 442.319 317.756 462.347 365.577C467.493 377.864 464.186 385.107 456.875 393.536C418.269 438.046 371.452 469.123 313.301 481.737C264.751 492.268 217.276 489.086 170.174 472.673C134.442 460.222 104.246 439.503 76.6974 414.612C65.5711 404.559 56.8675 391.824 47 380.238C56.9326 351.127 70.731 324.584 92.2645 301.481Z" fill="url(#paint0_linear_1631_223)" stroke="black" stroke-width="20"/>
<path d="M170.861 173.095C147.303 129.094 156.454 83.95 186.559 53.4568C213.068 26.6069 246.695 17.9702 284.179 28.1306C347.183 45.2084 376.611 119.816 341.559 176.574C311.494 225.258 243.28 238.698 197.794 202.449C187.754 194.447 180.077 183.48 170.861 173.095Z" fill="url(#paint1_linear_1631_223)" stroke="black" stroke-width="20"/>
<defs>
<linearGradient id="paint0_linear_1631_223" x1="255.92" y1="253.689" x2="255.92" y2="487.83" gradientUnits="userSpaceOnUse">
<stop stop-color="#C6C0E9"/>
<stop offset="1" stop-color="white"/>
</linearGradient>
<linearGradient id="paint1_linear_1631_223" x1="257.033" y1="24" x2="257.033" y2="223.046" gradientUnits="userSpaceOnUse">
<stop stop-color="#C6C0E9"/>
<stop offset="1" stop-color="white"/>
</linearGradient>
</defs>
</svg>
