<svg width="512" height="512" viewBox="0 0 512 512" fill="none" xmlns="http://www.w3.org/2000/svg">
<path d="M7.99805 303C7.99805 224.55 7.99805 146.601 7.99805 68.3257C140.693 68.3257 272.931 68.3257 404.911 68.3257C408.075 74.5757 411.23 80.8072 414.644 87.549C414.249 88.0026 413.458 89.0244 412.553 89.9312C396.775 105.732 380.939 121.475 365.243 137.357C363.102 139.523 361.335 139.652 358.37 139.2C353.463 138.453 348.24 138.381 343.376 139.266C340.447 139.799 338.775 139.521 336.945 137.497C335.159 135.522 333.27 133.627 331.302 131.833C325.993 126.99 321.379 123.014 324.549 113.823C327.624 104.906 320.361 94.1225 311.124 89.0442C302.825 84.4811 292.558 85.5831 284.837 91.6359C275.305 99.1095 273.172 108.319 276.012 120.228C276.403 121.866 275.846 124.46 274.712 125.619C262.132 138.486 249.405 151.213 236.532 163.786C235.4 164.892 232.594 165.505 231.171 164.907C215.145 158.167 197.947 173.035 197.786 187.172C197.611 202.455 207.999 212.195 221.911 213.94C231.695 215.167 244.897 205.496 246.808 195.148C247.659 190.544 246.374 185.575 246.395 180.773C246.404 178.758 246.628 176.108 247.87 174.833C260.428 161.944 273.265 149.328 285.89 136.503C287.768 134.595 289.421 133.913 291.832 135.024C297.58 137.672 303.218 137.063 308.921 134.677C309.954 134.245 311.938 134.605 312.752 135.373C317.475 139.83 322.192 144.336 326.419 149.248C327.568 150.582 327.793 153.664 327.129 155.456C321.42 170.846 336.013 188.759 351.557 188.022C368.38 187.225 379.818 171.707 375.094 155.548C374.598 153.849 374.698 151.04 375.758 149.959C392.555 132.839 409.554 115.917 425.816 99.6399C435.326 103.729 444.267 107.573 453.789 111.667C453.789 162.511 453.789 214.467 453.789 267.331C425.15 252.006 395.319 245.374 363.238 250.912C331.219 256.44 304.788 271.826 282.033 296.581C282.033 282.619 282.033 270.086 282.033 257.284C265.207 257.284 248.959 257.284 232.355 257.284C232.355 290.98 232.355 324.56 232.355 358.799C238.271 358.799 244.327 358.799 250.968 358.799C250.593 364.511 250.384 369.554 249.821 374.557C249.721 375.443 248.26 376.456 247.213 376.874C246.202 377.277 244.914 376.998 243.748 376.998C167.094 377 90.4401 377 13.7863 377C12.1331 377 10.4798 377 7.99805 377C7.99805 352.318 7.99805 327.909 7.99805 303ZM193.499 223C183.42 223 173.34 223 163.316 223C163.316 268.727 163.316 313.625 163.316 358.586C180.331 358.586 197.026 358.586 213.683 358.586C213.683 313.273 213.683 268.376 213.683 223C207.084 223 200.791 223 193.499 223ZM74.2172 275.01C58.2906 275.01 42.3641 275.01 26.4209 275.01C26.4209 303.356 26.4209 331.046 26.4209 358.658C43.422 358.658 59.999 358.658 76.3715 358.658C76.6509 358.179 76.8009 358.041 76.8013 357.903C76.871 331.258 76.9495 304.613 76.9124 277.968C76.911 276.995 75.7726 276.023 74.2172 275.01ZM94.9993 319.5C94.9993 332.572 94.9993 345.644 94.9993 358.679C112.055 358.679 128.295 358.679 144.593 358.679C144.593 336.335 144.593 314.314 144.593 292.321C127.944 292.321 111.705 292.321 94.9993 292.321C94.9993 301.256 94.9993 309.878 94.9993 319.5ZM144.499 189C116.77 189 89.0399 189 61.325 189C61.325 194.713 61.325 199.628 61.325 204.603C100.663 204.603 139.676 204.603 178.682 204.603C178.682 199.287 178.682 194.373 178.682 189C167.409 189 156.454 189 144.499 189ZM168.464 86C132.742 86 97.0189 86 61.3329 86C61.3329 91.729 61.3329 96.6438 61.3329 101.593C100.68 101.593 139.696 101.593 178.671 101.593C178.671 96.2658 178.671 91.3513 178.671 86C175.377 86 172.413 86 168.464 86ZM67.6183 170.999C104.669 170.999 141.719 170.999 178.644 170.999C178.644 165.21 178.644 160.295 178.644 155.439C139.262 155.439 100.245 155.439 61.3694 155.439C61.3694 160.801 61.3694 165.716 61.3694 170.999C63.3742 170.999 65.0138 170.999 67.6183 170.999ZM110.499 121.001C94.0947 121.001 77.69 121.001 61.3348 121.001C61.3348 126.733 61.3348 131.648 61.3348 136.594C100.683 136.594 139.696 136.594 178.672 136.594C178.672 131.267 178.672 126.353 178.672 121.001C156.06 121.001 133.78 121.001 110.499 121.001ZM33.54 189C31.1266 189 28.7133 189 26.3126 189C26.3126 194.708 26.3126 199.616 26.3126 204.595C31.9915 204.595 37.351 204.595 42.679 204.595C42.679 199.277 42.679 194.369 42.679 189C39.7492 189 37.1242 189 33.54 189ZM26.0509 156.821C26.0509 161.41 26.0509 166 26.0509 170.564C32.0558 170.564 37.4168 170.564 42.6463 170.564C42.6463 165.213 42.6463 160.304 42.6463 154.625C36.914 155.067 31.5677 155.479 26.0509 156.821ZM37.3705 121.001C33.7589 121.001 30.1473 121.001 26.3693 121.001C26.3693 126.585 26.3693 131.61 26.3693 136.715C31.9831 136.715 37.2236 136.715 42.7293 136.715C42.7293 131.525 42.7293 126.618 42.7293 121.334C41.1945 121.218 39.7596 121.11 37.3705 121.001ZM26.8796 101.774C32.1257 101.774 37.3719 101.774 42.7253 101.774C42.7253 96.3757 42.7253 91.4672 42.7253 86.3663C37.0874 86.3663 31.7288 86.3663 26.2196 86.3663C26.2196 91.5202 26.2196 96.3098 26.8796 101.774Z" fill="url(#paint0_linear_1617_2)"/>
<path d="M326.259 445.742C343.805 463.018 364.467 471.067 388.827 470.062C415.21 468.975 436.062 457.624 452.462 437.291C453.254 436.309 455.794 435.559 456.771 436.087C466.267 441.226 475.603 446.66 485.539 452.325C464.402 482.496 436.186 500.732 400.325 504.731C352.576 510.055 314.419 491.965 285.188 452.661C291.696 448.807 297.657 445.225 303.672 441.735C307.623 439.444 311.953 435.158 315.562 435.668C319.166 436.177 322.083 441.547 325.302 444.786C325.537 445.023 325.773 445.257 326.259 445.742Z" fill="url(#paint1_linear_1617_2)"/>
<path d="M450.648 284.295C469.231 296.047 483.276 311.734 492.664 330.93C497.914 341.665 500.915 353.645 503.788 365.344C505.611 372.769 506.201 380.752 505.823 388.41C504.971 405.668 501.55 422.455 493.213 438.524C482.972 432.578 473.104 426.849 462.911 420.931C473.541 394.171 473.508 367.974 458.887 342.995C444.342 318.146 422.146 304.426 393.342 300.613C393.342 289.329 393.342 277.941 393.342 265.882C414.309 266.498 432.986 273.158 450.648 284.295Z" fill="url(#paint2_linear_1617_2)"/>
<path d="M279.688 327.712C286.086 316.426 293.438 306.322 302.751 297.784C320.739 281.292 341.536 270.465 365.891 266.991C369.292 266.506 372.707 266.126 376.592 265.638C376.592 277.617 376.592 289 376.592 300.565C348.351 304.766 326.299 318.308 311.806 343.428C297.367 368.455 296.948 394.095 308.121 420.838C298.041 426.661 288.009 432.457 277.735 438.392C271.155 425.494 267.605 412.394 265.86 398.564C264.158 385.08 264.733 371.767 268.196 358.841C271.016 348.316 275.65 338.277 279.688 327.712Z" fill="url(#paint3_linear_1617_2)"/>
<path d="M454 385.009C454.033 413.589 441.175 434.553 416.559 446.856C376.766 466.743 329.8 446.558 318.476 402.296C312.226 377.864 318.25 355.444 336.468 336.982C348.559 324.729 362.956 318.176 380.205 316.886C404.036 315.105 423.491 323.611 438.643 341.406C449.018 353.589 454.728 368.066 454 385.009ZM335.001 388.377C335.307 401.996 341.173 413.053 350.812 422.294C370.062 440.746 400.144 441.06 419.557 422.672C436.153 406.953 440.775 387.559 432.007 365.946C422.811 343.275 400.493 331.442 376.852 335.352C352.201 339.428 333.05 362.18 335.001 388.377Z" fill="url(#paint4_linear_1617_2)"/>
<path d="M487.178 15.7053C498.959 23.8959 504.76 35.4464 505.753 48.8212C506.85 63.6102 501.051 76.476 489.386 85.7052C477.268 95.2926 463.1 97.5715 448.474 92.6124C433.223 87.4412 423.675 76.5119 420.081 60.7002C416.006 42.769 424.469 23.1699 439.848 14.5157C453.188 7.00928 466.74 5.98379 480.738 12.3529C482.833 13.3062 484.858 14.4132 487.178 15.7053Z" fill="url(#paint5_linear_1617_2)"/>
<path d="M266 298C266 320.237 266.133 320.3 256.522 340.474C255.63 342.345 251.655 342.746 248.316 344.169C248.316 319.943 248.316 297.278 248.316 274.306C254.062 274.306 259.634 274.306 266 274.306C266 282.031 266 289.766 266 298Z" fill="url(#paint6_linear_1617_2)"/>
<path d="M342.054 161.386C343.701 156.999 345.792 153.792 350.879 153.955C356.353 154.131 359.622 156.668 359.993 161.525C360.398 166.844 356.828 171.489 351.953 171.985C347.396 172.449 342.897 168.976 342.042 164.27C341.896 163.468 342.021 162.616 342.054 161.386Z" fill="url(#paint7_linear_1617_2)"/>
<path d="M217.861 180.679C222.844 179.444 227.53 178.586 230.434 183.907C232.788 188.219 231.991 193.541 228.427 195.789C224.339 198.367 219.853 198.135 216.77 195.249C213.276 191.978 212.906 186.754 215.845 182.722C216.328 182.06 216.999 181.536 217.861 180.679Z" fill="url(#paint8_linear_1617_2)"/>
<path d="M308.945 112.683C305.318 120.333 298.633 122.786 294.011 118.49C290.578 115.298 290.09 111.499 291.908 107.261C293.587 103.346 297.07 102.24 300.675 102.448C305.683 102.736 308.248 106.17 308.945 112.683Z" fill="url(#paint9_linear_1617_2)"/>
<path d="M198.002 335.897C198.002 338.355 198.002 340.325 198.002 342.646C191.706 342.646 185.788 342.646 179.436 342.646C179.436 308.416 179.436 274.062 179.436 239.352C185.323 239.352 191.24 239.352 198.002 239.352C198.002 271.296 198.002 303.353 198.002 335.897Z" fill="url(#paint10_linear_1617_2)"/>
<path d="M61.0025 303.021C61.0025 316.462 61.0025 329.407 61.0025 342.674C54.9753 342.674 49.3972 342.674 43.4062 342.674C43.4062 325.691 43.4062 308.674 43.4062 291.326C49.0313 291.326 54.6097 291.326 61.0025 291.326C61.0025 295.03 61.0025 298.777 61.0025 303.021Z" fill="url(#paint11_linear_1617_2)"/>
<path d="M128.999 331.97C128.999 335.759 128.999 339.054 128.999 342.668C122.982 342.668 117.407 342.668 111 342.668C111 336.999 111 331.257 111 325.515C111 319.895 111 314.275 111 308.33C117.019 308.33 122.595 308.33 128.999 308.33C128.999 315.998 128.999 323.736 128.999 331.97Z" fill="url(#paint12_linear_1617_2)"/>
<path d="M413.792 365.27C420.74 376.311 422.211 387.598 417.164 399.405C408.573 419.503 384.209 425.995 365.707 414.206C346.077 401.699 346.652 370.338 364.415 357.463C380.074 346.114 405.152 350.974 413.792 365.27Z" fill="url(#paint13_linear_1617_2)"/>
<defs>
<linearGradient id="paint0_linear_1617_2" x1="230.894" y1="68.3257" x2="230.894" y2="377.092" gradientUnits="userSpaceOnUse">
<stop stop-color="#5B50A1"/>
<stop offset="1" stop-color="#0D70AE"/>
</linearGradient>
<linearGradient id="paint1_linear_1617_2" x1="385.363" y1="435.626" x2="385.363" y2="505.642" gradientUnits="userSpaceOnUse">
<stop stop-color="#5B50A1"/>
<stop offset="1" stop-color="#0D70AE"/>
</linearGradient>
<linearGradient id="paint2_linear_1617_2" x1="449.637" y1="265.882" x2="449.637" y2="438.524" gradientUnits="userSpaceOnUse">
<stop stop-color="#5B50A1"/>
<stop offset="1" stop-color="#0D70AE"/>
</linearGradient>
<linearGradient id="paint3_linear_1617_2" x1="320.764" y1="265.638" x2="320.764" y2="438.392" gradientUnits="userSpaceOnUse">
<stop stop-color="#5B50A1"/>
<stop offset="1" stop-color="#0D70AE"/>
</linearGradient>
<linearGradient id="paint4_linear_1617_2" x1="385.075" y1="316.654" x2="385.075" y2="454.523" gradientUnits="userSpaceOnUse">
<stop stop-color="#5B50A1"/>
<stop offset="1" stop-color="#0D70AE"/>
</linearGradient>
<linearGradient id="paint5_linear_1617_2" x1="462.473" y1="8.16248" x2="462.473" y2="95.1579" gradientUnits="userSpaceOnUse">
<stop stop-color="#5B50A1"/>
<stop offset="1" stop-color="#0D70AE"/>
</linearGradient>
<linearGradient id="paint6_linear_1617_2" x1="257.158" y1="274.306" x2="257.158" y2="344.169" gradientUnits="userSpaceOnUse">
<stop stop-color="#5B50A1"/>
<stop offset="1" stop-color="#0D70AE"/>
</linearGradient>
<linearGradient id="paint7_linear_1617_2" x1="350.998" y1="153.949" x2="350.998" y2="172.027" gradientUnits="userSpaceOnUse">
<stop stop-color="#5B50A1"/>
<stop offset="1" stop-color="#0D70AE"/>
</linearGradient>
<linearGradient id="paint8_linear_1617_2" x1="222.822" y1="179.749" x2="222.822" y2="197.578" gradientUnits="userSpaceOnUse">
<stop stop-color="#5B50A1"/>
<stop offset="1" stop-color="#0D70AE"/>
</linearGradient>
<linearGradient id="paint9_linear_1617_2" x1="299.907" y1="102.424" x2="299.907" y2="120.594" gradientUnits="userSpaceOnUse">
<stop stop-color="#5B50A1"/>
<stop offset="1" stop-color="#0D70AE"/>
</linearGradient>
<linearGradient id="paint10_linear_1617_2" x1="188.719" y1="239.352" x2="188.719" y2="342.646" gradientUnits="userSpaceOnUse">
<stop stop-color="#5B50A1"/>
<stop offset="1" stop-color="#0D70AE"/>
</linearGradient>
<linearGradient id="paint11_linear_1617_2" x1="52.2044" y1="291.326" x2="52.2044" y2="342.674" gradientUnits="userSpaceOnUse">
<stop stop-color="#5B50A1"/>
<stop offset="1" stop-color="#0D70AE"/>
</linearGradient>
<linearGradient id="paint12_linear_1617_2" x1="120" y1="308.33" x2="120" y2="342.668" gradientUnits="userSpaceOnUse">
<stop stop-color="#5B50A1"/>
<stop offset="1" stop-color="#0D70AE"/>
</linearGradient>
<linearGradient id="paint13_linear_1617_2" x1="385.598" y1="351.175" x2="385.598" y2="420.075" gradientUnits="userSpaceOnUse">
<stop stop-color="#5B50A1"/>
<stop offset="1" stop-color="#0D70AE"/>
</linearGradient>
</defs>
</svg>
