<svg width="512" height="512" viewBox="0 0 512 512" fill="none" xmlns="http://www.w3.org/2000/svg">
<path d="M486 357.059V428.655C485.963 434.684 483.552 440.455 479.289 444.718C475.026 448.981 469.255 451.392 463.227 451.429H323.059C317.031 451.392 311.26 448.981 306.997 444.718C302.734 440.455 300.323 434.684 300.286 428.655V357.059C300.323 351.031 302.734 345.26 306.997 340.997C311.26 336.734 317.031 334.323 323.059 334.286H376H410.286H463.227C469.255 334.323 475.026 336.734 479.289 340.997C483.552 345.26 485.963 351.031 486 357.059ZM136 334.286H188.941C194.969 334.323 200.74 336.734 205.003 340.997C209.266 345.259 211.677 351.029 211.714 357.057V428.658C211.677 434.685 209.266 440.455 205.003 444.718C200.74 448.981 194.969 451.392 188.941 451.429H48.7733C42.7451 451.392 36.974 448.981 32.711 444.718C28.4484 440.455 26.0375 434.685 26 428.657V357.057C26.0375 351.03 28.4484 345.259 32.711 340.997C36.974 336.734 42.7451 334.323 48.7733 334.286H101.714H136ZM238.857 177.143H185.914C179.886 177.105 174.116 174.694 169.854 170.432C165.591 166.169 163.18 160.399 163.143 154.372V82.7708C163.18 76.7435 165.591 70.9734 169.854 66.711C174.116 62.4485 179.887 60.0375 185.914 60H326.086C332.113 60.0375 337.884 62.4484 342.146 66.711C346.409 70.974 348.82 76.7451 348.857 82.7733V154.37C348.82 160.398 346.409 166.169 342.146 170.432C337.884 174.694 332.114 177.105 326.086 177.143H273.143H238.857Z" fill="url(#paint0_linear_1636_61)" stroke="black" stroke-width="20"/>
<path d="M257 188V257M257 257H139C127.954 257 119 265.954 119 277V324.5M257 257H373.5C384.546 257 393.5 265.954 393.5 277V324.5" stroke="black" stroke-width="20"/>
<defs>
<linearGradient id="paint0_linear_1636_61" x1="256" y1="50" x2="256" y2="461.429" gradientUnits="userSpaceOnUse">
<stop stop-color="#C6C0E9"/>
<stop offset="0.265625" stop-color="white"/>
<stop offset="0.713542" stop-color="#C6C0E9"/>
<stop offset="1" stop-color="white"/>
</linearGradient>
</defs>
</svg>
