<svg width="512" height="512" viewBox="0 0 512 512" fill="none" xmlns="http://www.w3.org/2000/svg">
<path d="M342.747 187.352C349.082 202.438 350.426 217.856 350.143 233.678C349.974 243.075 344.285 246.722 336.901 249.62C320.676 255.987 304.229 261.686 286.712 262.917C271.414 263.993 255.985 265.635 240.756 264.705C215.851 263.183 191.748 257.162 169.372 245.604C167.442 244.607 165.444 241.944 165.184 239.844C164.355 233.162 163.903 226.368 164.082 219.638C164.585 200.708 170.866 183.585 182.127 168.506C195.503 150.595 213.161 138.543 235.034 133.545C263.482 127.044 289.744 132.354 313.314 149.83C324.523 158.142 333.01 168.849 339.945 180.84C341.053 182.757 341.678 184.953 342.747 187.352Z" fill="url(#paint0_linear_1625_157)"/>
<path d="M99.0961 368C121.64 367.472 141.641 374.228 158.759 387.585C177.613 402.297 190.113 421.707 192.805 445.989C193.972 456.515 193.139 467.281 192.851 477.929C192.807 479.557 191.153 481.895 189.634 482.613C173.609 490.187 156.908 495.68 139.457 499.077C121.14 502.642 102.609 502.905 84.2365 501.677C70.6436 500.769 57.0834 497.541 43.82 494.134C33.9631 491.603 24.6498 487.003 15.0036 483.58C11.1309 482.205 9.56637 479.387 9.05253 475.818C6.63787 459.047 8.49198 442.713 14.5803 426.903C19.7425 413.497 27.6475 401.849 38.3156 392.284C51.1523 380.774 65.9485 372.875 83.1406 370.026C88.27 369.176 93.4557 368.666 99.0961 368Z" fill="url(#paint1_linear_1625_157)"/>
<path d="M331.715 414.782C345.749 391.497 365.674 376.119 391.689 370.37C420.896 363.917 447.897 369.934 471.652 389.043C490.227 403.984 500.682 423.477 504.882 446.495C506.827 457.157 506.764 468.015 503.933 478.635C503.581 479.955 502.547 481.517 501.386 482.133C485.21 490.73 467.883 495.679 449.927 499.145C432.236 502.56 414.439 502.602 396.698 501.8C376.955 500.906 357.751 496.379 339.314 489.022C334.851 487.241 330.534 485.026 325.968 483.584C319.293 481.477 320.54 475.527 320.188 471.126C318.612 451.451 321.615 432.518 331.715 414.782Z" fill="url(#paint2_linear_1625_157)"/>
<path d="M71.333 337.83C62.9133 330.322 56.3125 322.054 53.6171 311.169C49.8123 295.804 52.4338 281.601 61.7139 268.853C72.7097 253.747 88.1993 247.628 106.331 249.154C124.192 250.657 140.587 262.668 147.041 279.658C153.559 296.816 151.733 312.84 140.999 327.707C132.909 338.913 121.861 345.064 108.139 347.09C94.5884 349.09 82.7258 345.359 71.333 337.83Z" fill="url(#paint3_linear_1625_157)"/>
<path d="M437.606 255.221C448.976 262.483 457.037 271.922 460.294 284.806C464.374 300.945 461.937 315.85 451.373 329.208C444.168 338.318 434.918 344.104 423.786 346.593C406.403 350.479 385.415 344.361 373.706 328.385C361.569 311.825 360.245 293.995 368.714 276.152C375.52 261.813 387.529 252.739 403.881 249.88C415.77 247.801 426.677 249.873 437.606 255.221Z" fill="url(#paint4_linear_1625_157)"/>
<path d="M254.122 110C236.374 109.937 216.698 96.5173 210.454 76.987C202.673 52.6463 212.252 29.2281 234.183 17.0675C250.186 8.19399 274.616 10.9278 288.554 22.6913C306.402 37.7542 310.55 61.7414 302.341 80.9035C296.015 95.6691 284.453 105.551 268.289 108.909C263.842 109.833 259.169 109.666 254.122 110Z" fill="url(#paint5_linear_1625_157)"/>
<path d="M210.748 382.751C223.01 370.479 234.958 358.392 247.09 346.493C249.307 344.318 250.088 342.179 250.064 339.15C249.93 322.322 249.994 305.493 250.002 288.664C250.006 279.89 254.92 275.648 263.473 277.007C267.737 277.684 270.977 282.156 270.987 287.612C271.021 304.774 271.089 321.937 270.921 339.098C270.889 342.368 271.929 344.571 274.212 346.821C287.976 360.388 301.598 374.098 315.26 387.769C320.089 392.601 320.278 398.172 315.796 402.689C311.267 407.254 304.835 407.319 300.228 402.728C288.073 390.615 275.89 378.528 263.887 366.265C261.272 363.594 259.682 363.64 257.094 366.284C245.441 378.191 233.61 389.925 221.809 401.685C217.02 406.458 212.335 407.047 206.819 404.451C202.236 402.294 200.014 393.294 204.13 389.348C206.293 387.275 208.378 385.12 210.748 382.751Z" fill="url(#paint6_linear_1625_157)"/>
<defs>
<linearGradient id="paint0_linear_1625_157" x1="257.11" y1="130.869" x2="257.11" y2="264.98" gradientUnits="userSpaceOnUse">
<stop stop-color="#5B50A1"/>
<stop offset="1" stop-color="#0D70AE"/>
</linearGradient>
<linearGradient id="paint1_linear_1625_157" x1="100.718" y1="367.971" x2="100.718" y2="502.341" gradientUnits="userSpaceOnUse">
<stop stop-color="#5B50A1"/>
<stop offset="1" stop-color="#0D70AE"/>
</linearGradient>
<linearGradient id="paint2_linear_1625_157" x1="413.006" y1="367.876" x2="413.006" y2="502.228" gradientUnits="userSpaceOnUse">
<stop stop-color="#5B50A1"/>
<stop offset="1" stop-color="#0D70AE"/>
</linearGradient>
<linearGradient id="paint3_linear_1625_157" x1="101.38" y1="248.927" x2="101.38" y2="347.624" gradientUnits="userSpaceOnUse">
<stop stop-color="#5B50A1"/>
<stop offset="1" stop-color="#0D70AE"/>
</linearGradient>
<linearGradient id="paint4_linear_1625_157" x1="412.732" y1="249.085" x2="412.732" y2="347.726" gradientUnits="userSpaceOnUse">
<stop stop-color="#5B50A1"/>
<stop offset="1" stop-color="#0D70AE"/>
</linearGradient>
<linearGradient id="paint5_linear_1625_157" x1="257.081" y1="11.8258" x2="257.081" y2="110" gradientUnits="userSpaceOnUse">
<stop stop-color="#5B50A1"/>
<stop offset="1" stop-color="#0D70AE"/>
</linearGradient>
<linearGradient id="paint6_linear_1625_157" x1="260.494" y1="276.758" x2="260.494" y2="406.142" gradientUnits="userSpaceOnUse">
<stop stop-color="#5B50A1"/>
<stop offset="1" stop-color="#0D70AE"/>
</linearGradient>
</defs>
</svg>
