<svg width="512" height="512" viewBox="0 0 512 512" fill="none" xmlns="http://www.w3.org/2000/svg">
<path d="M496 408.273C496 414.059 493.701 419.609 489.61 423.701C485.518 427.792 479.968 430.091 474.182 430.091H212.364C206.577 430.091 201.028 427.792 196.936 423.701C192.844 419.609 190.545 414.059 190.545 408.273C190.545 373.553 204.338 340.256 228.888 315.706C253.438 291.156 286.735 277.364 321.455 277.364H365.091C399.81 277.364 433.107 291.156 457.658 315.706C482.208 340.256 496 373.553 496 408.273ZM343.273 81C326.012 81 309.139 86.1185 294.787 95.7081C280.435 105.298 269.249 118.928 262.643 134.875C256.038 150.822 254.309 168.37 257.677 185.299C261.044 202.228 269.356 217.779 281.562 229.984C293.767 242.189 309.317 250.501 326.247 253.869C343.176 257.236 360.724 255.508 376.671 248.902C392.618 242.297 406.248 231.111 415.837 216.759C425.427 202.407 430.545 185.534 430.545 168.273C430.545 145.127 421.351 122.928 404.984 106.562C388.617 90.1948 366.419 81 343.273 81ZM146.909 81C129.648 81 112.775 86.1185 98.423 95.7081C84.071 105.298 72.8851 118.928 66.2796 134.875C59.6741 150.822 57.9458 168.37 61.3133 185.299C64.6807 202.228 72.9926 217.779 85.198 229.984C97.4033 242.189 112.954 250.501 129.883 253.869C146.812 257.236 164.36 255.508 180.307 248.902C196.254 242.297 209.884 231.111 219.474 216.759C229.063 202.407 234.182 185.534 234.182 168.273C234.182 145.127 224.987 122.928 208.62 106.562C192.253 90.1948 170.055 81 146.909 81ZM146.909 408.273C146.877 385.355 151.392 362.659 160.193 341.499C168.994 320.338 181.906 301.135 198.182 285C184.863 279.971 170.746 277.384 156.509 277.364H137.309C105.154 277.421 74.3317 290.221 51.5943 312.958C28.8569 335.695 16.0577 366.517 16 398.673V408.273C16 414.059 18.2987 419.609 22.3904 423.701C26.4821 427.792 32.0316 430.091 37.8182 430.091H150.836C148.296 423.094 146.968 415.716 146.909 408.273Z" fill="url(#paint0_linear_1631_218)" stroke="black" stroke-width="20"/>
<defs>
<linearGradient id="paint0_linear_1631_218" x1="256" y1="81" x2="256" y2="430.091" gradientUnits="userSpaceOnUse">
<stop stop-color="#C6C0E9"/>
<stop offset="1" stop-color="white"/>
</linearGradient>
</defs>
</svg>
