<svg width="512" height="512" viewBox="0 0 512 512" fill="none" xmlns="http://www.w3.org/2000/svg">
<path d="M86.0667 273.16C48.5353 273.16 18.0133 242.638 18.0133 205.107C18.0133 167.575 48.5353 137.053 86.0667 137.053C123.598 137.053 154.12 167.575 154.12 205.107C154.12 242.638 123.598 273.16 86.0667 273.16ZM116.18 284.559C96.7851 292.045 75.3483 292.045 55.9531 284.559C51.0192 282.688 45.4048 283.368 40.9813 286.09C28.7411 293.731 18.6479 304.363 11.653 316.983C4.65814 329.604 0.991972 343.797 1.00001 358.227V426.28C1.00001 435.637 8.65601 443.293 18.0133 443.293H103.08V358.227C103.08 331.856 110.055 306.166 122.645 283.708C120.434 283.368 118.222 283.708 116.18 284.559ZM426.333 273.16C463.865 273.16 494.387 242.638 494.387 205.107C494.387 167.575 463.865 137.053 426.333 137.053C388.802 137.053 358.28 167.575 358.28 205.107C358.28 242.638 388.802 273.16 426.333 273.16ZM471.419 286.09C466.995 283.368 461.381 282.688 456.447 284.559C437.052 292.045 415.615 292.045 396.22 284.559C394.185 283.682 391.947 283.388 389.755 283.708C402.537 306.468 409.273 332.124 409.32 358.227V443.293H494.387C503.744 443.293 511.4 435.637 511.4 426.28V358.227C511.4 328.794 496.428 301.913 471.419 286.09ZM256.2 239.133C209.294 239.133 171.133 200.972 171.133 154.067C171.133 107.161 209.294 69 256.2 69C303.106 69 341.267 107.161 341.267 154.067C341.267 200.972 303.106 239.133 256.2 239.133ZM375.293 358.227C375.289 339.517 370.864 321.073 362.378 304.398C353.893 287.723 341.587 273.288 326.465 262.272C321.361 258.529 314.556 258.018 308.941 260.74C297.542 266.525 285.463 270.098 273.213 271.799V358.227C273.213 367.584 265.557 375.24 256.2 375.24C246.843 375.24 239.187 367.584 239.187 358.227V271.799C226.937 270.098 214.858 266.525 203.459 260.74C197.844 258.018 191.039 258.529 185.935 262.272C170.812 273.288 158.507 287.723 150.022 304.398C141.536 321.073 137.111 339.517 137.107 358.227V443.293H375.293V358.227Z" fill="url(#paint0_linear_1619_72)"/>
<defs>
<linearGradient id="paint0_linear_1619_72" x1="256.2" y1="69" x2="256.2" y2="443.293" gradientUnits="userSpaceOnUse">
<stop stop-color="#5B50A1"/>
<stop offset="1" stop-color="#0D70AE"/>
</linearGradient>
</defs>
</svg>
