<svg width="512" height="512" viewBox="0 0 512 512" fill="none" xmlns="http://www.w3.org/2000/svg">
<path d="M265 506C192.69 506 120.879 506.001 49.0687 505.999C40.0183 505.999 35.0012 500.922 35.0006 491.772C34.9989 466.947 35.0678 442.121 34.9811 417.296C34.8925 391.894 43.5006 370.253 62.4746 353.068C71.3389 345.039 82.1153 340.354 93.0695 336.01C115.695 327.036 138.307 318.028 160.911 308.999C168.2 306.087 175.404 302.958 182.722 300.123C191.493 296.726 198.463 299.57 201.635 308.255C209.323 329.305 216.726 350.458 224.267 371.634C228.665 367.267 229.624 362.44 227.358 356.784C225.394 351.882 223.453 346.97 221.535 342.05C218.691 334.755 224.308 326.087 232.119 326.034C248.613 325.922 265.109 325.941 281.603 326.025C289.818 326.066 295.367 334.596 292.312 342.207C290.104 347.708 287.283 353.074 285.968 358.784C285.119 362.472 286.497 366.673 286.877 370.645C287.465 370.748 288.053 370.851 288.641 370.955C289.738 369.388 291.247 367.969 291.869 366.232C298.663 347.242 305.33 328.207 312.009 309.176C315.233 299.988 322.23 296.521 331.266 300.126C357.15 310.452 382.969 320.938 408.811 331.368C417.276 334.784 425.98 337.717 434.144 341.745C457.226 353.133 471.403 371.789 476.897 396.854C478.249 403.024 478.853 409.469 478.909 415.795C479.13 441.118 479.001 466.444 478.999 491.77C478.999 500.922 473.983 505.999 464.934 505.999C398.456 506.001 331.978 506 265 506ZM389.5 412C370.018 412 350.53 412.283 331.058 411.848C324.146 411.694 319.417 416.149 319.116 423.662C318.67 434.801 319.008 445.97 318.997 457.127C318.991 463.238 324.807 469.001 330.812 469C355.623 468.999 380.435 469.172 405.242 468.888C412.079 468.81 417.559 464.602 417.144 456.538C416.571 445.411 417.017 434.233 416.994 423.077C416.98 416.46 412.57 412.038 405.985 412.005C400.823 411.98 395.661 412 389.5 412Z" fill="url(#paint0_linear_1620_75)"/>
<path d="M379.796 184.481C377.384 196.858 373.966 208.24 366.075 217.974C359.899 225.593 351.866 229.344 343.668 231.228C334.81 245.052 326.879 258.904 317.485 271.68C307.712 284.971 293.609 292.534 277.542 295.934C256.904 300.3 236.806 298.594 217.673 289.185C204.607 282.76 195.661 271.987 188.087 260.052C182.67 251.515 178.015 242.497 172.924 233.749C172.29 232.659 171.185 231.304 170.101 231.094C157.225 228.595 148.312 220.91 142.338 209.685C135.868 197.526 132.924 184.384 134.127 170.666C134.89 161.972 138.353 154.138 145.236 148.208C146.611 147.023 148.718 145.624 148.807 144.217C149.042 140.523 149.478 136.147 147.824 133.151C141.577 121.831 139.724 110.166 141.9 97.4794C143.493 88.1892 146.182 79.564 150.805 71.2174C156.997 60.039 166.409 52.6755 178.193 50.8721C187.157 49.5002 191.392 44.5674 196.014 38.51C205.347 26.2791 217.824 18.4689 232.145 13.4143C244.115 9.18958 256.573 7.19967 269.155 8.12728C292.498 9.84818 313.689 17.7663 332.499 31.9436C349.145 44.4892 356.84 61.9605 361.064 81.6465C364.098 95.7907 364.038 110.059 364.055 124.38C364.064 130.966 364.63 137.553 365.049 144.132C365.105 145.007 365.551 146.199 366.217 146.641C376.999 153.791 380.06 164.445 380 176.56C379.988 179.059 379.982 181.559 379.796 184.481Z" fill="url(#paint1_linear_1620_75)"/>
<defs>
<linearGradient id="paint0_linear_1620_75" x1="257.009" y1="298.725" x2="257.009" y2="506" gradientUnits="userSpaceOnUse">
<stop stop-color="#5B50A1"/>
<stop offset="1" stop-color="#0D70AE"/>
</linearGradient>
<linearGradient id="paint1_linear_1620_75" x1="256.932" y1="7.90326" x2="256.932" y2="298.218" gradientUnits="userSpaceOnUse">
<stop stop-color="#5B50A1"/>
<stop offset="1" stop-color="#0D70AE"/>
</linearGradient>
</defs>
</svg>
