<svg width="512" height="512" viewBox="0 0 512 512" fill="none" xmlns="http://www.w3.org/2000/svg">
<path d="M53.2195 488.502L45.5069 411.377C40.6195 362.51 71.5248 317.188 118.801 303.892C142.996 297.088 167.207 292.087 191.432 288.896C194.367 288.51 197.35 289.033 199.978 290.397C202.606 291.761 204.752 293.898 206.126 296.521L242.733 366.407C246.438 373.479 255.175 376.209 262.247 372.505C264.853 371.139 266.98 369.012 268.345 366.407L304.952 296.521C306.325 293.898 308.471 291.76 311.1 290.397C313.728 289.033 316.711 288.509 319.646 288.896C343.871 292.088 368.082 297.088 392.277 303.892C439.553 317.189 470.458 362.511 465.571 411.377L457.859 488.502C457.119 495.892 450.901 501.52 443.474 501.52H67.6042C60.1776 501.52 53.9587 495.892 53.2195 488.502ZM255.539 255.76C187.673 255.76 132.659 200.744 132.659 132.88C132.659 65.0157 187.673 10 255.539 10C323.404 10 378.419 65.0157 378.419 132.88C378.419 200.744 323.404 255.76 255.539 255.76Z" fill="url(#paint0_linear_1633_227)" stroke="black" stroke-width="20"/>
<defs>
<linearGradient id="paint0_linear_1633_227" x1="255.539" y1="10" x2="255.539" y2="501.52" gradientUnits="userSpaceOnUse">
<stop stop-color="#C6C0E9"/>
<stop offset="1" stop-color="white"/>
</linearGradient>
</defs>
</svg>
