<svg width="512" height="512" viewBox="0 0 512 512" fill="none" xmlns="http://www.w3.org/2000/svg">
<path d="M216 251C216 267.5 215.906 283.5 216.039 299.499C216.108 307.83 213.109 314.667 205.793 318.541C197.751 322.8 189.346 321.982 182.112 316.425C177.822 313.131 175.089 308.32 175.017 302.584C174.648 273.332 174.244 244.081 174.03 214.828C173.876 193.663 173.895 172.495 174.086 151.331C174.126 146.877 172.859 145.084 168 146.369C168 148.066 168 149.868 168 151.669C168 261.833 168.036 371.997 167.941 482.161C167.932 492.204 165.572 501.684 156.115 507.305C141.363 516.074 123.666 508.841 119.101 493.033C118.213 489.958 118.047 486.59 118.044 483.356C117.985 422.191 118 361.026 118 299.861C118 298.061 118 296.262 118 294.233C114.946 294.233 112.209 294.233 109 294.233C109 296.085 109 297.867 109 299.65C109 361.481 109.051 423.313 108.966 485.145C108.943 501.269 96.9616 511.802 81.9328 511.021C70.9044 510.448 60.4623 500.577 60.0676 489.609C59.7383 480.455 60.0003 471.281 60.0003 462.115C60.0003 393.117 60.0003 324.119 60.0003 255.12C60.0003 253.3 60.0003 251.479 60.0003 249.459C67.7131 248.63 75.307 247.878 82.8842 246.985C93.7073 245.71 104.783 245.382 115.269 242.737C129.09 239.25 138.834 227.704 141.067 213.645C143.127 200.676 138.478 190.345 129.834 181.174C128.759 180.033 127.928 177.956 128.11 176.449C129.583 164.204 131.34 151.993 132.977 139.767C133.617 134.987 128.361 126.529 123.441 125.082C119.767 124.002 115.883 123.171 112.075 123.092C100.081 122.843 88.0741 122.821 76.0794 123.065C68.5041 123.219 61.4616 125.034 58.05 132.951C57.3695 134.531 57.302 136.383 57.0108 138.119C56.7967 139.395 57.1495 141.378 56.4418 141.86C51.7702 145.044 53.0418 149.736 53.0237 154.059C52.9705 166.725 53.0243 179.392 53.0466 192.058C53.0468 192.205 53.1838 192.352 53.3553 192.697C60.5151 192.126 67.7757 191.67 74.9869 190.803C75.8008 190.705 76.9768 188.246 76.8934 186.953C76.4416 179.94 75.7452 172.938 74.943 165.954C74.0706 158.359 73.0006 150.786 71.9917 143.207C71.7801 141.617 71.4599 140.042 71.1512 138.234C86.7197 138.234 102.305 138.234 117.872 138.234C115.88 155.081 113.912 171.716 111.951 188.302C120.272 191.296 125.493 198.989 126.1 207.481C126.642 215.047 120.385 225.268 113.351 227.041C107.744 228.455 101.954 229.244 96.2021 229.958C84.3848 231.424 72.5417 232.686 60.7027 233.971C51.1419 235.009 41.5904 236.451 32.0005 236.819C20.4769 237.26 11.0125 227.146 11.004 215.34C10.9903 196.34 10.3357 177.308 11.2758 158.355C11.7585 148.622 10.8912 138.593 15.2624 129.041C21.4714 115.472 31.368 106.558 45.3357 102.108C49.4401 100.8 53.9167 100.113 58.2278 100.089C88.8928 99.9217 119.559 100 150.225 100C156.727 100 163.231 99.8774 169.729 100.023C190.02 100.476 206.426 114.614 212.865 133.865C214.279 138.093 214.871 142.773 214.909 147.253C215.105 170.584 214.897 193.918 215.045 217.25C215.116 228.335 215.667 239.417 216 251Z" fill="url(#paint0_linear_1621_80)"/>
<path d="M383.002 155.798C384.002 163.333 385.236 170.387 385.823 177.494C385.958 179.131 384.14 181.21 382.761 182.644C375.805 189.873 371.845 198.694 372.223 208.428C372.731 221.531 378.646 232.096 390.411 239.139C397.391 243.317 404.938 244.154 412.645 245.016C423.66 246.247 434.656 247.644 445.674 248.839C448.268 249.12 450.918 248.881 454 248.881C454 251.081 454 252.865 454 254.648C454 323.64 453.971 392.632 454.044 461.624C454.051 468.71 455.032 475.802 454.891 482.877C454.767 489.152 453.53 495.149 449.914 500.797C443.532 510.765 427.159 514.164 416.723 507.301C408.632 501.979 405.073 494.374 405.057 485.146C404.948 423.486 405 361.827 405 300.167C405 298.343 405 296.518 405 294.347C402.162 294.347 399.421 294.347 396 294.347C396 295.829 396 297.585 396 299.341C396 361.167 396.011 422.993 395.993 484.82C395.988 500.805 384.358 511.851 369.769 510.91C358.427 510.178 348.553 503.704 347.098 489.434C346.229 480.91 346.049 472.287 346.044 463.708C345.976 361.72 346 259.732 346 157.744C346 155.923 346 154.101 346 151.163C341.127 153.601 336.882 155.693 332.665 157.84C321.479 163.536 310.607 169.988 299.042 174.766C286.692 179.868 273.081 171.374 270.944 156.902C268.887 142.969 266.278 129.119 264.06 115.209C261.94 101.912 260.398 88.51 257.84 75.3018C256.516 68.4686 257.344 62.5525 261.026 56.8972C265.155 50.5547 274.257 47.2402 282.899 49.0467C289.649 50.4578 296.818 57.6438 298.005 64.6477C300.304 78.2092 302.728 91.7499 304.95 105.324C305.894 111.095 306.461 116.929 307.364 124.025C312.94 121.318 318.076 118.918 323.129 116.353C334.408 110.628 344.96 103.296 357.676 100.769C359.418 100.423 361.194 100.035 362.955 100.032C393.618 99.9875 424.282 99.8924 454.944 100.041C473.203 100.129 487.068 108.64 496.27 124.042C500.007 130.297 502.132 137.449 502.126 145.243C502.108 168.326 502.678 191.409 502.996 214.493C503.185 228.266 492.846 237.843 479.137 236.09C467.943 234.658 456.633 234.151 445.404 232.961C431.149 231.45 416.903 229.818 402.692 227.939C394.078 226.8 386.127 213.889 388.053 204.855C389.601 197.599 393.586 192.286 400.267 188.936C401.085 188.526 401.983 187.132 401.911 186.272C401.397 180.101 400.691 173.944 399.949 167.794C399.014 160.04 398.001 152.295 396.991 144.549C396.741 142.629 396.375 140.724 395.996 138.406C411.565 138.406 427.072 138.406 442.562 138.406C441.384 149.208 440.219 160.145 438.989 171.074C438.388 176.413 437.478 181.726 437.141 187.078C437.062 188.325 438.614 190.697 439.637 190.827C446.578 191.716 453.579 192.143 460.998 192.755C460.998 177.535 460.998 162.239 460.998 146.943C460.998 146.776 461.064 146.519 460.982 146.456C455.896 142.549 457.96 135.9 455.067 131.112C451.315 124.898 445.187 123.284 438.806 123.109C425.651 122.747 412.468 122.662 399.318 123.116C390.177 123.431 383.43 127.002 381.378 137.454C380.716 140.826 381.716 144.54 382.052 148.089C382.281 150.513 382.678 152.921 383.002 155.798Z" fill="url(#paint1_linear_1621_80)"/>
<path d="M156 44.1311C155.234 66.4621 142.576 82.9547 122.05 86.6035C97.8443 90.9065 78.6766 78.852 72.2412 55.0165C68.2751 40.3267 72.5673 26.2598 83.2151 15.6243C98.9128 -0.0551472 122.33 -1.67278 139.953 12.4146C148.857 19.5324 153.926 28.6107 155.055 39.9412C155.181 41.2054 155.676 42.4328 156 44.1311Z" fill="url(#paint2_linear_1621_80)"/>
<path d="M406.686 87C398.579 86.9053 390.931 87.6572 383.625 84.0685C370.109 77.4287 361.617 67.3363 358.899 52.2018C356.368 38.1053 360.588 25.8572 369.834 16.0909C379.689 5.68028 392.468 1.14682 407.362 3.61846C416.16 5.07833 423.568 8.99467 429.946 14.6566C436.206 20.2133 439.776 27.8454 441.85 35.8618C444.376 45.626 442.826 55.248 438.293 64.1419C431.801 76.877 421.385 84.6293 406.686 87Z" fill="url(#paint3_linear_1621_80)"/>
<defs>
<linearGradient id="paint0_linear_1621_80" x1="113.405" y1="99.9516" x2="113.405" y2="511.079" gradientUnits="userSpaceOnUse">
<stop stop-color="#5B50A1"/>
<stop offset="1" stop-color="#0D70AE"/>
</linearGradient>
<linearGradient id="paint1_linear_1621_80" x1="380.123" y1="48.5566" x2="380.123" y2="510.966" gradientUnits="userSpaceOnUse">
<stop stop-color="#5B50A1"/>
<stop offset="1" stop-color="#0D70AE"/>
</linearGradient>
<linearGradient id="paint2_linear_1621_80" x1="113.392" y1="2.7836" x2="113.392" y2="87.4632" gradientUnits="userSpaceOnUse">
<stop stop-color="#5B50A1"/>
<stop offset="1" stop-color="#0D70AE"/>
</linearGradient>
<linearGradient id="paint3_linear_1621_80" x1="400.617" y1="2.95807" x2="400.617" y2="87.0067" gradientUnits="userSpaceOnUse">
<stop stop-color="#5B50A1"/>
<stop offset="1" stop-color="#0D70AE"/>
</linearGradient>
</defs>
</svg>
