<svg width="512" height="512" viewBox="0 0 512 512" fill="none" xmlns="http://www.w3.org/2000/svg">
<path d="M176 495.999H69.3332C55.1884 495.999 41.6229 490.38 31.6209 480.378C21.619 470.376 16 456.811 16 442.666V69.3332C16 55.1884 21.619 41.6229 31.6209 31.6209C41.6229 21.619 55.1884 16 69.3332 16H176" fill="url(#paint0_linear_1634_2)"/>
<path d="M176 495.999H69.3332C55.1884 495.999 41.6229 490.38 31.6209 480.378C21.619 470.376 16 456.811 16 442.666V69.3332C16 55.1884 21.619 41.6229 31.6209 31.6209C41.6229 21.619 55.1884 16 69.3332 16H176" stroke="black" stroke-width="20" stroke-linecap="round" stroke-linejoin="round"/>
<path d="M495.999 256H176" stroke="black" stroke-width="20" stroke-linecap="round" stroke-linejoin="round"/>
<path d="M362.666 389.333L429.333 322.666L495.999 256L362.666 122.666" fill="url(#paint1_linear_1634_2)"/>
<path d="M362.666 389.333L429.333 322.666L495.999 256L362.666 122.666" stroke="black" stroke-width="20" stroke-linecap="round" stroke-linejoin="round"/>
<defs>
<linearGradient id="paint0_linear_1634_2" x1="95.9999" y1="16" x2="95.9999" y2="495.999" gradientUnits="userSpaceOnUse">
<stop stop-color="#C6C0E9"/>
<stop offset="1" stop-color="white"/>
</linearGradient>
<linearGradient id="paint1_linear_1634_2" x1="429.333" y1="122.666" x2="429.333" y2="389.333" gradientUnits="userSpaceOnUse">
<stop stop-color="#C6C0E9"/>
<stop offset="1" stop-color="white"/>
</linearGradient>
</defs>
</svg>
