<svg width="512" height="512" viewBox="0 0 512 512" fill="none" xmlns="http://www.w3.org/2000/svg">
<path d="M223.851 274.837C204.28 274.596 204.277 274.596 204.275 257.308C204.272 232.837 204.975 208.337 203.982 183.907C203.479 171.537 208.501 168.523 219.46 168.594C262.509 168.871 305.561 168.707 348.612 168.707C350.806 168.707 353 168.707 356.666 168.707C356.666 147.381 356.424 126.702 356.858 106.036C356.951 101.585 359.303 93.5179 360.922 93.4393C366.044 93.1906 372.836 94.3818 376.289 97.7648C414.799 135.49 452.78 173.755 490.961 211.817C497.63 218.465 497.678 224.975 491.122 231.54C452.705 270.003 414.381 308.562 375.591 346.646C372.425 349.754 365.869 350.799 361.17 350.275C359.277 350.064 356.948 343.067 356.867 339.116C356.439 318.303 356.666 297.478 356.666 274.837C312.618 274.837 268.882 274.837 223.851 274.837Z" fill="url(#paint0_linear_1623_117)"/>
<path d="M194.007 377.487C223.579 399.41 238.868 427.953 239.529 463.712C240.112 495.252 239.651 495.261 208.494 495.261C150.009 495.261 91.5223 495.047 33.0397 495.435C20.831 495.517 16.8285 491.108 16.1963 478.884C14.4626 445.361 24.1905 415.796 46.2413 391.202C64.0325 371.359 87.9446 360.04 114.167 356.871C142.523 353.443 169.535 359.753 194.007 377.487Z" fill="url(#paint1_linear_1623_117)"/>
<path d="M186.43 299.502C177.977 333.134 135.753 355.484 97.5323 334.366C64.0929 315.89 57.1792 266.009 84.1224 238.834C100.629 222.185 125.012 213.198 154.53 226.047C170.097 232.823 189.492 249.918 187.959 279.792C187.636 286.089 187.5 292.396 186.43 299.502Z" fill="url(#paint2_linear_1623_117)"/>
<path d="M138.963 81.6301C138.963 123.749 138.963 164.507 138.963 206.034C131.825 206.034 125.274 206.034 117.778 206.034C117.593 202.389 117.221 198.46 117.219 194.53C117.18 141.919 117.31 89.3079 117.124 36.6975C117.065 20.1736 121.352 15.8835 136.825 16.0024C222.086 16.6574 307.355 16.3098 392.621 16.3201C410 16.3222 411.076 17.4134 411.087 34.8635C411.103 59.8075 411.091 84.7515 411.091 111.559C398.897 101.114 386.427 93.4781 388.996 74.8391C390.706 62.4308 389.321 49.5958 389.321 36.1603C306.018 36.1603 223.276 36.1603 138.963 36.1603C138.963 50.7057 138.963 65.4878 138.963 81.6301Z" fill="url(#paint3_linear_1623_117)"/>
<path d="M294.082 427.229C283.204 427.229 273.56 426.253 264.196 427.457C249.996 429.283 242.678 423.307 239.912 408.972C289.173 408.972 338.266 408.972 389.32 408.972C389.32 396.937 390.743 385.609 389.008 374.787C385.918 355.513 395.161 343.331 411.064 332.149C411.064 361.098 411.453 389.303 410.823 417.485C410.638 425.769 403.67 427.386 396.068 427.332C362.527 427.093 328.984 427.229 294.082 427.229Z" fill="url(#paint4_linear_1623_117)"/>
<defs>
<linearGradient id="paint0_linear_1623_117" x1="349.974" y1="93.4075" x2="349.974" y2="350.404" gradientUnits="userSpaceOnUse">
<stop stop-color="#5B50A1"/>
<stop offset="1" stop-color="#0D70AE"/>
</linearGradient>
<linearGradient id="paint1_linear_1623_117" x1="127.822" y1="355.975" x2="127.822" y2="495.437" gradientUnits="userSpaceOnUse">
<stop stop-color="#5B50A1"/>
<stop offset="1" stop-color="#0D70AE"/>
</linearGradient>
<linearGradient id="paint2_linear_1623_117" x1="127.796" y1="219.951" x2="127.796" y2="342.599" gradientUnits="userSpaceOnUse">
<stop stop-color="#5B50A1"/>
<stop offset="1" stop-color="#0D70AE"/>
</linearGradient>
<linearGradient id="paint3_linear_1623_117" x1="264.109" y1="16" x2="264.109" y2="206.034" gradientUnits="userSpaceOnUse">
<stop stop-color="#5B50A1"/>
<stop offset="1" stop-color="#0D70AE"/>
</linearGradient>
<linearGradient id="paint4_linear_1623_117" x1="325.547" y1="332.149" x2="325.547" y2="427.776" gradientUnits="userSpaceOnUse">
<stop stop-color="#5B50A1"/>
<stop offset="1" stop-color="#0D70AE"/>
</linearGradient>
</defs>
</svg>
