<svg width="512" height="512" viewBox="0 0 512 512" fill="none" xmlns="http://www.w3.org/2000/svg">
<path d="M448.675 83C474.754 83 496 104.33 496 130.492V429.606H16V130.492C16 104.33 37.2463 83 63.3251 83H213.466H433.511H448.675Z" fill="url(#paint0_linear_1634_14)" stroke="black" stroke-width="20"/>
<path d="M256.108 380.415H256.025C245.855 380.415 236.352 378.452 228.266 375.047C195.922 382.955 172.664 404.371 172.664 429.482H339.302C339.302 404.371 316.044 382.955 283.534 375.047C275.448 378.452 266.111 380.357 256.108 380.415Z" fill="url(#paint1_linear_1634_14)" stroke="black" stroke-width="20"/>
<path d="M207.88 319.408C194.729 294.846 199.838 269.646 216.643 252.625C231.44 237.637 250.211 232.816 271.135 238.488C306.304 248.021 322.731 289.667 303.164 321.35C286.382 348.526 248.304 356.028 222.914 335.794C217.309 331.327 213.024 325.205 207.88 319.408Z" fill="url(#paint2_linear_1634_14)" stroke="black" stroke-width="20"/>
<defs>
<linearGradient id="paint0_linear_1634_14" x1="256" y1="83" x2="256" y2="429.606" gradientUnits="userSpaceOnUse">
<stop stop-color="#C6C0E9"/>
<stop offset="1" stop-color="white" stop-opacity="0"/>
<stop offset="1" stop-color="white"/>
</linearGradient>
<linearGradient id="paint1_linear_1634_14" x1="255.983" y1="375.047" x2="255.983" y2="429.482" gradientUnits="userSpaceOnUse">
<stop stop-color="#C6C0E9"/>
<stop offset="1" stop-color="white" stop-opacity="0"/>
<stop offset="1" stop-color="white"/>
</linearGradient>
<linearGradient id="paint2_linear_1634_14" x1="255.981" y1="236.182" x2="255.981" y2="347.291" gradientUnits="userSpaceOnUse">
<stop stop-color="#C6C0E9"/>
<stop offset="1" stop-color="white" stop-opacity="0"/>
<stop offset="1" stop-color="white"/>
</linearGradient>
</defs>
</svg>
