<svg width="512" height="512" viewBox="0 0 512 512" fill="none" xmlns="http://www.w3.org/2000/svg">
<path d="M153.738 150.648C156.053 145.142 155.276 140.472 153.244 135.183C149.454 125.313 147.454 114.773 148.098 104.145C149.297 84.3495 155.571 66.4401 168.466 50.9015C181.055 35.7321 196.905 26.0925 215.857 21.71C229.265 18.6096 242.823 19.4171 256.378 21.9178C260.404 22.6606 264.914 21.8033 269.026 20.8868C285.311 17.2569 301.05 19.5027 316.122 25.7408C336.911 34.3447 352.547 49.0056 361.645 69.6219C365.347 78.0111 367.069 87.3812 368.904 96.4643C372.324 113.398 368.22 129.274 360.958 144.556C360.481 145.561 360.311 146.992 360.617 148.045C363.784 158.978 367.015 169.893 370.372 180.769C371.583 184.694 371.734 188.725 368.214 190.955C365.804 192.481 362.007 193.066 359.177 192.458C347.876 190.032 336.72 186.934 325.479 184.212C324.34 183.936 322.881 184.268 321.758 184.752C310.827 189.456 299.294 192.003 287.558 192.792C280.643 193.257 273.366 192.504 266.672 190.722C261.525 189.352 256.972 190.034 252.274 191.07C232.043 195.533 213.095 191.983 194.934 182.562C193.462 181.798 191.322 181.743 189.631 182.072C179.032 184.137 168.493 186.515 157.886 188.536C154.833 189.117 151.585 189.217 148.491 188.901C144.628 188.506 142.737 182.466 144.611 176.876C147.512 168.226 150.538 159.618 153.738 150.648ZM182.982 58.5296C171.768 70.852 166.149 85.6188 165.121 101.986C164.358 114.139 167.263 125.709 172.71 136.745C174.026 139.411 173.794 143.448 172.927 146.468C170.767 153.995 167.832 161.3 164.979 169.339C172.25 168.028 179.163 167.168 185.86 165.461C192.09 163.872 197.78 163.578 203.548 167.044C206.95 169.088 210.765 170.589 214.564 171.799C232.768 177.597 250.448 175.921 267.33 167.142C279.518 160.805 288.996 151.606 296.009 139.615C305.121 124.037 307.367 107.393 303.489 90.2348C299.584 72.9555 290.177 58.6142 275.612 48.2012C259.24 36.4972 241.017 32.0919 221.189 36.425C206.449 39.6463 193.661 46.6516 182.982 58.5296Z" fill="url(#paint0_linear_1624_125)"/>
<path d="M335.997 306.042C346.01 293.702 358.909 286.86 374.095 284.017C382.653 282.416 386.158 283.971 391.201 291.555C392.369 293.311 393.632 295.05 395.105 296.548C405.925 307.554 413.412 305.234 422.966 294.152C424.866 291.948 426.506 289.52 428.296 287.219C431.874 282.62 437.145 283.359 441.577 284.167C467.475 288.889 486.565 304.649 492.496 331.573C494.769 341.892 493.937 352.978 493.702 363.696C493.656 365.834 490.171 369.273 487.79 369.76C472.591 372.874 457.339 376.022 441.948 377.811C425.962 379.668 409.792 380.851 393.714 380.743C379.704 380.649 365.685 378.554 351.717 376.933C344.36 376.079 337.129 374.192 329.795 373.068C324.616 372.274 322.305 368.582 322.157 364.361C321.56 347.353 321.679 330.324 330.081 314.742C331.684 311.77 333.986 309.174 335.997 306.042Z" fill="url(#paint1_linear_1624_125)"/>
<path d="M181.997 424.037C192.032 409.385 205.863 401.253 222.844 398.027C230.693 396.536 234.767 398.197 239.607 405.047C241.391 407.572 243.454 409.954 245.673 412.109C254.368 420.555 258.628 418.98 266.955 412.415C269.739 410.221 272.381 407.389 274.01 404.283C277.457 397.709 283.179 397.094 289.14 398.091C315.951 402.577 334.262 419.717 340.885 445.962C341.872 449.874 341.689 454.087 341.993 458.164C342.359 463.074 342.855 467.985 342.958 472.902C343.123 480.784 341.29 483.481 333.936 484.91C320.618 487.498 307.298 490.489 293.832 491.801C275.343 493.604 256.695 495.086 238.157 494.708C217.89 494.294 197.621 492.05 177.796 487.077C173.48 485.994 171.123 483.352 171.103 479.352C171.031 465.298 169.578 451.031 175.075 437.548C176.934 432.989 179.643 428.777 181.997 424.037Z" fill="url(#paint2_linear_1624_125)"/>
<path d="M85.9936 289.941C87.6589 292.347 89.0949 294.587 90.9572 296.385C102.055 307.103 106.975 305.457 116.875 296.539C118.793 294.812 120.654 292.752 121.783 290.47C124.927 284.121 130.431 283.004 136.347 284.095C160.891 288.622 178.497 301.875 185.844 326.31C188.38 334.745 188.846 343.832 189.923 352.662C190.401 356.581 190.661 360.735 189.831 364.522C189.37 366.622 186.696 369.383 184.612 369.798C169.403 372.825 154.175 376.099 138.788 377.798C121.642 379.691 104.289 381.155 87.0866 380.67C70.3929 380.2 53.7703 377.064 37.1286 375.001C33.457 374.545 29.8582 373.503 26.1866 373.047C21.7274 372.492 19.114 369.7 19.1422 365.725C19.2407 351.854 17.6625 337.914 22.8452 324.327C31.0586 302.794 45.5236 289.063 68.5412 284.99C70.2869 284.681 72.0155 284.262 73.7689 284.013C78.9999 283.27 83.5488 284.098 85.9936 289.941Z" fill="url(#paint3_linear_1624_125)"/>
<path d="M367.712 208.73C375.873 192.746 388.7 184.889 406.165 183.947C418.854 183.263 429.724 186.938 439.135 195.556C446.903 202.67 451.384 211.21 453.082 221.608C455.499 236.413 451.152 249.345 443.142 261.408C434.869 273.866 423.108 281.391 408.277 281.69C394.773 281.962 383.435 275.284 375.371 264.567C366.83 253.215 361.498 240.3 363.14 225.681C363.774 220.039 365.976 214.574 367.712 208.73Z" fill="url(#paint4_linear_1624_125)"/>
<path d="M272.866 392.018C253.054 400.87 234.326 392.032 222.978 376.98C213.668 364.634 210.351 350.601 212.149 335.586C213.549 323.905 219.472 314.13 228.963 307.068C242.761 296.8 258.004 295.149 274.042 301.006C288.191 306.174 297.162 316.628 300.755 330.824C304.714 346.467 301.689 361.514 292.488 374.921C287.545 382.124 281.35 388.187 272.866 392.018Z" fill="url(#paint5_linear_1624_125)"/>
<path d="M141.273 201.717C153.925 217.305 152.8 243.514 140.373 261.032C133.97 270.06 126.042 277.338 114.762 280.071C101.513 283.282 89.6665 280.622 79.3519 271.794C69.0232 262.954 62.4211 251.704 60.2155 238.328C56.4216 215.318 67.752 191.016 94.298 185.08C112.229 181.07 127.745 185.925 140.185 199.733C140.594 200.187 140.759 200.861 141.273 201.717Z" fill="url(#paint6_linear_1624_125)"/>
<path d="M82.9995 7.99999C101.166 7.99999 118.833 7.99531 136.499 8.00258C142.5 8.00505 147.05 11.7279 146.993 16.5532C146.935 21.3948 142.429 24.9973 136.393 24.998C101.06 25.002 65.7263 25 30.393 25C28.7586 25 27.1242 25 24.9995 25C24.9995 26.9005 24.9995 28.5097 24.9995 30.1189C24.9995 57.9522 24.9897 85.7856 25.0102 113.619C25.0132 117.652 23.3125 120.817 19.5051 121.891C14.2344 123.378 10.228 121.374 8.57916 116.998C8.08094 115.676 8.0233 114.13 8.02194 112.687C7.99243 81.3536 7.99659 50.0203 8.00158 18.687C8.00276 11.2993 11.2327 8.00653 18.4996 8.00333C39.8329 7.99395 61.1662 7.99999 82.9995 7.99999Z" fill="url(#paint7_linear_1624_125)"/>
<path d="M506 76C506 88.6666 506.017 100.833 505.992 113C505.98 119.227 503.19 122.03 497.153 122C491.68 121.973 489.007 118.99 489.004 112.806C488.993 85.3059 489 57.8059 489 30.3059C489 28.6744 489 27.0429 489 25C486.862 25 485.077 25 483.293 25C448.126 25 412.96 25.0013 377.793 24.9988C371.677 24.9984 366.914 21.5963 367.111 16.7441C367.312 11.8164 371.41 7.81726 377.814 7.86228C416.978 8.13761 456.146 7.99763 495.312 8.00209C502.7 8.00293 505.992 11.2332 505.996 18.5C506.006 37.5 506 56.5 506 76Z" fill="url(#paint8_linear_1624_125)"/>
<path d="M42.9993 506C34.3327 506 26.1659 506.022 17.9994 505.993C11.4128 505.969 8.00754 502.505 8.00488 495.813C7.99238 464.313 7.99448 432.813 8.00331 401.313C8.00512 394.862 10.6541 391.997 16.5334 392C22.3691 392.003 24.9938 394.888 24.9957 401.381C25.004 430.37 24.9993 459.358 24.9993 489C26.8839 489 28.6384 489 30.3929 489C65.7262 489 101.06 488.998 136.393 489.002C142.429 489.003 146.935 492.605 146.993 497.447C147.05 502.272 142.499 505.996 136.499 505.997C105.499 506.003 74.4993 506 42.9993 506Z" fill="url(#paint9_linear_1624_125)"/>
<path d="M367.02 497.108C369.809 490.097 371.486 489 378.831 489C415.309 489 451.787 489 489 489C489 487.208 489 485.466 489 483.725C489 456.408 488.998 429.091 489.002 401.774C489.003 394.813 491.481 391.994 497.564 392C503.539 392.006 505.999 394.885 505.999 401.902C506.002 433.05 506.003 464.198 505.998 495.346C505.997 502.69 502.737 505.996 495.478 505.997C456.668 506.003 417.857 506 379.047 506C371.136 506 369.756 505.026 367.02 497.108Z" fill="url(#paint10_linear_1624_125)"/>
<path d="M194.393 117C218.332 117 241.818 117.252 265.292 116.832C271.569 116.72 275.63 120.717 274 128.07C273.199 131.68 270.935 133.051 267.273 133.039C243.125 132.963 218.977 133.011 194.83 132.991C189.486 132.987 187.293 131.101 187.001 126.447C186.586 119.841 187.981 117.941 194.393 117Z" fill="url(#paint11_linear_1624_125)"/>
<path d="M203.949 90.7773C201.68 83.4475 204.701 79.0059 211.628 79.002C224.433 78.9949 237.238 78.9839 250.042 79.0074C255.679 79.0178 257.982 81.3422 258 86.9051C258.019 92.8541 256.032 94.9751 250.233 94.9899C237.428 95.0225 224.621 94.873 211.82 95.0827C208.294 95.1404 205.758 94.2138 203.949 90.7773Z" fill="url(#paint12_linear_1624_125)"/>
<defs>
<linearGradient id="paint0_linear_1624_125" x1="257.516" y1="19.1449" x2="257.516" y2="192.983" gradientUnits="userSpaceOnUse">
<stop stop-color="#5B50A1"/>
<stop offset="1" stop-color="#0D70AE"/>
</linearGradient>
<linearGradient id="paint1_linear_1624_125" x1="407.995" y1="283.448" x2="407.995" y2="380.75" gradientUnits="userSpaceOnUse">
<stop stop-color="#5B50A1"/>
<stop offset="1" stop-color="#0D70AE"/>
</linearGradient>
<linearGradient id="paint2_linear_1624_125" x1="256.922" y1="397.523" x2="256.922" y2="494.767" gradientUnits="userSpaceOnUse">
<stop stop-color="#5B50A1"/>
<stop offset="1" stop-color="#0D70AE"/>
</linearGradient>
<linearGradient id="paint3_linear_1624_125" x1="104.68" y1="283.728" x2="104.68" y2="380.764" gradientUnits="userSpaceOnUse">
<stop stop-color="#5B50A1"/>
<stop offset="1" stop-color="#0D70AE"/>
</linearGradient>
<linearGradient id="paint4_linear_1624_125" x1="408.296" y1="183.867" x2="408.296" y2="281.698" gradientUnits="userSpaceOnUse">
<stop stop-color="#5B50A1"/>
<stop offset="1" stop-color="#0D70AE"/>
</linearGradient>
<linearGradient id="paint5_linear_1624_125" x1="257.068" y1="297.642" x2="257.068" y2="395.546" gradientUnits="userSpaceOnUse">
<stop stop-color="#5B50A1"/>
<stop offset="1" stop-color="#0D70AE"/>
</linearGradient>
<linearGradient id="paint6_linear_1624_125" x1="104.872" y1="183.72" x2="104.872" y2="281.382" gradientUnits="userSpaceOnUse">
<stop stop-color="#5B50A1"/>
<stop offset="1" stop-color="#0D70AE"/>
</linearGradient>
<linearGradient id="paint7_linear_1624_125" x1="77.4956" y1="7.99808" x2="77.4956" y2="122.378" gradientUnits="userSpaceOnUse">
<stop stop-color="#5B50A1"/>
<stop offset="1" stop-color="#0D70AE"/>
</linearGradient>
<linearGradient id="paint8_linear_1624_125" x1="436.556" y1="7.86191" x2="436.556" y2="122" gradientUnits="userSpaceOnUse">
<stop stop-color="#5B50A1"/>
<stop offset="1" stop-color="#0D70AE"/>
</linearGradient>
<linearGradient id="paint9_linear_1624_125" x1="77.4946" y1="392" x2="77.4946" y2="506.008" gradientUnits="userSpaceOnUse">
<stop stop-color="#5B50A1"/>
<stop offset="1" stop-color="#0D70AE"/>
</linearGradient>
<linearGradient id="paint10_linear_1624_125" x1="436.511" y1="392" x2="436.511" y2="506.001" gradientUnits="userSpaceOnUse">
<stop stop-color="#5B50A1"/>
<stop offset="1" stop-color="#0D70AE"/>
</linearGradient>
<linearGradient id="paint11_linear_1624_125" x1="230.647" y1="116.83" x2="230.647" y2="133.039" gradientUnits="userSpaceOnUse">
<stop stop-color="#5B50A1"/>
<stop offset="1" stop-color="#0D70AE"/>
</linearGradient>
<linearGradient id="paint12_linear_1624_125" x1="230.603" y1="78.9931" x2="230.603" y2="95.0852" gradientUnits="userSpaceOnUse">
<stop stop-color="#5B50A1"/>
<stop offset="1" stop-color="#0D70AE"/>
</linearGradient>
</defs>
</svg>
