<svg width="512" height="512" viewBox="0 0 512 512" fill="none" xmlns="http://www.w3.org/2000/svg">
<path d="M164.001 503C130.505 503 97.5089 503.124 64.5142 502.955C43.9482 502.849 28.438 493.364 18.0514 475.867C5.29825 454.383 9.56387 428.315 27.3026 411.334C36.9681 402.082 48.8222 397.321 62.3511 396.978C70.7514 396.765 79.2078 396.856 87.5279 395.872C97.9166 394.643 107.12 381.837 107.097 371.688C106.921 294.032 107.001 216.376 107.001 138.719C107.001 137.388 107.001 136.056 107.001 134.362C176.889 134.362 246.709 134.362 317.23 134.362C311.249 140.313 305.742 146 300.007 151.447C291.866 159.18 287.338 168.312 286.872 179.745C286.514 188.52 284.901 197.238 284.063 206.003C283.823 208.513 284.337 211.096 284.528 214C282.929 214 281.12 214 279.311 214C231.151 214 182.99 214.027 134.83 213.957C130.237 213.95 127.065 215.87 126.135 220.16C125.283 224.093 126.497 227.738 130.851 229.273C132.186 229.744 133.676 229.959 135.097 229.969C143.565 230.032 152.033 230 161.001 230C161.001 232.056 161.001 233.83 161.001 235.605C161.001 312.094 160.964 388.584 161.142 465.073C161.149 467.996 162.668 471.34 164.475 473.741C167.831 478.201 175.448 475.459 176.793 470.373C177.532 467.577 177.946 464.609 177.951 461.717C178.025 422.723 178.001 383.729 178.001 344.367C210.126 344.367 242.196 344.367 274.633 344.367C274.633 367.459 274.633 390.863 274.633 414.786C273.554 414.845 272.137 414.989 270.72 414.99C252.889 415.005 235.057 414.924 217.227 415.078C214.412 415.102 211.288 415.578 208.875 416.891C205.649 418.646 204.077 422.154 205.125 425.788C206.162 429.381 209.183 431.365 212.905 431.969C214.041 432.153 215.233 432 216.399 432C273.392 432 330.384 431.947 387.376 432.046C398.281 432.065 405.883 424.237 405.926 413.771C406.104 370.944 406.019 328.116 405.98 285.289C405.974 279.308 402.029 274.828 397.244 275.001C392.565 275.169 389.009 279.587 389.004 285.292C388.993 299.288 389.001 313.284 389.001 327.64C318.864 327.64 248.798 327.64 178.366 327.64C178.366 295.539 178.366 263.136 178.366 230C179.796 230 181.539 230 183.283 230C225.11 230 266.942 230.293 308.764 229.813C320.598 229.677 332.597 228.134 344.148 225.565C350.054 224.252 355.994 220.118 360.451 215.759C387.015 189.777 413.175 163.38 439.388 137.041C441.518 134.9 443.551 133.879 446.673 133.916C462.169 134.1 477.668 133.997 493.166 134.001C500.376 134.004 502.998 136.563 502.999 143.628C503.002 260.279 503.002 376.93 502.997 493.581C502.997 500.351 500.31 502.997 493.457 502.997C383.805 503.001 274.153 503 164.001 503Z" fill="url(#paint0_linear_1624_141)"/>
<path d="M10.9992 165C10.9992 130.506 11.0596 96.5124 10.9787 62.5189C10.9215 38.536 28.929 15.6239 53.6488 12.1604C63.4087 10.793 73.4454 10.9397 83.3374 11.1761C88.0624 11.289 90.3432 15.3143 90.9731 19.8901C91.1307 21.035 90.9991 22.2198 90.9991 23.3862C90.9992 138.198 91.0088 253.01 90.9406 367.823C90.939 370.519 90.7201 373.6 89.424 375.811C87.9382 378.345 85.6473 380.242 81.7515 380.145C67.6999 379.796 53.6689 379.577 40.1178 384.863C29.1858 389.127 19.7239 395.268 10.9992 404.517C10.9992 324.239 10.9992 244.87 10.9992 165Z" fill="url(#paint1_linear_1624_141)"/>
<path d="M342.751 131.75C365.498 108.988 387.996 86.4756 410.034 64.4225C423.137 77.5291 436.144 90.5387 449.436 103.835C449.367 103.914 448.57 104.92 447.669 105.822C417.51 135.998 387.298 166.121 357.242 196.398C354.259 199.403 352.607 199.328 349.727 196.359C339.17 185.475 328.466 174.726 317.545 164.207C314.389 161.168 314.809 159.465 317.698 156.688C326.108 148.607 334.252 140.249 342.751 131.75Z" fill="url(#paint2_linear_1624_141)"/>
<path d="M350 344C363.143 344 375.786 344 388.714 344C388.714 367.621 388.714 391.024 388.714 414.714C356.712 414.714 324.643 414.714 292.287 414.714C292.287 391.379 292.287 367.976 292.287 344C311.311 344 330.406 344 350 344Z" fill="url(#paint3_linear_1624_141)"/>
<path d="M449.785 24.7089C454.064 20.416 457.918 16.1964 462.178 12.4361C465.184 9.78197 471.86 10.4086 474.86 13.3616C483.517 21.8818 492.112 30.4672 500.625 39.1311C503.79 42.352 504.176 48.9288 501.206 52.1448C496.722 56.9991 491.879 61.5214 486.988 66.3844C474.19 53.6147 461.585 41.0845 449.113 28.4228C448.608 27.9102 449.365 26.1547 449.785 24.7089Z" fill="url(#paint4_linear_1624_141)"/>
<path d="M432.774 41.7247C433.957 40.579 434.892 39.6923 435.524 39.093C448.74 52.3061 461.723 65.2875 474.507 78.0687C470.499 82.1462 466.238 86.4812 461.298 91.5067C448.482 78.5999 435.527 65.5537 422.268 52.2007C425.993 48.4906 429.259 45.2372 432.774 41.7247Z" fill="url(#paint5_linear_1624_141)"/>
<path d="M300.988 203.579C301.948 193.471 302.898 183.806 303.801 174.619C315.612 186.477 327.318 198.229 338.949 209.907C333.881 210.517 327.732 211.306 321.57 211.984C317.184 212.467 312.781 213.084 308.387 213.082C306.147 213.081 303.079 212.499 301.897 210.993C300.651 209.408 301.208 206.407 300.988 203.579Z" fill="url(#paint6_linear_1624_141)"/>
<defs>
<linearGradient id="paint0_linear_1624_141" x1="256.843" y1="133.915" x2="256.843" y2="503.044" gradientUnits="userSpaceOnUse">
<stop stop-color="#5B50A1"/>
<stop offset="1" stop-color="#0D70AE"/>
</linearGradient>
<linearGradient id="paint1_linear_1624_141" x1="51.0146" y1="11.0219" x2="51.0146" y2="404.517" gradientUnits="userSpaceOnUse">
<stop stop-color="#5B50A1"/>
<stop offset="1" stop-color="#0D70AE"/>
</linearGradient>
<linearGradient id="paint2_linear_1624_141" x1="382.393" y1="64.4225" x2="382.393" y2="198.619" gradientUnits="userSpaceOnUse">
<stop stop-color="#5B50A1"/>
<stop offset="1" stop-color="#0D70AE"/>
</linearGradient>
<linearGradient id="paint3_linear_1624_141" x1="340.501" y1="344" x2="340.501" y2="414.714" gradientUnits="userSpaceOnUse">
<stop stop-color="#5B50A1"/>
<stop offset="1" stop-color="#0D70AE"/>
</linearGradient>
<linearGradient id="paint4_linear_1624_141" x1="476.088" y1="10.7562" x2="476.088" y2="66.3844" gradientUnits="userSpaceOnUse">
<stop stop-color="#5B50A1"/>
<stop offset="1" stop-color="#0D70AE"/>
</linearGradient>
<linearGradient id="paint5_linear_1624_141" x1="448.387" y1="39.093" x2="448.387" y2="91.5067" gradientUnits="userSpaceOnUse">
<stop stop-color="#5B50A1"/>
<stop offset="1" stop-color="#0D70AE"/>
</linearGradient>
<linearGradient id="paint6_linear_1624_141" x1="319.969" y1="174.619" x2="319.969" y2="213.082" gradientUnits="userSpaceOnUse">
<stop stop-color="#5B50A1"/>
<stop offset="1" stop-color="#0D70AE"/>
</linearGradient>
</defs>
</svg>
