<svg width="512" height="512" viewBox="0 0 512 512" fill="none" xmlns="http://www.w3.org/2000/svg">
<rect width="512" height="512" fill="#FFF8F0"/>
<path d="M314.633 125H223.267C216.343 125 209.704 127.75 204.808 132.646C199.912 137.541 197.162 144.181 197.162 151.105V359.942C197.162 366.866 199.912 373.505 204.808 378.401C209.704 383.297 216.343 386.047 223.267 386.047H379.895C386.818 386.047 393.458 383.297 398.354 378.401C403.249 373.505 406 366.866 406 359.942V216.366L314.633 125Z" fill="#FEB76F"/>
<path d="M314.633 125V216.366H405.999" fill="#E19E5B"/>
<path d="M106 251.682C106 247.014 106 242.747 106 238.148C112.91 237.499 119.667 236.864 126.045 236.265C127.968 231.378 129.405 226.39 131.849 221.956C133.704 218.59 132.773 216.489 130.685 214.106C127.259 210.194 123.871 206.248 120.498 202.352C128.457 194.392 136.216 186.633 144.193 178.655C148.75 182.407 153.414 186.117 157.911 190.019C159.439 191.345 160.231 191.524 162.247 190.426C167.274 187.687 172.684 185.651 178.218 183.209C178.765 177.088 179.362 170.418 179.976 163.545C191.076 163.545 202.13 163.545 213.537 163.545C214.402 170.288 215.276 177.102 216.062 183.232C222.489 185.989 228.49 188.563 234.888 191.308C239.724 187.279 244.919 182.953 250.082 178.652C257.969 186.555 265.72 194.322 273.659 202.277C270.011 206.788 266.446 211.547 262.474 215.938C260.874 217.707 261.074 218.935 261.881 220.772C264.093 225.806 266.146 230.908 268.389 236.289C274.53 236.841 281.3 237.45 288.145 238.065C288.145 249.405 288.145 260.457 288.145 271.564C282.548 272.213 277.111 272.843 272.298 273.402C269.751 278.955 267.263 284.035 265.143 289.264C264.656 290.464 264.945 292.533 265.715 293.593C269.316 298.547 273.209 303.288 277.221 308.389C269.869 315.668 262.611 322.944 255.189 330.05C254.537 330.674 252.455 330.695 251.657 330.126C247.73 327.325 243.932 324.327 240.254 321.204C238.143 319.41 236.386 318.915 233.659 320.244C228.938 322.545 223.928 324.249 218.57 326.391C217.77 332.732 216.872 339.842 215.957 347.094C204.765 347.094 193.705 347.094 182.502 347.094C181.625 340.448 180.802 333.87 179.822 327.316C179.721 326.647 178.776 325.866 178.046 325.568C173.168 323.575 168.271 321.617 163.307 319.856C162.342 319.513 160.775 319.702 159.962 320.297C156.07 323.146 152.276 326.14 148.58 329.241C146.245 331.2 144.495 331.804 141.984 329.16C135.35 322.176 128.402 315.49 121.329 308.436C125.184 303.446 129.099 298.527 132.796 293.448C133.42 292.591 133.558 290.859 133.143 289.853C130.938 284.519 128.485 279.287 125.835 273.39C120.024 272.842 113.237 272.202 106 271.52C106 265.109 106 258.596 106 251.682Z" fill="#C48749" fill-opacity="0.5"/>
</svg>
