<svg width="512" height="512" viewBox="0 0 512 512" fill="none" xmlns="http://www.w3.org/2000/svg">
<path d="M435.302 332.737C440.509 349.975 445.973 366.776 450.244 383.874C453.877 398.419 456.439 413.257 458.91 428.06C461.023 440.724 463.356 453.49 463.75 466.267C464.283 483.518 451.899 497.742 435.315 501.932C432.197 502.72 428.865 502.956 425.632 502.958C312.652 503.008 199.671 503.065 86.6912 502.937C67.6243 502.915 51.5226 487.373 48.818 468.588C47.2767 457.882 50.2672 447.955 51.7673 437.781C53.6976 424.689 56.405 411.703 59.0308 398.723C63.7498 375.397 69.8267 352.434 78.3888 330.192C83.0846 317.993 88.2817 305.949 97.1154 296.119C100.942 291.861 105.663 288.098 110.622 285.22C128.979 274.566 149.218 268.893 169.702 264.031C170.623 263.812 171.641 264.003 172.575 264.003C187.326 320.241 218.41 366.846 255.962 410.69C293.837 367.395 324.608 320.564 339.524 263.512C345.592 264.988 351.817 266.355 357.961 268.026C374.735 272.589 391.169 277.876 405.746 287.897C414.737 294.077 420.865 302.493 425.871 311.778C429.434 318.388 432.019 325.526 435.302 332.737Z" fill="url(#paint0_linear_1624_150)"/>
<path d="M144 121.002C144 115.189 144 109.876 144 104.15C152.604 103.342 161.018 102.551 168.958 101.805C171.353 95.7211 173.142 89.51 176.185 83.9893C178.494 79.7983 177.335 77.1817 174.736 74.2146C170.469 69.3442 166.252 64.4307 162.052 59.5797C171.962 49.6691 181.623 40.0076 191.555 30.075C197.229 34.746 203.036 39.3651 208.635 44.2239C210.537 45.8746 211.523 46.098 214.034 44.7302C220.293 41.3203 227.029 38.7849 233.92 35.7454C234.601 28.1233 235.343 19.8192 236.108 11.2611C249.929 11.2611 263.693 11.2611 277.896 11.2611C278.973 19.6565 280.061 28.1415 281.04 35.773C289.042 39.2056 296.513 42.4109 304.48 45.8284C310.502 40.813 316.97 35.4257 323.399 30.071C333.219 39.9111 342.87 49.582 352.754 59.4868C348.213 65.1035 343.774 71.0288 338.828 76.4959C336.836 78.6987 337.085 80.2273 338.09 82.5151C340.843 88.7823 343.4 95.136 346.192 101.835C353.839 102.523 362.268 103.281 370.791 104.047C370.791 118.166 370.791 131.928 370.791 145.756C363.823 146.564 357.053 147.35 351.059 148.045C347.889 154.959 344.791 161.284 342.151 167.795C341.545 169.289 341.905 171.865 342.864 173.185C347.346 179.354 352.194 185.257 357.189 191.608C348.036 200.672 338.998 209.731 329.758 218.578C328.946 219.355 326.353 219.381 325.359 218.673C320.47 215.186 315.741 211.453 311.162 207.564C308.532 205.331 306.346 204.715 302.949 206.369C297.072 209.233 290.833 211.356 284.162 214.023C283.166 221.918 282.049 230.771 280.909 239.8C266.974 239.8 253.202 239.8 239.254 239.8C238.162 231.525 237.137 223.335 235.916 215.174C235.792 214.341 234.614 213.369 233.706 212.998C227.632 210.516 221.535 208.079 215.354 205.885C214.152 205.459 212.201 205.694 211.189 206.435C206.343 209.982 201.619 213.711 197.017 217.571C194.109 220.01 191.931 220.762 188.804 217.47C180.544 208.774 171.893 200.45 163.086 191.667C167.886 185.454 172.761 179.329 177.364 173.005C178.141 171.938 178.313 169.782 177.796 168.529C175.051 161.887 171.996 155.373 168.697 148.03C161.461 147.348 153.011 146.552 144 145.702C144 137.719 144 129.61 144 121.002ZM200.002 114.757C200.001 120.908 199.584 127.092 200.087 133.201C201.063 145.036 206.266 155.268 214.346 163.694C227.856 177.783 244.163 184.671 264.154 182.116C276.678 180.515 287.454 175.558 296.338 166.997C310.463 153.385 316.941 136.855 314.092 116.932C312.538 106.065 308.608 96.2161 301.492 88.2034C287.363 72.296 269.823 64.5751 248.026 67.9172C231.775 70.4089 218.83 78.13 210.01 91.7282C205.654 98.4446 203.292 106.454 200.002 114.757Z" fill="url(#paint1_linear_1624_150)"/>
<path d="M241.001 326.003C248.137 311.467 241.671 299.028 235.311 286.233C250.73 286.233 265.256 286.233 280.149 286.233C278.25 291.265 277.124 296.437 274.505 300.689C270.22 307.647 271.749 314.498 273.226 321.528C275.077 330.338 277.164 339.1 278.861 347.939C279.155 349.475 278.428 351.574 277.479 352.924C271.445 361.505 265.223 369.955 259.035 378.428C258.567 379.069 257.876 379.547 256.764 380.598C252.432 375.077 248.255 369.76 244.087 364.435C243.194 363.293 242.365 362.1 241.453 360.974C236.216 354.509 233.703 347.799 237.657 339.47C239.545 335.491 239.931 330.799 241.001 326.003Z" fill="url(#paint2_linear_1624_150)"/>
<path d="M268.495 101.178C284.348 109.27 288.118 130.287 275.987 142.885C263.928 155.408 244.042 153.085 234.949 138.828C226.923 126.245 231.317 109.689 242.94 102.663C250.894 97.8548 259.489 97.8592 268.495 101.178Z" fill="url(#paint3_linear_1624_150)"/>
<defs>
<linearGradient id="paint0_linear_1624_150" x1="256.078" y1="263.512" x2="256.078" y2="503.015" gradientUnits="userSpaceOnUse">
<stop stop-color="#5B50A1"/>
<stop offset="1" stop-color="#0D70AE"/>
</linearGradient>
<linearGradient id="paint1_linear_1624_150" x1="257.396" y1="11.2611" x2="257.396" y2="239.8" gradientUnits="userSpaceOnUse">
<stop stop-color="#5B50A1"/>
<stop offset="1" stop-color="#0D70AE"/>
</linearGradient>
<linearGradient id="paint2_linear_1624_150" x1="257.73" y1="286.233" x2="257.73" y2="380.598" gradientUnits="userSpaceOnUse">
<stop stop-color="#5B50A1"/>
<stop offset="1" stop-color="#0D70AE"/>
</linearGradient>
<linearGradient id="paint3_linear_1624_150" x1="257.01" y1="98.8474" x2="257.01" y2="151.041" gradientUnits="userSpaceOnUse">
<stop stop-color="#5B50A1"/>
<stop offset="1" stop-color="#0D70AE"/>
</linearGradient>
</defs>
</svg>
