<svg width="512" height="512" viewBox="0 0 512 512" fill="none" xmlns="http://www.w3.org/2000/svg">
<path d="M430.665 329.792C435.748 346.618 441.081 363.017 445.25 379.706C448.796 393.904 451.297 408.388 453.709 422.837C455.772 435.198 458.049 447.659 458.434 460.131C458.954 476.969 446.866 490.853 430.678 494.943C427.634 495.712 424.383 495.943 421.227 495.944C310.947 495.994 200.667 496.049 90.387 495.924C71.7758 495.903 56.0591 480.732 53.4191 462.396C51.9146 451.946 54.8336 442.256 56.2979 432.325C58.1821 419.546 60.8247 406.871 63.3878 394.201C67.994 371.432 73.9256 349.019 82.283 327.308C86.8666 315.401 91.9395 303.645 100.562 294.05C104.297 289.893 108.906 286.22 113.746 283.411C131.664 273.011 151.42 267.474 171.414 262.728C172.313 262.514 173.307 262.7 174.218 262.7C188.616 317.594 218.958 363.086 255.612 405.882C292.581 363.621 322.618 317.91 337.177 262.222C343.099 263.663 349.176 264.997 355.172 266.628C371.546 271.082 387.587 276.242 401.816 286.024C410.592 292.056 416.574 300.271 421.459 309.334C424.938 315.786 427.461 322.753 430.665 329.792Z" fill="url(#paint0_linear_1636_54)" stroke="black" stroke-width="20"/>
<path d="M146.326 123.117C146.326 117.444 146.326 112.258 146.326 106.669C154.724 105.88 162.937 105.108 170.688 104.38C173.025 98.4412 174.772 92.3786 177.741 86.9898C179.996 82.899 178.865 80.3449 176.328 77.4488C172.163 72.6948 168.046 67.8988 163.947 63.1637C173.62 53.49 183.049 44.0594 192.744 34.3642C198.283 38.9235 203.951 43.4322 209.416 48.1749C211.273 49.7862 212.235 50.0042 214.686 48.6692C220.796 45.3408 227.37 42.8659 234.097 39.8991C234.762 32.4591 235.486 24.3535 236.233 16C249.723 16 263.158 16 277.022 16C278.073 24.1947 279.135 32.4769 280.09 39.926C287.901 43.2766 295.194 46.4053 302.97 49.7411C308.848 44.8456 315.162 39.5871 321.437 34.3603C331.022 43.9652 340.443 53.405 350.091 63.073C345.658 68.5554 341.325 74.3391 336.498 79.6756C334.553 81.8258 334.796 83.3178 335.777 85.5509C338.465 91.6683 340.96 97.8701 343.686 104.409C351.149 105.08 359.377 105.82 367.696 106.568C367.696 120.35 367.696 133.783 367.696 147.28C360.895 148.069 354.287 148.836 348.436 149.514C345.341 156.263 342.318 162.437 339.741 168.792C339.15 170.251 339.5 172.765 340.437 174.054C344.812 180.075 349.544 185.837 354.42 192.036C345.485 200.883 336.663 209.726 327.644 218.361C326.851 219.12 324.32 219.145 323.351 218.454C318.579 215.051 313.962 211.407 309.492 207.611C306.926 205.431 304.792 204.83 301.476 206.445C295.739 209.24 289.65 211.312 283.138 213.916C282.166 221.622 281.075 230.263 279.963 239.076C266.361 239.076 252.918 239.076 239.304 239.076C238.237 230.999 237.237 223.005 236.045 215.039C235.924 214.226 234.774 213.277 233.888 212.915C227.959 210.493 222.008 208.113 215.974 205.972C214.802 205.556 212.897 205.786 211.909 206.509C207.179 209.971 202.568 213.611 198.076 217.379C195.238 219.759 193.112 220.493 190.059 217.28C181.997 208.792 173.553 200.667 164.956 192.094C169.642 186.029 174.4 180.05 178.893 173.878C179.651 172.836 179.819 170.731 179.314 169.509C176.635 163.025 173.653 156.667 170.433 149.5C163.37 148.834 155.122 148.057 146.326 147.227C146.326 139.436 146.326 131.52 146.326 123.117Z" fill="url(#paint1_linear_1636_54)" stroke="black" stroke-width="20"/>
<defs>
<linearGradient id="paint0_linear_1636_54" x1="255.725" y1="262.222" x2="255.725" y2="496" gradientUnits="userSpaceOnUse">
<stop stop-color="#C6C0E9"/>
<stop offset="1" stop-color="white"/>
</linearGradient>
<linearGradient id="paint1_linear_1636_54" x1="257.011" y1="16" x2="257.011" y2="239.076" gradientUnits="userSpaceOnUse">
<stop stop-color="#C6C0E9"/>
<stop offset="1" stop-color="white"/>
</linearGradient>
</defs>
</svg>
