<svg width="512" height="512" viewBox="0 0 512 512" fill="none" xmlns="http://www.w3.org/2000/svg">
<path d="M209.942 476.125C208.984 473.611 207.428 471.528 207.304 469.362C206.849 461.426 200.865 459.072 195.041 456.563C182.089 450.982 169.029 445.653 156.131 439.953C152.489 438.343 149.617 438.589 146.076 440.359C135.189 445.804 124.042 450.728 113.083 456.034C110.182 457.438 108.285 456.894 106.098 454.685C91.0918 439.531 76.0975 424.361 60.8192 409.484C56.9855 405.751 57.1379 402.525 59.2497 398.218C64.4628 387.583 69.5432 376.876 74.309 366.036C75.202 364.005 75.0939 360.937 74.2447 358.833C68.2261 343.918 61.9092 329.124 55.6488 314.308C54.4212 311.402 52.8021 309.18 49.3636 308.044C36.6048 303.832 23.983 299.205 11.1934 294.693C11.1934 269.555 11.1934 244.593 11.1934 219.407C24.3232 214.664 37.4359 210.011 50.4607 205.123C52.2123 204.466 54.2127 202.929 54.9273 201.29C61.7481 185.639 68.3959 169.911 74.8506 154.106C75.6061 152.256 75.5775 149.499 74.7563 147.687C69.3917 135.847 63.7872 124.113 58.0714 112.437C56.7188 109.674 57.3668 107.999 59.3951 105.989C75.0166 90.5076 90.6374 75.023 106.024 59.3095C109.049 56.2195 111.527 57.4078 114.347 58.7417C122.682 62.6841 131.159 66.3742 139.244 70.7802C146.714 74.8504 153.45 76.0277 161.663 71.936C174.126 65.7275 187.318 60.9943 200.051 55.3016C202.279 54.3054 204.616 51.9948 205.473 49.7464C210.317 37.0307 214.726 24.1491 219.328 11.1962C244.434 11.1962 269.396 11.1962 294.64 11.1962C299.274 24.1656 303.775 37.1604 308.654 50.0114C309.445 52.0952 311.599 54.2582 313.66 55.1681C328.823 61.8627 344.073 68.3723 359.436 74.5915C361.638 75.4829 364.938 75.2578 367.151 74.2624C379.576 68.6735 391.824 62.6901 404.918 56.4677C421.733 73.2667 438.54 89.9835 455.176 106.87C456.161 107.869 456.491 110.557 455.891 111.909C451.08 122.74 446.352 133.641 440.789 144.089C438.15 149.047 438.277 153.124 440.392 157.914C446.623 172.025 452.548 186.271 458.877 200.337C459.816 202.426 461.994 204.618 464.106 205.411C477.171 210.315 490.382 214.832 503.998 219.637C503.998 228.338 503.998 237.317 503.998 246.295C503.998 260.793 503.934 275.291 504.049 289.787C504.073 292.809 503.417 294.436 500.179 295.531C489.765 299.051 479.758 304.118 469.127 306.539C461.151 308.356 458.812 313.653 456.257 319.555C450.716 332.35 445.484 345.28 439.912 358.062C438.502 361.297 438.371 363.979 439.974 367.221C445.444 378.283 450.532 389.533 455.962 400.616C457.389 403.53 456.732 405.722 454.729 407.733C439.442 423.077 424.1 438.366 408.808 453.707C405.549 456.976 402.185 456.731 398.318 454.792C387.866 449.551 377.368 444.392 366.755 439.489C364.98 438.67 362.262 438.62 360.448 439.361C345.546 445.448 330.775 451.855 315.917 458.051C311.909 459.722 309.309 462.059 307.853 466.499C303.765 478.967 299.057 491.232 294.441 503.998C287.626 503.998 280.647 503.998 273.667 503.998C257.17 503.997 240.672 503.938 224.176 504.051C221.131 504.071 219.486 503.393 218.457 500.145C215.934 492.176 212.856 484.382 209.942 476.125ZM140.889 194.374C124.409 224.718 120.589 256.739 129.11 290.044C133.928 308.876 142.669 325.864 155.25 340.948C169.403 357.916 186.483 370.632 206.838 379.038C227.98 387.768 249.856 390.911 272.641 388.069C285.951 386.408 298.729 383.007 310.9 377.512C331.915 368.025 349.355 354.028 363.105 335.435C378.256 314.948 386.927 291.96 388.838 266.668C389.77 254.333 388.901 241.976 386.191 229.682C378.873 196.486 361.452 169.994 334.3 149.929C314.733 135.469 292.522 126.967 268.311 125.184C242.556 123.287 217.91 127.815 194.854 140.49C171.768 153.182 153.905 170.767 140.889 194.374Z" fill="url(#paint0_linear_1617_53)"/>
<path d="M188.737 275.763C196.165 268.176 203.196 260.625 212.937 256.593C214.388 255.993 216.683 255.778 217.898 256.518C230.59 264.25 244.257 268.336 259.139 267.976C272.428 267.653 284.435 263.102 295.91 256.675C297.477 255.798 300.42 255.719 301.913 256.619C320.075 267.566 333.637 282.5 341.927 302.294C344.057 307.38 342.688 310.378 339.662 313.868C323.682 332.292 304.302 345.156 280.232 350.377C260.135 354.736 240.483 353.419 220.986 346.625C206.196 341.471 193.696 332.895 182.293 322.591C177.687 318.43 174.085 313.159 170 308.363C174.111 296.313 179.823 285.326 188.737 275.763Z" fill="url(#paint1_linear_1617_53)"/>
<path d="M221.27 222.619C211.519 204.405 215.307 185.719 227.768 173.097C238.741 161.983 252.66 158.408 268.176 162.613C294.256 169.682 306.437 200.565 291.928 224.059C279.483 244.211 251.247 249.774 232.419 234.77C228.263 231.458 225.085 226.918 221.27 222.619Z" fill="url(#paint2_linear_1617_53)"/>
<defs>
<linearGradient id="paint0_linear_1617_53" x1="257.622" y1="11.1962" x2="257.622" y2="504.051" gradientUnits="userSpaceOnUse">
<stop stop-color="#5B50A1"/>
<stop offset="1" stop-color="#0D70AE"/>
</linearGradient>
<linearGradient id="paint1_linear_1617_53" x1="256.48" y1="255.98" x2="256.48" y2="352.899" gradientUnits="userSpaceOnUse">
<stop stop-color="#5B50A1"/>
<stop offset="1" stop-color="#0D70AE"/>
</linearGradient>
<linearGradient id="paint2_linear_1617_53" x1="256.94" y1="160.904" x2="256.94" y2="243.295" gradientUnits="userSpaceOnUse">
<stop stop-color="#5B50A1"/>
<stop offset="1" stop-color="#0D70AE"/>
</linearGradient>
</defs>
</svg>
